<svg width="204" height="145" viewBox="0 0 204 145" fill="none" xmlns="http://www.w3.org/2000/svg">
<path d="M113.992 39.2194L113.608 38.5905C110.369 33.2445 104.513 30.0369 98.3404 30.4143C97.5466 30.461 96.7572 30.5662 95.9788 30.7288C93.1565 31.3711 90.5367 32.7007 88.3521 34.5994C86.1675 36.4982 84.4859 38.9073 83.4567 41.6125C82.268 44.8075 81.9346 48.4899 79.683 51.0277C76.7428 54.3296 71.7522 54.4334 67.3622 54.295C62.9722 54.1566 57.9784 54.2761 55.0539 57.5906C53.2205 59.6693 52.6388 62.6221 52.7866 65.402C53.1765 72.7637 58.3086 79.3487 64.8307 82.6191C71.3528 85.8896 79.0384 86.1852 86.18 84.7449C96.18 82.7292 105.693 77.1977 111.413 68.6379C117.133 60.0781 118.564 48.449 113.992 39.2194Z" fill="#F5F5F5"/>
<path d="M149.976 15.5872V16.0023C150 17.7124 150.491 19.3834 151.396 20.8345C152.301 22.2856 153.586 23.4616 155.112 24.2351C155.511 24.4336 155.924 24.6028 156.347 24.7414C157.896 25.2179 159.539 25.305 161.13 24.9951C162.72 24.6852 164.21 23.9878 165.467 22.9646C166.942 21.7476 168.137 20.0527 169.945 19.4552C172.297 18.6753 174.75 20.0244 176.841 21.32C178.933 22.6156 181.395 23.9615 183.744 23.169C185.216 22.6753 186.326 21.4049 187.033 20.0244C188.92 16.3388 188.26 11.7035 186.011 8.2884C183.763 4.87328 180.121 2.57452 176.25 1.27891C170.829 -0.545007 164.659 -0.522994 159.483 2.02734C154.307 4.57768 150.341 9.82301 149.976 15.5872Z" fill="#F5F5F5"/>
<path d="M18.9803 33.794C24.7134 31.4193 27.4359 24.8466 25.0611 19.1136C22.6864 13.3805 16.1137 10.658 10.3807 13.0327C4.64758 15.4074 1.92509 21.9801 4.29981 27.7132C6.67453 33.4463 13.2472 36.1687 18.9803 33.794Z" fill="#F5F5F5"/>
<path d="M92.1108 134.311C121.888 134.311 146.026 131.383 146.026 127.77C146.026 124.158 121.888 121.229 92.1108 121.229C62.3341 121.229 38.1952 124.158 38.1952 127.77C38.1952 131.383 62.3341 134.311 92.1108 134.311Z" fill="#263238"/>
<path d="M115.775 104.022C115.982 104.368 130.375 122.72 130.375 122.72L149.243 134.041L144.957 138.551C144.957 138.551 124.476 133.447 122.253 130.978C120.029 128.51 111.306 118.673 111.306 118.673L115.775 104.022Z" fill="#FFBF9D"/>
<path d="M125.372 127.61C125.377 127.529 125.395 127.45 125.426 127.374C125.489 127.165 125.571 126.962 125.671 126.767C126.325 125.454 127.469 124.45 128.856 123.972C129.061 123.9 129.272 123.845 129.485 123.808C129.639 123.783 129.724 123.774 129.724 123.786C129.724 123.799 129.41 123.881 128.891 124.082C128.233 124.343 127.625 124.714 127.092 125.179C126.561 125.649 126.113 126.204 125.765 126.821C125.51 127.296 125.4 127.62 125.372 127.61Z" fill="#FF9A6C"/>
<path d="M155.501 135.928L160.898 139.258C161.156 139.412 161.372 139.628 161.526 139.887L163.549 143.283C163.647 143.466 163.687 143.674 163.664 143.88C163.641 144.087 163.555 144.281 163.418 144.436C163.281 144.592 163.099 144.702 162.898 144.752C162.696 144.802 162.484 144.788 162.291 144.714L162.25 144.698C162.25 144.698 160.791 145.164 159.957 144.566C159.124 143.969 157.423 141.308 157.423 141.308L155.923 141.107L157.693 144.588C157.693 144.588 156.306 145.066 155.398 144.274C154.489 143.481 153.055 141.264 153.055 141.264L150.539 140.591C150.539 140.591 149.24 141.33 147.058 140.849C147.058 140.849 147.102 143.767 145.108 144.648C144.193 145.047 144.259 143.613 144.259 143.613L144.523 141.387C144.504 141.195 144.262 140.607 144.309 140.422L145.36 136.252L148.174 133.588L155.501 135.928Z" fill="#FFBF9D"/>
<path d="M156.115 140.45C156.239 140.51 156.359 140.579 156.473 140.657L157.454 141.286C157.882 141.865 158.448 142.629 159.137 143.488C159.31 143.705 159.489 143.928 159.681 144.154C159.851 144.396 160.078 144.592 160.341 144.727C160.634 144.832 160.947 144.867 161.256 144.827C161.583 144.797 161.905 144.726 162.215 144.617L162.171 144.73C162.001 144.415 161.819 144.066 161.633 143.72L159.8 140.261L159.828 140.289L156.558 138.252L155.633 137.661C155.522 137.595 155.417 137.52 155.319 137.437C155.438 137.489 155.552 137.55 155.662 137.62L156.605 138.176L159.907 140.164H159.926V140.183C160.483 141.223 161.111 142.384 161.772 143.642L162.31 144.651L162.354 144.733L162.266 144.764C161.941 144.878 161.604 144.952 161.262 144.984C160.928 145.026 160.589 144.985 160.275 144.865C160.198 144.832 160.125 144.794 160.055 144.749C159.989 144.699 159.927 144.646 159.869 144.588C159.759 144.475 159.662 144.362 159.555 144.245C159.363 144.016 159.184 143.79 159.011 143.569C158.328 142.689 157.778 141.915 157.363 141.324L156.42 140.67C156.312 140.605 156.21 140.531 156.115 140.45Z" fill="#FF9A6C"/>
<path d="M150.042 140.459C150.116 140.463 150.189 140.476 150.259 140.497L150.866 140.645L153.067 141.217H153.089V141.239C153.523 141.974 154.01 142.676 154.545 143.34C154.846 143.723 155.2 144.062 155.596 144.346C156.031 144.616 156.542 144.739 157.052 144.695C157.253 144.675 157.448 144.616 157.627 144.522L157.599 144.626C156.696 142.881 155.882 141.296 155.244 140.063L155.262 140.085L153.542 138.739L153.108 138.387C153.052 138.346 153 138.298 152.954 138.245C153.016 138.278 153.075 138.316 153.13 138.359L153.615 138.708L155.363 140.01C155.992 141.239 156.838 142.815 157.753 144.554L157.791 144.623L157.725 144.661C157.526 144.771 157.306 144.84 157.08 144.862C156.529 144.912 155.976 144.78 155.508 144.484C155.098 144.192 154.733 143.84 154.426 143.44C153.89 142.767 153.406 142.053 152.979 141.305L153.017 141.333L150.816 140.705L150.218 140.525C150.158 140.508 150.099 140.486 150.042 140.459Z" fill="#FF9A6C"/>
<path d="M144.586 144.676C144.586 144.657 144.681 144.695 144.844 144.695C145.074 144.692 145.296 144.61 145.473 144.462C145.739 144.238 145.967 143.973 146.149 143.676C146.259 143.51 146.369 143.33 146.464 143.145C146.568 142.952 146.652 142.749 146.712 142.538C146.884 141.922 146.989 141.289 147.026 140.651V140.616H147.052C147.41 140.374 147.706 140.176 147.916 140.044C148.022 139.966 148.136 139.901 148.256 139.849C148.256 139.849 148.159 139.953 147.96 140.107C147.762 140.261 147.476 140.472 147.127 140.736L147.155 140.682C147.138 141.332 147.04 141.976 146.863 142.601C146.799 142.82 146.709 143.031 146.596 143.23C146.485 143.42 146.371 143.6 146.256 143.767C146.061 144.074 145.811 144.342 145.52 144.56C145.32 144.714 145.068 144.787 144.816 144.764C144.749 144.758 144.683 144.742 144.621 144.717C144.605 144.676 144.583 144.676 144.586 144.676Z" fill="#FF9A6C"/>
<path d="M145.835 136.164C145.564 136.568 145.318 136.988 145.099 137.422C144.931 137.881 144.792 138.35 144.684 138.827C144.658 138.323 144.749 137.82 144.948 137.357C145.148 136.894 145.451 136.482 145.835 136.154V136.164Z" fill="#FF9A6C"/>
<path d="M66.5667 104.022C66.3623 104.368 51.9691 122.72 51.9691 122.72L33.101 134.041L37.3872 138.551C37.3872 138.551 57.8654 133.447 60.0918 130.978C62.3183 128.51 71.0385 118.673 71.0385 118.673L66.5667 104.022Z" fill="#FFBF9D"/>
<path d="M56.9722 127.61C56.9439 127.61 56.8339 127.296 56.5697 126.821C55.8777 125.574 54.7739 124.605 53.447 124.082C52.9407 123.881 52.6074 123.815 52.6106 123.786C52.6137 123.758 52.6986 123.786 52.8527 123.808C53.0666 123.845 53.277 123.9 53.4816 123.972C54.8689 124.45 56.0128 125.454 56.6672 126.767C56.7712 126.964 56.8585 127.169 56.9282 127.381C56.9547 127.454 56.9696 127.532 56.9722 127.61Z" fill="#FF9A6C"/>
<path d="M26.9499 135.667L21.5537 138.997C21.2894 139.149 21.0677 139.366 20.909 139.626L18.8775 143.032C18.7789 143.214 18.7386 143.423 18.762 143.629C18.7854 143.835 18.8714 144.029 19.0084 144.185C19.1454 144.341 19.3269 144.451 19.5284 144.501C19.7298 144.55 19.9417 144.537 20.1354 144.462L20.1763 144.444C20.1763 144.444 21.6354 144.912 22.4688 144.315C23.3021 143.717 25.0034 141.057 25.0034 141.057L26.5002 140.856L24.7329 144.337C24.7329 144.337 26.1197 144.815 27.0285 144.022C27.9374 143.23 29.3713 141.013 29.3713 141.013L31.8871 140.337C31.8871 140.337 33.1858 141.076 35.3682 140.598C35.3682 140.598 35.3242 143.516 37.3179 144.393C38.233 144.796 38.167 143.362 38.167 143.362L37.9028 141.132C37.9028 140.94 38.1639 140.356 38.1167 140.167L37.0664 136L34.2865 133.355L26.9499 135.667Z" fill="#FFBF9D"/>
<path d="M26.3368 140.192C26.2325 140.281 26.1222 140.363 26.0066 140.437L25.0632 141.095C24.6481 141.683 24.0978 142.456 23.4154 143.34C23.2424 143.56 23.0632 143.786 22.8713 144.016C22.7739 144.129 22.6764 144.246 22.5569 144.359C22.5034 144.412 22.4342 144.466 22.3713 144.519C22.3014 144.564 22.2277 144.603 22.1512 144.635C21.8359 144.752 21.4977 144.793 21.1638 144.755C20.8217 144.723 20.4848 144.649 20.1606 144.535L20.0726 144.503L20.1166 144.419L20.6543 143.412C21.3147 142.173 21.9437 141 22.5003 139.953V139.934H22.5191L25.8211 137.944L26.7645 137.39C26.8731 137.319 26.9878 137.258 27.1072 137.208C27.0089 137.291 26.9037 137.366 26.7928 137.431L25.8682 138.019L22.5978 140.06L22.6261 140.032L20.7927 143.491C20.6072 143.837 20.4248 144.176 20.255 144.5L20.2109 144.384C20.5155 144.493 20.8324 144.565 21.1543 144.598C21.4633 144.638 21.7773 144.602 22.0694 144.494C22.3326 144.361 22.5593 144.165 22.7298 143.925C22.9217 143.698 23.1009 143.475 23.2739 143.258C23.9625 142.387 24.5317 141.62 24.9563 141.057L25.9374 140.428C26.064 140.339 26.1976 140.26 26.3368 140.192Z" fill="#FF9A6C"/>
<path d="M32.3997 140.198C32.3334 140.231 32.2638 140.256 32.1922 140.274L31.5947 140.453L29.3934 141.082L29.4311 141.054C29.0044 141.802 28.5197 142.516 27.9814 143.189C27.6746 143.588 27.3112 143.939 26.9028 144.233C26.4341 144.527 25.8815 144.659 25.3305 144.607C25.1042 144.586 24.8848 144.519 24.6858 144.409L24.6198 144.371L24.6575 144.302L27.0475 139.758L28.7959 138.453L29.2802 138.107C29.3355 138.064 29.3944 138.026 29.4563 137.994C29.4103 138.047 29.3586 138.094 29.3022 138.135L28.8399 138.51L27.1198 139.856L27.1387 139.834C26.5097 141.066 25.6858 142.664 24.7833 144.396L24.755 144.29C24.9337 144.385 25.1291 144.445 25.3305 144.466C25.8407 144.509 26.3514 144.387 26.7865 144.117C27.1823 143.832 27.536 143.494 27.8368 143.11C28.3725 142.446 28.8591 141.744 29.2928 141.01L29.3085 140.988H29.3305L31.5318 140.415L32.1387 140.268C32.2225 140.234 32.3102 140.21 32.3997 140.198Z" fill="#FF9A6C"/>
<path d="M37.8651 144.409C37.8651 144.409 37.8463 144.425 37.8054 144.441C37.7439 144.469 37.6779 144.486 37.6104 144.491C37.3582 144.514 37.1066 144.441 36.906 144.286C36.6156 144.068 36.3665 143.8 36.1702 143.494C36.0538 143.324 35.9406 143.148 35.8305 142.956C35.7173 142.758 35.6276 142.547 35.5632 142.327C35.3869 141.702 35.2887 141.058 35.2708 140.409L35.2991 140.459C34.95 140.205 34.6702 139.994 34.4657 139.83C34.2613 139.667 34.1513 139.588 34.1701 139.576C34.2902 139.627 34.4041 139.691 34.5098 139.768C34.7205 139.903 35.0161 140.098 35.3746 140.34L35.3997 140.359V140.393C35.4372 141.032 35.5427 141.664 35.7142 142.28C35.7751 142.491 35.8584 142.694 35.9626 142.887C36.0695 143.073 36.1796 143.252 36.2771 143.418C36.4609 143.714 36.6901 143.978 36.9563 144.202C37.1337 144.348 37.3551 144.431 37.5853 144.437C37.7708 144.428 37.8589 144.39 37.8651 144.409Z" fill="#FF9A6C"/>
<path d="M36.6167 135.906C37.0007 136.233 37.3043 136.645 37.5039 137.108C37.7034 137.572 37.7937 138.075 37.7677 138.579C37.6589 138.102 37.5202 137.632 37.3526 137.173C37.1346 136.735 36.8888 136.312 36.6167 135.906Z" fill="#FF9A6C"/>
<path d="M103.212 58.1975C103.623 57.732 103.876 57.1487 103.936 56.5306C103.997 55.9125 103.86 55.2912 103.547 54.7552C103.233 54.2192 102.758 53.7959 102.19 53.5455C101.621 53.2952 100.989 53.2306 100.381 53.361C100.325 52.7534 100.112 52.1707 99.7638 51.6699C99.4151 51.1691 98.9426 50.7673 98.3922 50.5037C97.8419 50.2401 97.2326 50.1237 96.6239 50.1659C96.0151 50.2082 95.4278 50.4076 94.9191 50.7446C94.2056 50.2199 93.337 49.9494 92.4517 49.9762C91.5665 50.003 90.7158 50.3255 90.0354 50.8924C89.4382 50.8184 88.8329 50.9367 88.3075 51.2301C87.7821 51.5235 87.3639 51.9767 87.1136 52.5239C86.8633 53.0712 86.7939 53.6839 86.9156 54.2733C87.0372 54.8626 87.3436 55.3979 87.7901 55.8013L102.281 63.7636C102.989 63.8225 103.694 63.6126 104.255 63.1757C104.816 62.7387 105.191 62.1067 105.308 61.4053C105.424 60.7039 105.272 59.9845 104.881 59.3902C104.491 58.7958 103.892 58.37 103.202 58.1975H103.212Z" fill="#263238"/>
<path d="M89.5763 53.729L90.2052 53.6975C93.2245 53.5471 96.1898 54.5391 98.5108 56.4761C100.832 58.413 102.338 61.1529 102.73 64.1504C103.485 69.9304 104.246 76.3267 104.363 79.443C104.605 85.8959 98.2053 87.2167 98.2053 87.2167L99.1487 94.9369L83.4756 95.2293L80.6957 67.2039C79.768 60.5404 82.8875 54.4522 89.5763 53.729Z" fill="#FFBF9D"/>
<path d="M98.2524 87.2041C95.2576 87.3551 92.2824 86.6435 89.68 85.1538C89.68 85.1538 91.897 89.6947 98.3027 88.7953L98.2524 87.2041Z" fill="#FF9A6C"/>
<path d="M101.086 70.3487C101.1 70.588 101.02 70.8235 100.863 71.0049C100.706 71.1863 100.485 71.2995 100.246 71.3204C100.129 71.3357 100.011 71.3275 99.8973 71.2962C99.7839 71.2649 99.6778 71.2111 99.5855 71.1381C99.4931 71.0651 99.4163 70.9743 99.3597 70.8711C99.303 70.768 99.2676 70.6544 99.2556 70.5373C99.2407 70.2974 99.3202 70.0612 99.4771 69.8791C99.6339 69.697 99.8558 69.5834 100.095 69.5625C100.212 69.5476 100.331 69.5563 100.444 69.5879C100.558 69.6196 100.664 69.6737 100.756 69.7469C100.848 69.8202 100.925 69.9111 100.982 70.0145C101.038 70.1178 101.074 70.2314 101.086 70.3487Z" fill="#263238"/>
<path d="M101.495 67.3737C101.384 67.4995 100.661 67.0184 99.6706 67.0592C98.6801 67.1001 97.9788 67.6442 97.8656 67.5278C97.8121 67.4775 97.9159 67.2542 98.2209 67.0058C98.6355 66.6893 99.137 66.5071 99.6581 66.4838C100.174 66.458 100.684 66.5955 101.117 66.8769C101.435 67.1033 101.548 67.3171 101.495 67.3737Z" fill="#263238"/>
<path d="M92.6927 71.0122C92.7067 71.2524 92.6265 71.4886 92.4691 71.6707C92.3118 71.8527 92.0896 71.9662 91.8499 71.9871C91.7333 72.0015 91.615 71.9927 91.5019 71.961C91.3888 71.9294 91.2831 71.8755 91.1909 71.8027C91.0987 71.7298 91.022 71.6394 90.965 71.5366C90.9081 71.4339 90.8722 71.3208 90.8593 71.204C90.8453 70.9638 90.9255 70.7276 91.0829 70.5456C91.2403 70.3636 91.4624 70.2501 91.7021 70.2292C91.8188 70.2138 91.9375 70.2221 92.0509 70.2534C92.1644 70.2847 92.2705 70.3384 92.3628 70.4114C92.4552 70.4844 92.532 70.5752 92.5886 70.6784C92.6453 70.7816 92.6807 70.8951 92.6927 71.0122Z" fill="#263238"/>
<path d="M91.765 68.0404C91.655 68.1662 90.9317 67.6851 89.9411 67.726C88.9505 67.7669 88.2493 68.3077 88.1361 68.1914C88.0795 68.1411 88.1864 67.9178 88.4914 67.6725C88.9047 67.3536 89.4069 67.1712 89.9285 67.1505C90.4445 67.1216 90.956 67.2594 91.3877 67.5436C91.7021 67.7731 91.8342 67.9838 91.765 68.0404Z" fill="#263238"/>
<path d="M95.724 75.2104C95.724 75.1538 96.3278 75.0186 97.3184 74.8393C97.57 74.8016 97.809 74.7387 97.8436 74.5657C97.8517 74.303 97.7792 74.044 97.636 73.8236C97.3687 73.2229 97.0857 72.594 96.7932 71.9368C95.6171 69.2449 94.7523 67.0279 94.8624 66.9807C94.9725 66.9336 96.0102 69.0783 97.1863 71.7701C97.4693 72.4336 97.7429 73.0657 98.0008 73.6569C98.1731 73.9553 98.2365 74.3044 98.18 74.6443C98.1483 74.7353 98.0961 74.8178 98.0273 74.8855C97.9586 74.9531 97.8753 75.004 97.7838 75.0343C97.6449 75.0779 97.5014 75.1054 97.3561 75.116C96.353 75.2324 95.7303 75.267 95.724 75.2104Z" fill="#263238"/>
<path d="M92.4348 64.1882C92.3153 64.446 91.4537 64.2133 90.4065 64.2322C89.3593 64.2511 88.4882 64.4681 88.3782 64.2102C88.331 64.0907 88.5071 63.8548 88.8719 63.6347C89.3459 63.3671 89.881 63.2262 90.4253 63.2259C90.9633 63.2181 91.4938 63.3527 91.9631 63.6158C92.3216 63.8328 92.4851 64.0655 92.4348 64.1882Z" fill="#263238"/>
<path d="M101.337 63.2856C101.142 63.5214 100.312 63.3264 99.3279 63.3642C98.3436 63.4019 97.5197 63.6063 97.3153 63.3642C97.2273 63.2541 97.3468 63.0246 97.699 62.7919C98.1883 62.5012 98.7462 62.346 99.3154 62.3422C99.8811 62.3183 100.443 62.4475 100.941 62.7164C101.3 62.9459 101.425 63.1724 101.337 63.2856Z" fill="#263238"/>
<path d="M101.957 61.2227C101.957 61.2227 100.054 57.2698 98.0605 56.4239C95.6486 55.4019 94.7618 58.0402 92.485 57.5214C90.2083 57.0025 87.9032 56.0245 85.6925 57.8736C83.2742 59.8988 84.5164 61.1755 84.5038 64.0434C84.4504 75.6788 82.4975 79.0562 81.6233 73.6253C81.5258 73.0278 79.8434 72.6347 79.4692 70.119C78.988 66.8548 78.6641 62.8862 79.2805 60.5183C79.7994 58.5245 80.8528 57.1157 82.7837 55.5214C85.8309 53.0056 90.1768 52.7383 93.1454 52.8893C96.114 53.0402 101.973 56.1534 101.957 61.2227Z" fill="#263238"/>
<path d="M82.0259 73.4272C82.0058 73.191 81.9381 72.9614 81.8268 72.7521C81.7155 72.5429 81.563 72.3583 81.3784 72.2096C81.1939 72.0609 80.9811 71.9512 80.753 71.8869C80.5249 71.8227 80.2861 71.8054 80.0511 71.836C78.8561 72.0089 77.551 72.7605 77.7523 75.2385C78.1139 79.6411 82.4693 78.3832 82.4536 78.2448C82.4379 78.1065 82.1926 75.27 82.0259 73.4272Z" fill="#FFBF9D"/>
<path d="M81.3624 76.6662C81.3404 76.6662 81.2901 76.7291 81.1643 76.7983C80.988 76.8907 80.7828 76.9109 80.5919 76.8549C80.1139 76.7228 79.6485 76.0184 79.5762 75.226C79.5343 74.8491 79.5773 74.4677 79.702 74.1096C79.7326 73.9698 79.7966 73.8396 79.8886 73.73C79.9807 73.6205 80.0979 73.5349 80.2303 73.4807C80.3163 73.4501 80.4103 73.4507 80.4959 73.4823C80.5815 73.5139 80.6533 73.5745 80.6989 73.6536C80.768 73.7731 80.746 73.8643 80.7712 73.8675C80.7963 73.8706 80.8592 73.7857 80.8089 73.6096C80.7757 73.502 80.707 73.4089 80.614 73.3454C80.4845 73.265 80.329 73.2379 80.18 73.27C80.0021 73.3206 79.8403 73.416 79.7098 73.547C79.5793 73.6781 79.4846 73.8404 79.4347 74.0184C79.2778 74.4179 79.2217 74.8499 79.2712 75.2763C79.3718 76.1599 79.9001 76.9524 80.5448 77.0845C80.6657 77.1082 80.7904 77.105 80.91 77.0751C81.0295 77.0452 81.141 76.9893 81.2366 76.9115C81.3624 76.7731 81.3781 76.6757 81.3624 76.6662Z" fill="#FF9A6C"/>
<path d="M78.6673 63.7856C82.3277 62.0278 85.4787 61.0938 89.5102 60.0812C93.5417 59.0686 98.743 58.2447 101.224 58.5718C101.8 59.5844 102.178 60.6976 102.337 61.8517C102.337 61.8517 85.4535 63.1095 78.9095 67.3391L78.6673 63.7856Z" fill="#455A64"/>
<path d="M80.9189 63.4178C80.9189 63.4178 80.9189 64.531 82.4284 65.1002C82.7869 65.2551 83.1896 65.2742 83.5612 65.1538C83.9327 65.0334 84.2477 64.7819 84.4473 64.4461C84.6014 64.1757 85.2397 63.3612 85.2397 63.3612C85.2397 63.3612 86.2272 63.5562 86.5982 63.5782C87.8876 63.6505 89.3121 61.8926 89.3027 60.7668C89.6517 61.2385 90.2932 61.1882 90.8561 61.009C91.2986 60.8371 91.6721 60.5244 91.919 60.119C92.7744 58.9712 92.4756 57.9995 92.4756 57.9995C93.1123 57.9336 93.7282 57.7354 94.2838 57.4177C94.7115 57.0404 95.504 56.0592 95.5637 55.4806C95.6235 54.902 95.2933 56.7385 95.7681 56.402C96.243 56.0655 96.8059 56.229 97.3405 56.2794C97.8751 56.3297 98.5606 56.1724 98.6707 55.6504C98.6864 55.5098 98.6736 55.3674 98.6331 55.2318C98.5926 55.0961 98.5251 54.9701 98.4348 54.8611C98.0491 54.347 97.5016 53.9775 96.8805 53.8121C96.2593 53.6466 95.6006 53.6949 95.0103 53.9492C94.7567 53.226 94.2944 52.5944 93.6818 52.134C93.0692 51.6736 92.3338 51.4053 91.5687 51.3629C90.8036 51.3205 90.0431 51.5059 89.3834 51.8957C88.7236 52.2855 88.1943 52.8623 87.8624 53.5529C87.3734 53.1516 86.7947 52.8743 86.1756 52.7444C85.5565 52.6146 84.9152 52.6361 84.3062 52.8071C83.6971 52.9781 83.1384 53.2936 82.6773 53.7267C82.2163 54.1599 81.8666 54.6979 81.6579 55.2951C81.1105 55.1792 80.5411 55.2271 80.0207 55.4327C79.5004 55.6384 79.0521 55.9927 78.7318 56.4515C78.4115 56.9103 78.2334 57.4533 78.2197 58.0127C78.206 58.572 78.3573 59.1231 78.6548 59.597C77.8843 60.0876 76.9975 60.9492 77.2743 61.8203C78.095 64.4178 80.051 63.7071 80.9189 63.4241" fill="#263238"/>
<path d="M95.4033 55.2227C95.4069 55.2498 95.4069 55.2773 95.4033 55.3044C95.4014 55.3833 95.3951 55.4621 95.3844 55.5403C95.3414 55.842 95.2479 56.1344 95.1077 56.4051C94.8868 56.8345 94.5705 57.2078 94.1832 57.4963C93.6727 57.8883 93.0469 58.1006 92.4033 58.1L92.4725 57.9994C92.6251 58.3949 92.6149 58.8347 92.4442 59.2227C92.2663 59.6281 92.03 60.0053 91.7429 60.3422C91.6072 60.5364 91.45 60.7147 91.2743 60.8736C91.0733 61.0259 90.8378 61.1263 90.5888 61.1661C90.3308 61.2163 90.0644 61.2028 89.8129 61.1266C89.5613 61.0504 89.3322 60.9139 89.1454 60.729L89.3089 60.6724C89.2706 61.1338 89.1361 61.582 88.9141 61.9882C88.692 62.3944 88.3873 62.7496 88.0196 63.0309C87.6165 63.3627 87.1166 63.5547 86.595 63.5781C86.1049 63.5778 85.6181 63.4959 85.1548 63.3359L85.268 63.2762C85.0665 63.822 84.7313 64.3086 84.2931 64.6913C84.0928 64.8807 83.8529 65.0232 83.5908 65.1086C83.3287 65.194 83.0508 65.2201 82.7774 65.185C82.3096 65.1078 81.8746 64.8955 81.526 64.5742C81.1773 64.253 80.9302 63.8367 80.8151 63.3768L80.9158 63.4177C80.4664 63.6939 79.935 63.8051 79.4126 63.7322C79.025 63.6802 78.6553 63.5368 78.334 63.3139C78.132 63.1739 77.9563 62.9993 77.8151 62.7982C77.7665 62.7289 77.7244 62.6552 77.6893 62.5781C77.8762 62.8412 78.1083 63.0691 78.3749 63.251C78.691 63.456 79.0507 63.5841 79.4252 63.6252C79.92 63.6865 80.4208 63.5754 80.8434 63.3108L80.9252 63.2605L80.9472 63.3517C81.0608 63.7805 81.2967 64.1669 81.6262 64.464C81.9556 64.761 82.3643 64.9558 82.8026 65.0246C83.0519 65.0552 83.3049 65.0292 83.5428 64.9486C83.7807 64.8681 83.9974 64.735 84.1768 64.5592C84.5892 64.1963 84.9038 63.7357 85.0919 63.2196L85.1233 63.1378L85.2082 63.163C85.6523 63.3162 86.119 63.3938 86.5888 63.3925C87.07 63.3698 87.5311 63.1922 87.9032 62.8862C88.2492 62.6204 88.5361 62.2854 88.7456 61.9026C88.9552 61.5199 89.0827 61.0977 89.1202 60.663L89.1391 60.4523L89.2838 60.6095C89.4496 60.7722 89.6523 60.8923 89.8746 60.9596C90.097 61.027 90.3323 61.0396 90.5605 60.9963C90.7805 60.96 90.9886 60.8716 91.1674 60.7384C91.3316 60.5891 91.4792 60.4226 91.6077 60.2416C91.8865 59.9189 92.1174 59.5578 92.2932 59.1692C92.3729 58.9967 92.4178 58.8101 92.4254 58.6202C92.4329 58.4302 92.403 58.2407 92.3372 58.0623L92.2932 57.9585H92.4064C93.0202 57.962 93.6189 57.7679 94.114 57.4051C94.4936 57.1323 94.8082 56.779 95.0354 56.3705C95.2231 56.0118 95.3475 55.6236 95.4033 55.2227Z" fill="#455A64"/>
<path d="M99.5049 57.1925L94.4797 57.8595C94.0941 57.9107 93.8229 58.2648 93.8741 58.6504L94.2833 61.7335C94.3345 62.1191 94.6886 62.3903 95.0742 62.3391L100.099 61.6722C100.485 61.621 100.756 61.2669 100.705 60.8812L100.296 57.7982C100.245 57.4125 99.8905 57.1414 99.5049 57.1925Z" fill="#455A64"/>
<path d="M100.098 61.6787C100.098 61.6787 100.171 61.6787 100.293 61.6032C100.381 61.5592 100.458 61.4972 100.52 61.4213C100.581 61.3455 100.626 61.2574 100.652 61.1629C100.685 61.0255 100.685 60.8822 100.652 60.7447C100.627 60.5843 100.602 60.4302 100.576 60.229L100.397 58.9711C100.366 58.7352 100.331 58.4931 100.296 58.2384L100.24 57.8484C100.23 57.7239 100.184 57.6049 100.108 57.5057C100.025 57.4035 99.9144 57.3278 99.7892 57.2881C99.6639 57.2484 99.5298 57.2464 99.4034 57.2824L98.504 57.405L94.4945 57.9428C94.3384 57.9654 94.1965 58.0458 94.0969 58.1681C93.9973 58.2904 93.9473 58.4457 93.9568 58.6032C94.0008 58.9491 94.0449 59.2887 94.0889 59.622C94.1738 60.2919 94.2587 60.9397 94.3405 61.556C94.3442 61.6993 94.3797 61.84 94.4442 61.968C94.5191 62.085 94.6292 62.1753 94.7587 62.2258C94.8833 62.2763 95.0199 62.2894 95.1518 62.2636L95.57 62.2101L97.0952 62.0183L99.2965 61.751L99.9002 61.685C99.9702 61.6766 100.041 61.6766 100.111 61.685C100.043 61.7038 99.9734 61.7185 99.9034 61.729L99.3059 61.8233L97.1046 62.1378L95.5795 62.3516L95.1644 62.4082C95.0084 62.4382 94.8472 62.4241 94.6989 62.3673C94.5451 62.3044 94.4152 62.1943 94.3279 62.0529C94.2513 61.9068 94.2073 61.7459 94.1989 61.5812C94.1172 60.9648 94.0302 60.3212 93.9379 59.6503C93.8939 59.3107 93.8499 58.9679 93.8027 58.622C93.7896 58.4227 93.8523 58.2257 93.9783 58.0706C94.1042 57.9155 94.2841 57.8137 94.482 57.7855L98.4789 57.2541L99.3782 57.1377C99.5318 57.1066 99.6906 57.1142 99.8405 57.1598C99.9871 57.2084 100.115 57.3006 100.208 57.4239C100.299 57.5425 100.353 57.6843 100.366 57.8327L100.413 58.2227C100.447 58.4774 100.476 58.7195 100.507 58.9554C100.564 59.4176 100.614 59.839 100.661 60.2132C100.683 60.3988 100.702 60.5717 100.721 60.7321C100.757 60.8788 100.757 61.032 100.721 61.1787C100.691 61.2794 100.639 61.3723 100.569 61.4506C100.499 61.529 100.412 61.5907 100.315 61.6315C100.247 61.6624 100.173 61.6785 100.098 61.6787Z" fill="#263238"/>
<g opacity="0.3">
<path d="M94.6331 57.8622L95.7772 57.7103L96.3725 62.1962L95.2284 62.348C95.016 62.3762 94.801 62.3189 94.6308 62.1886C94.4606 62.0583 94.3492 61.8657 94.321 61.6532L93.9387 58.7728C93.9243 58.6674 93.9308 58.5601 93.9579 58.4573C93.9851 58.3544 94.0322 58.2579 94.0968 58.1733C94.1613 58.0887 94.2419 58.0176 94.3339 57.9642C94.4259 57.9109 94.5276 57.8762 94.6331 57.8622Z" fill="black"/>
</g>
<path d="M99.9035 59.6787C99.9035 60.0127 99.8044 60.3392 99.6189 60.6169C99.4333 60.8946 99.1696 61.111 98.861 61.2388C98.5524 61.3667 98.2129 61.4001 97.8853 61.3349C97.5577 61.2698 97.2568 61.1089 97.0207 60.8728C96.7845 60.6366 96.6237 60.3357 96.5585 60.0081C96.4934 59.6806 96.5268 59.341 96.6546 59.0325C96.7824 58.7239 96.9989 58.4601 97.2766 58.2746C97.5543 58.089 97.8808 57.99 98.2148 57.99C98.4367 57.9896 98.6564 58.033 98.8615 58.1177C99.0666 58.2024 99.2529 58.3268 99.4098 58.4837C99.5667 58.6406 99.691 58.8269 99.7758 59.032C99.8605 59.237 99.9039 59.4568 99.9035 59.6787Z" fill="white"/>
<path d="M99.9035 59.6786C99.8877 59.6786 99.9035 59.5277 99.8186 59.273C99.7137 58.9147 99.4924 58.6015 99.1896 58.383C98.9714 58.2222 98.7168 58.118 98.4484 58.0796C98.1801 58.0411 97.9064 58.0698 97.6519 58.1629C97.4337 58.2436 97.2354 58.3703 97.0706 58.5345C96.9058 58.6987 96.7783 58.8965 96.6968 59.1143C96.6153 59.3322 96.5817 59.5651 96.5982 59.7972C96.6148 60.0292 96.6811 60.2549 96.7928 60.459C96.9044 60.6631 97.0587 60.8408 97.2452 60.9799C97.4316 61.119 97.6459 61.2163 97.8733 61.2652C98.1007 61.3141 98.336 61.3134 98.5632 61.2632C98.7903 61.213 99.004 61.1144 99.1896 60.9742C99.4924 60.7558 99.7137 60.4426 99.8186 60.0843C99.8909 59.8296 99.8877 59.6786 99.9035 59.6786C99.9192 59.6786 99.9035 59.7164 99.9035 59.7887C99.9045 59.8945 99.8928 60.0001 99.8689 60.1032C99.7842 60.4871 99.5685 60.8296 99.2588 61.0717C99.0277 61.2528 98.7545 61.3723 98.4646 61.419C98.1748 61.4658 97.8779 61.4383 97.6016 61.339C97.2707 61.2252 96.983 61.0122 96.7777 60.729C96.553 60.426 96.4317 60.0589 96.4317 59.6818C96.4317 59.3046 96.553 58.9375 96.7777 58.6346C96.9839 58.3522 97.2713 58.1394 97.6016 58.0245C97.878 57.9262 98.1748 57.8991 98.4644 57.9459C98.7541 57.9926 99.0273 58.1116 99.2588 58.2918C99.5685 58.534 99.7842 58.8765 99.8689 59.2604C99.8928 59.3635 99.9044 59.469 99.9035 59.5749C99.9129 59.6409 99.9098 59.6786 99.9035 59.6786Z" fill="#263238"/>
<path d="M95.5293 77.5278C95.1359 77.3175 94.7111 77.172 94.2714 77.097C94.0587 77.0445 93.8361 77.0484 93.6254 77.1083C93.4147 77.1683 93.2234 77.2822 93.0703 77.4388C92.9171 77.5954 92.8076 77.7893 92.7524 78.0013C92.6972 78.2132 92.6983 78.4359 92.7556 78.6473C92.7937 78.9654 92.9121 79.2686 93.0997 79.5283C93.2873 79.788 93.5379 79.9956 93.828 80.1316C94.1214 80.2601 94.4485 80.29 94.7603 80.2169C95.0722 80.1438 95.3519 79.9715 95.5576 79.726C95.7742 79.3925 95.884 79.0008 95.872 78.6033C95.8846 78.0467 95.6959 77.575 95.5293 77.5278Z" fill="#FF9A6C"/>
<path d="M95.7209 79.5531C95.7366 79.5531 95.6706 79.66 95.5228 79.8078C95.3132 80.0205 95.0658 80.1922 94.7932 80.3141C94.5855 80.4009 94.3564 80.4228 94.136 80.377C93.8958 80.3241 93.6682 80.2248 93.4662 80.0846C93.2298 79.9353 93.0351 79.7287 92.9001 79.4839C92.7776 79.2218 92.6989 78.9413 92.6674 78.6537C92.6112 78.3673 92.6358 78.0708 92.7386 77.7975C92.8413 77.5243 93.0181 77.285 93.2492 77.1066C93.47 76.9697 93.7296 76.9089 93.9882 76.9336C94.1978 76.9524 94.404 76.9989 94.6014 77.072C94.8803 77.1535 95.1517 77.2587 95.4127 77.3864C95.5888 77.5059 95.658 77.6003 95.6486 77.616C95.6391 77.6317 95.5354 77.5751 95.353 77.4996C95.1706 77.4242 94.8907 77.3833 94.5291 77.2795C94.3494 77.2111 94.1573 77.1817 93.9654 77.193C93.7735 77.2044 93.5862 77.2564 93.4158 77.3455C93.2398 77.4987 93.1077 77.6959 93.0331 77.917C92.9585 78.138 92.9441 78.3749 92.9913 78.6034C93.0195 78.853 93.0852 79.0968 93.1863 79.3267C93.2924 79.528 93.447 79.6998 93.636 79.8267C93.7803 79.9537 93.9532 80.0437 94.14 80.0892C94.3268 80.1347 94.5218 80.1341 94.7083 80.0877C94.9692 79.9909 95.2165 79.8609 95.4442 79.7009C95.6077 79.5971 95.7083 79.5342 95.7209 79.5531Z" fill="#263238"/>
<g opacity="0.6">
<path d="M173.822 87.6868C190.184 86.6488 202.574 72.0233 201.495 55.0199C200.416 38.0165 186.278 25.0739 169.916 26.112C153.554 27.15 141.164 41.7755 142.243 58.7789C143.321 75.7823 157.46 88.7248 173.822 87.6868Z" fill="#FCDBD6"/>
</g>
<g opacity="0.3">
<path d="M142.243 58.7541C141.426 45.8861 148.325 34.3797 158.822 29.0935L97.6612 58.1629C96.1361 58.6912 96.026 60.6189 98.0606 61.4397L160.423 85.2764C150.366 80.8392 143.011 70.8297 142.243 58.7541Z" fill="#FCDBD6"/>
</g>
<path d="M144.979 36.6881C145.001 36.7289 136.489 40.8327 125.96 45.8548C115.432 50.8769 106.885 54.9178 106.866 54.8769C106.847 54.836 115.356 50.7322 125.888 45.707C136.42 40.6818 144.951 36.6472 144.979 36.6881Z" fill="white"/>
<path d="M199.417 49.4553C199.434 49.4956 199.445 49.5379 199.452 49.5811C199.47 49.6755 199.499 49.8012 199.533 49.9616C199.568 50.122 199.609 50.339 199.659 50.5906C199.709 50.8421 199.766 51.1189 199.807 51.4396C200.096 53.2528 200.223 55.0882 200.184 56.9239C200.161 58.1912 200.067 59.4563 199.904 60.7133C199.851 61.0498 199.797 61.3925 199.741 61.7416L199.656 62.2699C199.621 62.446 199.584 62.6221 199.546 62.8014C199.474 63.1567 199.395 63.5183 199.319 63.8863L199.03 64.9869C198.16 68.2082 196.794 71.2743 194.98 74.075C194.027 75.5195 192.962 76.8864 191.794 78.1631C190.694 79.336 189.514 80.4319 188.263 81.443C186.126 83.1435 183.755 84.5287 181.225 85.5563C179.522 86.2478 177.733 86.7069 175.907 86.9211L175.451 86.9777C175.307 86.9934 175.171 86.9934 175.049 86.9997L174.42 87.028H174.03H173.91C173.954 87.0181 173.998 87.0128 174.042 87.0123L174.429 86.9808L175.058 86.9399C175.181 86.9399 175.316 86.9399 175.458 86.9085L175.91 86.8424C177.727 86.6078 179.504 86.1352 181.197 85.4368C183.704 84.3979 186.052 83.0099 188.172 81.3141C189.415 80.3059 190.588 79.2132 191.681 78.0436C192.84 76.774 193.898 75.4167 194.848 73.9838C196.654 71.1928 198.02 68.1402 198.898 64.9334L199.187 63.8391C199.266 63.4743 199.341 63.1158 199.42 62.7605C199.455 62.5812 199.492 62.4051 199.53 62.2322L199.615 61.707C199.672 61.3611 199.728 61.0183 199.782 60.6818C199.95 59.4304 200.05 58.1706 200.08 56.9082C200.13 55.0797 200.025 53.2504 199.766 51.4396C199.731 51.1251 199.681 50.8327 199.634 50.5874L199.521 49.9585C199.496 49.7981 199.474 49.6692 199.458 49.5748C199.442 49.4805 199.417 49.4553 199.417 49.4553Z" fill="white"/>
<path d="M198.411 46.8767C198.22 46.1761 197.991 45.4865 197.725 44.8106C197.405 44.1638 197.051 43.534 196.665 42.9238C196.832 43.0619 196.977 43.2253 197.093 43.4081C197.712 44.2496 198.141 45.2152 198.351 46.2383C198.406 46.4463 198.426 46.6621 198.411 46.8767Z" fill="white"/>
<path d="M165.882 85.3016C165.866 85.3425 158.916 82.7607 150.363 79.5374C141.809 76.3141 134.885 73.66 134.916 73.6065C134.948 73.5531 141.882 76.1443 150.438 79.3707C158.995 82.5972 165.898 85.2576 165.882 85.3016Z" fill="white"/>
<path d="M109.13 93.8613C103.086 96.2073 106.114 95.7167 106.108 105.918C106.108 116.443 108.517 121.704 108.517 121.704L124.976 113.305L120.259 103.626C117.46 97.6287 116.155 96.0909 109.13 93.8613Z" fill="#FCDBD6"/>
<path d="M78.0353 94.1318L85.1485 91.3457L98.2461 90.6035L104.403 92.9432L95.9663 97.6287L88.6926 97.3614L78.0353 94.1318Z" fill="#FFBF9D"/>
<path d="M111.58 116.814L109.142 93.8582C109.142 93.8582 102.727 91.657 99.4536 90.6003C99.4536 90.6003 95.9945 94.1916 89.4598 94.0941C83.0541 93.9997 81.7176 92.5532 81.7176 92.5532L72.7647 95.9872C72.7647 95.9872 66.9911 98.5878 65.3024 101.091C62.969 104.528 56.8118 113.088 56.8118 113.088L68.3119 123.465L71.1767 120.148L71.7427 133.739C83.6925 134.283 99.2209 134.604 111.96 133.689L111.705 124.406L111.58 116.814Z" fill="#FCDBD6"/>
<g opacity="0.3">
<path d="M96.0292 109.975L96.5261 119.736L102.963 122.613L107.724 118.557V109.525L96.0292 109.975Z" fill="black"/>
</g>
<g opacity="0.3">
<path d="M66.7805 106.512C66.6192 110.75 68.1331 114.88 70.9943 118.009C70.1358 114.028 67.9346 110.324 66.7805 106.512Z" fill="black"/>
</g>
<path d="M112.498 102.484C112.505 102.536 112.505 102.589 112.498 102.641C112.498 102.761 112.498 102.912 112.498 103.091C112.479 103.506 112.454 104.063 112.419 104.739C112.347 106.132 112.231 108.053 112.083 110.176C111.79 114.418 111.473 117.871 111.309 117.836C111.36 117.642 111.388 117.443 111.394 117.242C111.432 116.855 111.479 116.299 111.532 115.601C111.633 114.185 111.771 112.277 111.922 110.167C112.073 108.057 112.205 106.148 112.306 104.733C112.36 104.056 112.404 103.5 112.435 103.085C112.451 102.909 112.466 102.77 112.479 102.638C112.477 102.586 112.483 102.534 112.498 102.484Z" fill="#263238"/>
<path d="M66.2647 105.626C66.3057 105.697 66.3404 105.772 66.3685 105.849L66.6389 106.497C66.8748 107.075 67.2018 107.89 67.6044 108.887L70.749 116.802C70.8623 117.094 70.9755 117.387 71.0824 117.657V117.673C71.2145 120.774 71.3308 123.541 71.4189 125.557C71.4534 126.544 71.4818 127.343 71.5006 127.915C71.5006 128.183 71.5006 128.393 71.5163 128.544C71.5232 128.617 71.5232 128.691 71.5163 128.764C71.4993 128.692 71.4909 128.618 71.4912 128.544C71.4912 128.384 71.4629 128.173 71.4472 127.915C71.4126 127.343 71.3685 126.544 71.3119 125.56C71.2144 123.544 71.0792 120.777 70.9251 117.676V117.701C70.8182 117.428 70.705 117.138 70.5887 116.846L67.5037 108.915L66.5855 106.503L66.3465 105.846C66.3111 105.776 66.2837 105.702 66.2647 105.626Z" fill="#263238"/>
<path d="M114.79 133.708L108.771 133.874V115.167C108.772 114.369 109.09 113.604 109.654 113.04C110.218 112.475 110.983 112.158 111.781 112.157C112.579 112.158 113.344 112.475 113.908 113.04C114.472 113.604 114.79 114.369 114.79 115.167V133.708Z" fill="#455A64"/>
<path d="M82.6234 134.126L76.2492 133.959L76.6076 115.607C76.6072 115.212 76.6848 114.82 76.8359 114.455C76.987 114.089 77.2086 113.757 77.4882 113.478C77.7677 113.198 78.0996 112.977 78.465 112.826C78.8303 112.675 79.2218 112.597 79.6171 112.597C80.0122 112.597 80.4034 112.675 80.7683 112.827C81.1333 112.978 81.4648 113.2 81.744 113.479C82.0232 113.759 82.2446 114.09 82.3955 114.455C82.5464 114.821 82.6238 115.212 82.6234 115.607V134.126Z" fill="#455A64"/>
<path d="M110.822 126.635H81.3277V131.003H110.822V126.635Z" fill="#455A64"/>
<path d="M82.6423 133.984C82.5983 133.984 82.5606 129.934 82.5606 124.94C82.5606 119.947 82.5983 115.893 82.6423 115.893C82.6864 115.893 82.7241 119.943 82.7241 124.94C82.7241 129.937 82.6895 133.984 82.6423 133.984Z" fill="#263238"/>
<path d="M108.778 133.56C108.734 133.56 108.696 130.038 108.696 125.698C108.696 121.358 108.734 117.836 108.778 117.836C108.822 117.836 108.859 121.355 108.859 125.698C108.859 130.041 108.815 133.56 108.778 133.56Z" fill="#263238"/>
<path d="M162.055 58.3675L159.766 58.3298L159.715 61.2795L155.467 61.204L155.517 58.2543L147.372 58.1159L147.423 55.2857L154.498 45.7856L159.011 45.8643L152.583 54.7386L155.709 54.792L155.756 52.1725L159.873 52.2448L159.825 54.8643L162.115 54.9021L162.055 58.3675Z" fill="white"/>
<path d="M163.017 53.6284C163.105 48.5434 166.017 45.666 169.958 45.7321C173.898 45.7981 176.687 48.7761 176.599 53.8611C176.511 58.946 173.599 61.8265 169.681 61.7574C165.763 61.6882 162.929 58.7133 163.017 53.6284ZM172.219 53.7856C172.275 50.5497 171.275 49.3233 169.895 49.2981C168.514 49.273 167.454 50.468 167.398 53.7007C167.341 56.9334 168.341 58.1661 169.744 58.1882C171.146 58.2102 172.162 57.0215 172.219 53.795V53.7856Z" fill="white"/>
<path d="M192.54 58.8927L190.25 58.8549L190.2 61.8015L185.951 61.7292L186.002 58.7795L177.857 58.6411L177.907 55.8109L184.983 46.3108L189.495 46.3863L183.068 55.2731L186.194 55.3266L186.241 52.7071L190.357 52.7794L190.31 55.3989L192.599 55.4367L192.54 58.8927Z" fill="white"/>
<path d="M163.847 68.6441L163.825 69.7856L159.63 69.7165L159.722 64.49L163.81 64.5592L163.791 65.7007L161.156 65.6567V66.5372L163.476 66.5781L163.457 67.6818L161.137 67.641V68.5844L163.847 68.6441Z" fill="white"/>
<path d="M166.942 68.4524H166.137L166.112 69.8329L164.634 69.8078L164.722 64.5813L167.112 64.6222C168.536 64.6473 169.42 65.4021 169.401 66.597C169.408 66.9432 169.312 67.2837 169.124 67.5746C168.937 67.8655 168.666 68.0935 168.347 68.2291L169.448 69.8895L167.876 69.8644L166.942 68.4524ZM167.001 65.7794H166.181L166.156 67.3077H166.976C167.59 67.3077 167.898 67.0404 167.92 66.5624C167.942 66.0845 167.621 65.792 166.992 65.7794H167.001Z" fill="white"/>
<path d="M172.467 68.5467H171.659L171.637 69.9335L170.159 69.9083L170.247 64.6819L172.637 64.7259C174.061 64.7479 174.945 65.5026 174.926 66.6976C174.934 67.0439 174.838 67.3845 174.65 67.6755C174.462 67.9665 174.192 68.1944 173.873 68.3297L174.973 69.9933L173.401 69.965L172.467 68.5467ZM172.527 65.8737H171.706L171.681 67.4052H172.502C173.112 67.4052 173.423 67.1379 173.445 66.6599C173.467 66.1819 173.14 65.8863 172.527 65.8737Z" fill="white"/>
<path d="M175.461 67.3738C175.486 65.8014 176.737 64.6788 178.41 64.7071C180.083 64.7354 181.294 65.9052 181.269 67.4744C181.244 69.0436 179.989 70.1694 178.316 70.1411C176.643 70.1128 175.432 68.943 175.461 67.3738ZM179.775 67.4492C179.765 67.1728 179.673 66.9055 179.513 66.6804C179.352 66.4553 179.129 66.2823 178.871 66.1827C178.613 66.0831 178.331 66.0613 178.061 66.12C177.79 66.1788 177.543 66.3154 177.35 66.5131C177.156 66.7108 177.025 66.9609 176.972 67.2324C176.919 67.5039 176.947 67.785 177.052 68.0408C177.157 68.2967 177.335 68.5161 177.564 68.672C177.792 68.8278 178.062 68.9133 178.338 68.9178C178.531 68.9228 178.723 68.8879 178.901 68.8155C179.08 68.743 179.242 68.6345 179.377 68.4967C179.512 68.3589 179.617 68.1947 179.685 68.0145C179.754 67.8343 179.784 67.6418 179.775 67.4492Z" fill="white"/>
<path d="M184.307 68.751H183.502L183.477 70.1378L181.999 70.1127L182.09 64.8862L184.48 64.9271C185.904 64.9523 186.788 65.707 186.766 66.902C186.773 67.2477 186.677 67.5877 186.49 67.8785C186.303 68.1693 186.033 68.3976 185.716 68.5341L186.816 70.1944L185.244 70.1693L184.307 68.751ZM184.37 66.0781H183.549L183.521 67.6064L184.341 67.6221C184.97 67.6221 185.266 67.3548 185.285 66.8768C185.304 66.3988 184.98 66.0906 184.37 66.0781Z" fill="white"/>
</svg>
