<svg width="313" height="135" viewBox="0 0 313 135" fill="none" xmlns="http://www.w3.org/2000/svg">
<path d="M303.341 51.8209C303.341 51.8209 303.341 49.4781 300.061 46.231C296.781 42.9839 294.701 41.1003 294.701 41.1003C294.701 41.1003 293.07 46.4606 296.106 49.7264C298.335 52.0201 300.752 54.1235 303.331 56.0144L303.341 51.8209Z" fill="#FCDBD6"/>
<path d="M298.608 66.3741C298.608 66.3741 298.608 64.0313 295.328 60.7842C292.048 57.5372 289.977 55.6536 289.977 55.6536C289.977 55.6536 288.342 61.0138 291.383 64.2797C293.612 66.5734 296.029 68.6767 298.608 70.5677V66.3741Z" fill="#FCDBD6"/>
<path d="M303.134 55.7894C303.134 55.7894 303.383 53.4747 306.972 50.5744C310.561 47.674 312.843 46.0435 312.843 46.0435C312.843 46.0435 313.897 51.5443 310.542 54.4774C308.084 56.5234 305.459 58.3602 302.694 59.9689L303.134 55.7894Z" fill="#FCDBD6"/>
<path d="M297.418 72.9762C297.418 72.9762 297.887 70.699 301.78 68.1922C305.674 65.6855 308.092 64.3032 308.092 64.3032C308.092 64.3032 308.56 69.8884 304.92 72.442C302.26 74.2188 299.456 75.7704 296.537 77.0807L297.418 72.9762Z" fill="#FCDBD6"/>
<path d="M298.491 91.7183C298.491 91.7183 298.491 89.3756 301.771 86.1238C305.051 82.872 307.127 80.9978 307.127 80.9978C307.127 80.9978 308.762 86.3581 305.721 89.6192C303.493 91.9153 301.076 94.0202 298.496 95.9119L298.491 91.7183Z" fill="#FCDBD6"/>
<path d="M298.44 96.2915C298.44 96.2915 298.768 93.9862 296.003 90.294C293.239 86.6018 291.425 84.4558 291.425 84.4558C291.425 84.4558 289.05 89.5303 291.585 93.1897C293.464 95.7777 295.556 98.2039 297.84 100.443L298.44 96.2915Z" fill="#FCDBD6"/>
<path d="M295.221 109.847C295.221 109.847 295.221 107.504 298.501 104.257C301.78 101.01 303.861 99.1262 303.861 99.1262C303.861 99.1262 305.491 104.486 302.455 107.752C300.226 110.047 297.809 112.152 295.23 114.045L295.221 109.847Z" fill="#FCDBD6"/>
<path d="M297.399 122.137C297.399 122.137 296.809 119.883 299.138 115.9C301.466 111.918 303.027 109.584 303.027 109.584C303.027 109.584 305.96 114.354 303.856 118.281C302.282 121.064 300.478 123.712 298.463 126.195L297.399 122.137Z" fill="#FCDBD6"/>
<path d="M303.636 51.2258C303.472 53.6518 303.175 56.0669 302.746 58.4603C301.452 65.1232 298.229 69.4245 296.94 75.4407C295.652 81.457 299.353 89.2116 298.346 96.9427C297.338 104.674 294.349 108.971 295.207 114.129C296.064 119.288 300.581 133.26 300.581 133.26" stroke="#263238" stroke-linecap="round" stroke-linejoin="round"/>
<path d="M303.106 57.3405L306.621 54.6416" stroke="#263238" stroke-linecap="round" stroke-linejoin="round"/>
<path d="M303.27 54.234L301.794 51.6147" stroke="#263238" stroke-linecap="round" stroke-linejoin="round"/>
<path d="M297.137 75.1643C297.137 75.1643 300.08 72.9574 303.106 70.7505" stroke="#263238" stroke-linecap="round" stroke-linejoin="round"/>
<path d="M298.608 70.5678C298.608 70.5678 296.153 65.7604 293.375 62.5742" stroke="#263238" stroke-linecap="round" stroke-linejoin="round"/>
<path d="M298.608 95.0355C300.287 91.9334 302.408 89.0923 304.906 86.6016" stroke="#263238" stroke-linecap="round" stroke-linejoin="round"/>
<path d="M298.037 98.3063C297.144 96.2029 296.076 94.1779 294.846 92.2525C293.131 89.7176 292.883 89.3896 292.883 89.3896" stroke="#263238" stroke-linecap="round" stroke-linejoin="round"/>
<path d="M295.221 114.129C295.968 112.282 296.854 110.495 297.873 108.783C298.892 107.192 300.04 105.687 301.307 104.285" stroke="#263238" stroke-linecap="round" stroke-linejoin="round"/>
<path d="M298.463 126.195C298.292 124.429 298.596 122.649 299.344 121.04C300.572 118.67 301.959 115.563 302.53 114.335" stroke="#263238" stroke-linecap="round" stroke-linejoin="round"/>
<path d="M276.717 82.9563C276.717 82.9563 276.464 81.4944 278.156 79.0907C279.847 76.687 280.967 75.2954 280.967 75.2954C280.967 75.2954 282.57 78.4816 281.023 80.8525C279.875 82.5342 278.588 84.1172 277.177 85.5849L276.717 82.9563Z" fill="#FCDBD6"/>
<path d="M281.267 91.5683C281.267 91.5683 281.014 90.1065 282.706 87.7028C284.397 85.2991 285.517 83.9075 285.517 83.9075C285.517 83.9075 287.119 87.0936 285.573 89.4692C284.424 91.1489 283.137 92.7302 281.726 94.1969L281.267 91.5683Z" fill="#FCDBD6"/>
<path d="M277.275 85.421C277.275 85.421 276.872 84.0153 274.304 82.5675C271.737 81.1197 270.134 80.3606 270.134 80.3606C270.134 80.3606 270.069 83.9263 272.477 85.3976C274.24 86.4126 276.085 87.2793 277.992 87.9887L277.275 85.421Z" fill="#FCDBD6"/>
<path d="M282.729 95.5792C282.729 95.5792 282.176 94.2017 279.477 93.049C276.778 91.8964 275.092 91.2966 275.092 91.2966C275.092 91.2966 275.401 94.8483 277.968 96.0572C279.829 96.8815 281.755 97.5492 283.727 98.0532L282.729 95.5792Z" fill="#FCDBD6"/>
<path d="M284.088 107.448C284.088 107.448 283.839 105.986 281.436 104.294C279.032 102.603 277.519 101.661 277.519 101.661C277.519 101.661 277.078 105.199 279.332 106.914C280.978 108.113 282.723 109.171 284.547 110.076L284.088 107.448Z" fill="#FCDBD6"/>
<path d="M284.622 110.311C284.622 110.311 284.153 108.905 285.498 106.281C286.843 103.657 287.733 102.125 287.733 102.125C287.733 102.125 289.771 105.049 288.581 107.621C287.685 109.447 286.636 111.195 285.447 112.846L284.622 110.311Z" fill="#FCDBD6"/>
<path d="M288.717 122.095C288.717 122.095 288.886 120.624 291.186 118.815C293.487 117.006 294.935 115.961 294.935 115.961C294.935 115.961 295.577 119.471 293.426 121.312C291.851 122.601 290.171 123.756 288.403 124.766L288.717 122.095Z" fill="#FCDBD6"/>
<path d="M288.103 118.459C288.103 118.459 287.85 116.997 285.451 115.305C283.052 113.614 281.544 112.672 281.544 112.672C281.544 112.672 281.103 116.21 283.357 117.929C285.005 119.126 286.749 120.184 288.572 121.092L288.103 118.459Z" fill="#FCDBD6"/>
<path d="M288.103 126.405C288.103 126.405 288.225 124.925 286.332 122.68C284.439 120.436 283.212 119.143 283.212 119.143C283.212 119.143 281.886 122.451 283.633 124.686C284.914 126.26 286.325 127.724 287.85 129.062L288.103 126.405Z" fill="#FCDBD6"/>
<path d="M276.469 82.6096C276.836 84.1137 277.285 85.5966 277.814 87.0515C279.346 91.0905 281.834 93.4379 283.296 97.0692C284.758 100.701 283.296 105.972 284.739 110.709C286.182 115.446 288.572 117.817 288.572 121.144C288.572 124.47 287.279 133.724 287.279 133.724" stroke="#263238" stroke-linecap="round" stroke-linejoin="round"/>
<path d="M277.467 86.3861L274.97 85.0789" stroke="#263238" stroke-linecap="round" stroke-linejoin="round"/>
<path d="M277.027 84.4557L277.664 82.6565" stroke="#263238" stroke-linecap="round" stroke-linejoin="round"/>
<path d="M283.141 96.9192C283.141 96.9192 281.056 95.8556 278.924 94.7966" stroke="#263238" stroke-linecap="round" stroke-linejoin="round"/>
<path d="M281.722 94.197C282.336 92.2664 283.145 90.403 284.135 88.6353" stroke="#263238" stroke-linecap="round" stroke-linejoin="round"/>
<path d="M284.378 109.537C282.988 107.778 281.35 106.23 279.515 104.941" stroke="#263238" stroke-linecap="round" stroke-linejoin="round"/>
<path d="M285.09 111.524C285.424 110.11 285.874 108.727 286.435 107.387C287.236 105.611 287.372 105.377 287.372 105.377" stroke="#263238" stroke-linecap="round" stroke-linejoin="round"/>
<path d="M288.459 123.669C289.272 122.662 290.172 121.729 291.149 120.881C291.77 120.424 292.353 119.916 292.892 119.363" stroke="#263238" stroke-linecap="round" stroke-linejoin="round"/>
<path d="M288.572 121.144C287.902 120.064 287.152 119.036 286.327 118.07C285.515 117.183 284.631 116.365 283.685 115.624" stroke="#263238" stroke-linecap="round" stroke-linejoin="round"/>
<path d="M287.85 129.062C287.766 127.936 287.383 126.852 286.74 125.923C285.714 124.569 284.505 122.77 284.013 122.062" stroke="#263238" stroke-linecap="round" stroke-linejoin="round"/>
<path d="M143.634 62.5461L141.581 56.6845L143.634 59.1725L142.022 50.3778L144.515 56.6845L145.396 44.3662L146.862 56.0941L148.474 53.7514V56.6845L150.381 52.7252L149.355 59.613L151.112 58.4416L148.329 62.251L143.634 62.5461Z" fill="#FCDBD6"/>
<path d="M150.086 61.0796H142.462L143.835 76.4716H148.713L150.086 61.0796Z" fill="#263238" stroke="#263238" stroke-linecap="round" stroke-linejoin="round"/>
<path d="M164.386 76.2983H138.414V131.307H164.386V76.2983Z" fill="white" stroke="#263238" stroke-linecap="round" stroke-linejoin="round"/>
<path d="M165.806 76.2983H151.398V131.307H165.806V76.2983Z" fill="white" stroke="#263238" stroke-linecap="round" stroke-linejoin="round"/>
<path d="M164.185 76.2983H151.398V131.307H164.185V76.2983Z" fill="#263238" stroke="#263238" stroke-linecap="round" stroke-linejoin="round"/>
<path d="M162.746 118.515H151.398V129.779H162.746V118.515Z" fill="#FCDBD6" stroke="#263238" stroke-linecap="round" stroke-linejoin="round"/>
<path d="M162.746 119.124H151.398V120.567H162.746V119.124Z" fill="white" stroke="#263238" stroke-linecap="round" stroke-linejoin="round"/>
<path d="M162.746 127.417H151.398V128.861H162.746V127.417Z" fill="white" stroke="#263238" stroke-linecap="round" stroke-linejoin="round"/>
<path d="M153.548 118.749V132.993" stroke="#263238" stroke-linecap="round" stroke-linejoin="round"/>
<path d="M157.508 118.749V132.993" stroke="#263238" stroke-linecap="round" stroke-linejoin="round"/>
<path d="M160.984 118.749V132.993" stroke="#263238" stroke-linecap="round" stroke-linejoin="round"/>
<path d="M162.746 78.3411H151.398V94.9045H162.746V78.3411Z" fill="#FCDBD6" stroke="#263238" stroke-linecap="round" stroke-linejoin="round"/>
<path d="M162.746 79.0347H151.398V80.6746H162.746V79.0347Z" fill="white" stroke="#263238" stroke-linecap="round" stroke-linejoin="round"/>
<path d="M162.746 89.6521H151.398V91.292H162.746V89.6521Z" fill="white" stroke="#263238" stroke-linecap="round" stroke-linejoin="round"/>
<path d="M153.548 78.6035V94.7921" stroke="#263238" stroke-linecap="round" stroke-linejoin="round"/>
<path d="M157.508 78.6035V94.7921" stroke="#263238" stroke-linecap="round" stroke-linejoin="round"/>
<path d="M160.984 78.6035V94.7921" stroke="#263238" stroke-linecap="round" stroke-linejoin="round"/>
<path d="M162.746 98.3015H151.398V114.865H162.746V98.3015Z" fill="#FCDBD6" stroke="#263238" stroke-linecap="round" stroke-linejoin="round"/>
<path d="M162.746 98.9951H151.398V100.635H162.746V98.9951Z" fill="white" stroke="#263238" stroke-linecap="round" stroke-linejoin="round"/>
<path d="M162.746 109.612H151.398V111.252H162.746V109.612Z" fill="white" stroke="#263238" stroke-linecap="round" stroke-linejoin="round"/>
<path d="M153.548 98.5686V114.752" stroke="#263238" stroke-linecap="round" stroke-linejoin="round"/>
<path d="M157.508 98.5686V114.752" stroke="#263238" stroke-linecap="round" stroke-linejoin="round"/>
<path d="M160.984 98.5686V114.752" stroke="#263238" stroke-linecap="round" stroke-linejoin="round"/>
<path d="M164.381 94.6748H151.398V96.5584H164.381V94.6748Z" fill="white" stroke="#263238" stroke-linecap="round" stroke-linejoin="round"/>
<path d="M164.381 114.762H151.398V116.646H164.381V114.762Z" fill="white" stroke="#263238" stroke-linecap="round" stroke-linejoin="round"/>
<path d="M164.381 76.2983V131.302" stroke="#263238" stroke-linecap="round" stroke-linejoin="round"/>
<path d="M149.566 76.2981V131.302H151.398V78.341H164.157V76.2747L149.566 76.2981Z" fill="white" stroke="#263238" stroke-linecap="round" stroke-linejoin="round"/>
<path d="M151.398 78.3412V76.2983" stroke="#263238" stroke-linecap="round" stroke-linejoin="round"/>
<path d="M164.283 51.029C162.919 48.4004 162.348 46.5168 162.348 46.0811C162.348 45.2189 164.222 44.7035 164.222 44.7035C167.146 43.1573 180.898 45.3923 187.087 46.4231C190.552 47.0272 194.058 47.3717 197.574 47.454C197.574 47.454 198.431 46.7699 199.448 45.9077C200.465 45.0456 205.291 39.3761 207.184 38.8794C209.077 38.3827 210.792 39.5682 210.792 39.5682C210.792 39.5682 213.889 41.4424 213.369 41.8032C212.849 42.164 205.291 48.6769 203.398 49.8811C201.505 51.0853 197.555 50.5698 194.116 51.2586C191.155 51.849 179.16 52.5799 176.409 52.8049C174.344 53.2948 172.176 53.1143 170.22 52.2894" fill="white"/>
<mask id="mask0_49_6116" style="mask-type:luminance" maskUnits="userSpaceOnUse" x="162" y="38" width="52" height="16">
<path d="M164.283 51.029C162.919 48.4004 162.348 46.5168 162.348 46.0811C162.348 45.2189 164.222 44.7035 164.222 44.7035C167.146 43.1573 180.898 45.3923 187.087 46.4231C190.552 47.0272 194.058 47.3717 197.574 47.454C197.574 47.454 198.431 46.7699 199.448 45.9077C200.465 45.0456 205.291 39.3761 207.184 38.8794C209.077 38.3827 210.792 39.5682 210.792 39.5682C210.792 39.5682 213.889 41.4424 213.369 41.8032C212.849 42.164 205.291 48.6769 203.398 49.8811C201.505 51.0853 197.555 50.5698 194.116 51.2586C191.155 51.849 179.16 52.5799 176.409 52.8049C174.344 53.2948 172.176 53.1143 170.22 52.2894" fill="white"/>
</mask>
<g mask="url(#mask0_49_6116)">
<path d="M210.824 39.5497C210.824 39.5497 209.105 38.3455 207.216 38.8609C205.328 39.3764 200.511 45.0506 199.48 45.8893C198.45 46.728 197.606 47.4355 197.606 47.4355C194.09 47.3533 190.585 47.0087 187.12 46.4047C180.93 45.3739 167.178 43.1248 164.255 44.6851C164.255 44.6851 162.38 45.2005 162.38 46.0626C162.445 46.5446 162.57 47.0167 162.75 47.4683L163.008 47.562C163.008 47.562 166.443 47.2012 173.855 47.3793C181.268 47.5573 198.412 48.5741 199.513 48.9724C199.982 49.1504 203.304 48.4007 206.987 47.0981C209.798 44.8069 213.101 41.944 213.434 41.7426C213.921 41.438 210.824 39.5497 210.824 39.5497Z" fill="#FCDBD6"/>
<path opacity="0.5" d="M210.824 39.5497C210.824 39.5497 209.105 38.3455 207.216 38.8609C205.328 39.3764 200.511 45.0506 199.48 45.8893C198.45 46.728 197.606 47.4355 197.606 47.4355C194.09 47.3533 190.585 47.0087 187.12 46.4047C180.93 45.3739 167.178 43.1248 164.255 44.6851C164.255 44.6851 162.38 45.2005 162.38 46.0626C162.445 46.5446 162.57 47.0167 162.75 47.4683L163.008 47.562C163.008 47.562 166.443 47.2012 173.855 47.3793C181.268 47.5573 198.412 48.5741 199.513 48.9724C199.982 49.1504 203.304 48.4007 206.987 47.0981C209.798 44.8069 213.101 41.944 213.434 41.7426C213.921 41.438 210.824 39.5497 210.824 39.5497Z" fill="white"/>
</g>
<path d="M164.283 51.029C162.919 48.4004 162.348 46.5168 162.348 46.0811C162.348 45.2189 164.222 44.7035 164.222 44.7035C167.146 43.1573 180.898 45.3923 187.087 46.4231C190.552 47.0272 194.058 47.3717 197.574 47.454C197.574 47.454 198.431 46.7699 199.448 45.9077C200.465 45.0456 205.291 39.3761 207.184 38.8794C209.077 38.3827 210.792 39.5682 210.792 39.5682C210.792 39.5682 213.889 41.4424 213.369 41.8032C212.849 42.164 205.291 48.6769 203.398 49.8811C201.505 51.0853 197.555 50.5698 194.116 51.2586C191.155 51.849 179.16 52.5799 176.409 52.8049C174.344 53.2948 172.176 53.1143 170.22 52.2894" stroke="#263238" stroke-linecap="round" stroke-linejoin="round"/>
<path d="M232.181 66.3132C232.492 65.7229 232.959 65.2289 233.53 64.8845C234.102 64.5401 234.756 64.3585 235.424 64.3594H266.676C266.676 64.3594 268.935 64.3594 268.26 68.6513C267.585 72.9433 258.317 99.1496 256.077 107.073C253.838 114.996 253.365 131.695 253.365 131.695H215.88C215.88 131.695 218.851 91.7605 232.181 66.3132Z" fill="white"/>
<mask id="mask1_49_6116" style="mask-type:luminance" maskUnits="userSpaceOnUse" x="215" y="64" width="54" height="68">
<path d="M232.181 66.3132C232.492 65.7229 232.959 65.2289 233.53 64.8845C234.102 64.5401 234.756 64.3585 235.424 64.3594H266.676C266.676 64.3594 268.935 64.3594 268.26 68.6513C267.585 72.9433 258.317 99.1496 256.077 107.073C253.838 114.996 253.365 131.695 253.365 131.695H215.88C215.88 131.695 218.851 91.7605 232.181 66.3132Z" fill="white"/>
</mask>
<g mask="url(#mask1_49_6116)">
<path opacity="0.16" d="M246.257 64.3594H235.424C234.757 64.3585 234.102 64.5401 233.53 64.8845C232.959 65.2289 232.492 65.7229 232.181 66.3132C218.851 91.7605 215.848 131.681 215.848 131.681H232.659L236.806 115.933L254.096 119.499C254.218 118.178 254.358 116.833 254.522 115.507L254.143 111.29C254.143 111.29 250.6 107.565 249.485 106.632C248.37 105.7 249.11 104.018 248.923 96.7506C248.735 89.4833 242.213 84.2589 239.786 79.7842C237.359 75.3095 241.093 72.5122 244.448 68.0375C245.643 66.421 246.13 65.2309 246.257 64.3594Z" fill="black"/>
</g>
<path d="M232.181 66.3132C232.492 65.7229 232.959 65.2289 233.53 64.8845C234.102 64.5401 234.756 64.3585 235.424 64.3594H266.676C266.676 64.3594 268.935 64.3594 268.26 68.6513C267.585 72.9433 258.317 99.1496 256.077 107.073C253.838 114.996 253.365 131.695 253.365 131.695H215.88C215.88 131.695 218.851 91.7605 232.181 66.3132Z" stroke="#263238" stroke-linecap="round" stroke-linejoin="round"/>
<path d="M261.255 71.8142C258.097 79.1846 251.415 108.362 250.328 131.681H253.346C253.346 131.681 253.814 114.963 256.059 107.059C258.303 99.1544 267.58 72.9434 268.241 68.6374C268.902 64.3314 266.657 64.3455 266.657 64.3455C266.657 64.3455 263.79 65.9057 261.255 71.8142Z" fill="#263238" stroke="#263238" stroke-linecap="round" stroke-linejoin="round"/>
<path d="M206.354 57.0828C206.354 57.0828 201.369 54.159 199.481 49.0049C197.592 43.8508 214.264 35.5948 221.503 35.0794C228.742 34.564 230.785 36.4523 235.091 43.8461C239.397 51.2399 242.311 61.3794 240.076 66.3648C237.841 71.3503 234.06 72.5544 236.796 76.673C239.533 80.7916 247.283 92.4868 246.767 97.9876C246.252 103.488 240.924 108.296 233.179 108.821C225.434 109.345 215.126 104.693 206.533 97.1067C197.939 89.5208 200.17 78.3645 203.253 74.7566C206.336 71.1488 210.988 69.7712 211.331 66.1634C211.673 62.5555 206.354 57.0828 206.354 57.0828Z" fill="#263238" stroke="#263238" stroke-linecap="round" stroke-linejoin="round"/>
<path d="M227.603 48.9253C230.251 53.8545 233.563 60.4564 234.599 64.4438C236.408 71.4253 227.102 75.8203 229.684 79.1799" stroke="white" stroke-linecap="round" stroke-linejoin="round"/>
<path d="M223.996 42.4685C223.996 42.4685 225.026 44.2256 226.451 46.812" stroke="white" stroke-linecap="round" stroke-linejoin="round"/>
<path d="M237.884 54.8711C238.189 55.7949 238.387 56.7508 238.474 57.7199" stroke="white" stroke-linecap="round" stroke-linejoin="round"/>
<path d="M225.785 39.9055C225.785 39.9055 233.929 45.9218 237.181 53.1234" stroke="white" stroke-linecap="round" stroke-linejoin="round"/>
<path d="M214.484 44.4177C208.669 46.0483 200.305 48.6956 200.985 50.2231" stroke="white" stroke-linecap="round" stroke-linejoin="round"/>
<path d="M219.858 42.9839C219.858 42.9839 218.617 43.2931 216.766 43.7898" stroke="white" stroke-linecap="round" stroke-linejoin="round"/>
<path d="M212.666 39.9478C215.997 38.8981 219.485 38.4382 222.974 38.589" stroke="white" stroke-linecap="round" stroke-linejoin="round"/>
<path d="M210.295 40.9175C210.822 40.6431 211.366 40.4052 211.926 40.2053" stroke="white" stroke-linecap="round" stroke-linejoin="round"/>
<path d="M164.283 51.029C163.494 49.5839 162.865 48.0566 162.409 46.4746C162.863 48.0574 163.492 49.5849 164.283 51.029ZM162.357 46.2076C162.357 46.2357 162.357 46.2685 162.357 46.3106C162.367 46.2685 162.362 46.2357 162.357 46.2076ZM164.283 51.0243C166.035 54.3435 168.215 57.4184 170.768 60.1705C176.957 66.8755 194.837 84.4135 196.538 85.6177C198.239 86.8219 197.742 90.2564 196.538 93.6956C195.334 97.1348 190.864 102.13 191.037 107.621C191.211 113.113 192.912 121.547 192.757 123.266C192.602 124.986 188.301 130.833 188.301 130.833H232.654C232.654 130.833 227.125 123.805 227.125 121.401C227.125 118.998 234.716 88.1995 235.058 85.9644C235.4 83.7294 234.027 82.1832 231.277 82.0098C228.526 81.8365 218.04 79.6015 217.525 77.8819C217.009 76.1623 220.275 69.6306 220.275 69.6306L209.967 70.146C209.967 70.146 209.452 74.6161 208.763 75.4782C208.074 76.3403 207.043 74.616 204.635 73.4165C202.226 72.217 197.607 71.1815 195.868 69.804C194.13 68.4264 177.646 52.936 177.646 52.936" fill="white"/>
<mask id="mask2_49_6116" style="mask-type:luminance" maskUnits="userSpaceOnUse" x="162" y="46" width="74" height="85">
<path d="M164.283 51.029C163.494 49.5839 162.865 48.0566 162.409 46.4746C162.863 48.0574 163.492 49.5849 164.283 51.029ZM162.357 46.2076C162.357 46.2357 162.357 46.2685 162.357 46.3106C162.367 46.2685 162.362 46.2357 162.357 46.2076ZM164.283 51.0243C166.035 54.3435 168.215 57.4184 170.768 60.1705C176.957 66.8755 194.837 84.4135 196.538 85.6177C198.239 86.8219 197.742 90.2564 196.538 93.6956C195.334 97.1348 190.864 102.13 191.037 107.621C191.211 113.113 192.912 121.547 192.757 123.266C192.602 124.986 188.301 130.833 188.301 130.833H232.654C232.654 130.833 227.125 123.805 227.125 121.401C227.125 118.998 234.716 88.1995 235.058 85.9644C235.4 83.7294 234.027 82.1832 231.277 82.0098C228.526 81.8365 218.04 79.6015 217.525 77.8819C217.009 76.1623 220.275 69.6306 220.275 69.6306L209.967 70.146C209.967 70.146 209.452 74.6161 208.763 75.4782C208.074 76.3403 207.043 74.616 204.635 73.4165C202.226 72.217 197.607 71.1815 195.868 69.804C194.13 68.4264 177.646 52.936 177.646 52.936" fill="white"/>
</mask>
<g mask="url(#mask2_49_6116)">
<path d="M198.501 71.1301C199.359 72.6295 200.216 73.9836 200.216 73.9836C200.216 73.9836 203.107 75.6095 203.829 75.6095C204.55 75.6095 208.889 77.9523 208.889 77.9523C208.889 77.9523 212.507 77.048 211.232 73.9742C210.83 73.1874 210.322 72.4591 209.723 71.8095C209.508 73.173 209.161 74.9582 208.753 75.4689C208.065 76.3264 207.034 74.6068 204.625 73.4073C203.065 72.6295 200.54 71.9173 198.501 71.1301Z" fill="#FCDBD6"/>
<path d="M189.674 64.1721C184.365 59.2569 177.646 52.9548 177.646 52.9548L173.738 52.3926L173.27 52.655C173.27 52.655 184.3 62.415 186.647 63.502C187.597 63.9385 188.629 64.167 189.674 64.1721Z" fill="#FCDBD6"/>
<path d="M195.236 69.2606L194.814 68.8857C195.029 69.2418 195.151 69.4667 195.151 69.4667L195.236 69.2606Z" fill="#FCDBD6"/>
<g opacity="0.5">
<path d="M198.501 71.1301C199.359 72.6295 200.216 73.9836 200.216 73.9836C200.216 73.9836 203.107 75.6095 203.829 75.6095C204.55 75.6095 208.889 77.9523 208.889 77.9523C208.889 77.9523 212.507 77.048 211.232 73.9742C210.83 73.1874 210.322 72.4591 209.723 71.8095C209.508 73.173 209.161 74.9582 208.753 75.4689C208.065 76.3264 207.034 74.6068 204.625 73.4073C203.065 72.6295 200.54 71.9173 198.501 71.1301Z" fill="white"/>
<path d="M189.674 64.1721C184.365 59.2569 177.646 52.9548 177.646 52.9548L173.738 52.3926L173.27 52.655C173.27 52.655 184.3 62.415 186.647 63.502C187.597 63.9385 188.629 64.167 189.674 64.1721Z" fill="white"/>
<path d="M195.236 69.2606L194.814 68.8857C195.029 69.2418 195.151 69.4667 195.151 69.4667L195.236 69.2606Z" fill="white"/>
</g>
</g>
<path d="M162.348 46.0811C162.346 46.1138 162.346 46.1467 162.348 46.1795M162.409 46.4746C162.865 48.0566 163.494 49.5839 164.283 51.029C163.492 49.5849 162.863 48.0574 162.409 46.4746ZM162.409 46.4746C162.396 46.4302 162.386 46.3847 162.381 46.3388M164.283 51.0243C166.035 54.3435 168.215 57.4184 170.768 60.1705C176.957 66.8755 194.837 84.4135 196.538 85.6177C198.239 86.8219 197.742 90.2564 196.538 93.6956C195.334 97.1348 190.864 102.13 191.037 107.621C191.211 113.113 192.912 121.547 192.757 123.266C192.602 124.986 188.301 130.833 188.301 130.833H232.654C232.654 130.833 227.125 123.805 227.125 121.401C227.125 118.998 234.716 88.1995 235.058 85.9644C235.4 83.7294 234.027 82.1832 231.277 82.0098C228.526 81.8365 218.04 79.6015 217.525 77.8819C217.009 76.1623 220.275 69.6306 220.275 69.6306L209.967 70.146C209.967 70.146 209.452 74.6161 208.763 75.4782C208.074 76.3403 207.043 74.616 204.635 73.4165C202.226 72.217 197.607 71.1815 195.868 69.804C194.13 68.4264 177.646 52.936 177.646 52.936M162.357 46.2076C162.357 46.2357 162.357 46.2685 162.357 46.3106C162.367 46.2685 162.362 46.2357 162.357 46.2076Z" stroke="#263238" stroke-linecap="round" stroke-linejoin="round"/>
<path d="M177.646 52.9547C177.646 52.9547 172.155 53.0577 169.09 50.5322" stroke="#263238" stroke-linecap="round" stroke-linejoin="round"/>
<path d="M217.529 77.8819C217.014 76.1669 220.28 69.6306 220.28 69.6306L209.972 70.146C209.972 70.146 209.456 74.616 208.767 75.4782C208.079 76.3403 207.048 74.616 204.639 73.4165C204.457 73.3228 204.255 73.2338 204.049 73.1448L203.426 82.9423C203.426 82.9423 204.33 92.4305 215.173 90.6266C219.563 89.8956 224.249 85.9785 228.292 81.5741C224.131 80.8103 217.923 79.1985 217.529 77.8819Z" fill="white"/>
<mask id="mask3_49_6116" style="mask-type:luminance" maskUnits="userSpaceOnUse" x="203" y="69" width="26" height="22">
<path d="M217.529 77.8819C217.014 76.1669 220.28 69.6306 220.28 69.6306L209.972 70.146C209.972 70.146 209.456 74.616 208.767 75.4782C208.079 76.3403 207.048 74.616 204.639 73.4165C204.457 73.3228 204.255 73.2338 204.049 73.1448L203.426 82.9423C203.426 82.9423 204.33 92.4305 215.173 90.6266C219.563 89.8956 224.249 85.9785 228.292 81.5741C224.131 80.8103 217.923 79.1985 217.529 77.8819Z" fill="white"/>
</mask>
<g mask="url(#mask3_49_6116)">
<path d="M217.239 70.9286C217.239 70.9286 216.616 74.424 216.114 78.2896C215.613 82.1552 215.243 85.0321 215.243 85.0321L217.529 77.8819L220.106 70.3054C220.106 70.3054 217.614 70.3054 217.239 70.9286Z" fill="#FCDBD6"/>
<path opacity="0.5" d="M217.239 70.9286C217.239 70.9286 216.616 74.424 216.114 78.2896C215.613 82.1552 215.243 85.0321 215.243 85.0321L217.529 77.8819L220.106 70.3054C220.106 70.3054 217.614 70.3054 217.239 70.9286Z" fill="white"/>
</g>
<path d="M217.529 77.8819C217.014 76.1669 220.28 69.6306 220.28 69.6306L209.972 70.146C209.972 70.146 209.456 74.616 208.767 75.4782C208.079 76.3403 207.048 74.616 204.639 73.4165C204.457 73.3228 204.255 73.2338 204.049 73.1448L203.426 82.9423C203.426 82.9423 204.33 92.4305 215.173 90.6266C219.563 89.8956 224.249 85.9785 228.292 81.5741C224.131 80.8103 217.923 79.1985 217.529 77.8819Z" stroke="#263238" stroke-linecap="round" stroke-linejoin="round"/>
<path d="M208.763 75.4783C208.074 76.3357 207.043 74.6161 204.635 73.4166C203.117 72.6529 200.699 71.9594 198.698 71.2097C198.131 69.865 197.382 68.1126 196.899 67.0536C196.042 65.1794 194.664 66.3649 194.664 66.3649C193.945 65.5475 193.365 64.6185 192.944 63.6144C192.087 61.7402 190.709 61.8949 188.821 61.5528C186.933 61.2108 182.974 57.5982 182.974 57.5982C182.974 57.5982 181.123 56.1925 180.359 55.4944C179.469 57.2468 177.337 60.3299 172.726 62.2556C180.078 69.9353 194.992 84.5261 196.557 85.6225C198.277 86.822 197.761 90.2612 196.557 93.7004C195.353 97.1395 190.883 102.134 191.056 107.626C191.229 113.117 192.93 121.551 192.776 123.271C192.621 124.803 189.191 129.606 188.446 130.637L190.194 130.833H199.293C199.242 126.223 199.246 107.406 202.4 99.9087C206.012 91.292 208.763 75.4783 208.763 75.4783Z" fill="#FCDBD6"/>
<mask id="mask4_49_6116" style="mask-type:luminance" maskUnits="userSpaceOnUse" x="172" y="55" width="37" height="76">
<path d="M208.763 75.4783C208.074 76.3357 207.043 74.6161 204.635 73.4166C203.117 72.6529 200.699 71.9594 198.698 71.2097C198.131 69.865 197.382 68.1126 196.899 67.0536C196.042 65.1794 194.664 66.3649 194.664 66.3649C193.945 65.5475 193.365 64.6185 192.944 63.6144C192.087 61.7402 190.709 61.8949 188.821 61.5528C186.933 61.2108 182.974 57.5982 182.974 57.5982C182.974 57.5982 181.123 56.1925 180.359 55.4944C179.469 57.2468 177.337 60.3299 172.726 62.2556C180.078 69.9353 194.992 84.5261 196.557 85.6225C198.277 86.822 197.761 90.2612 196.557 93.7004C195.353 97.1395 190.883 102.134 191.056 107.626C191.229 113.117 192.93 121.551 192.776 123.271C192.621 124.803 189.191 129.606 188.446 130.637L190.194 130.833H199.293C199.242 126.223 199.246 107.406 202.4 99.9087C206.012 91.292 208.763 75.4783 208.763 75.4783Z" fill="white"/>
</mask>
<g mask="url(#mask4_49_6116)">
<path opacity="0.16" d="M204.635 73.4166C203.117 72.6529 200.699 71.9594 198.698 71.2097C198.131 69.865 197.382 68.1126 196.899 67.0536C196.042 65.1794 194.664 66.3649 194.664 66.3649C193.945 65.5475 193.365 64.6185 192.944 63.6144C192.087 61.7402 190.709 61.8949 188.821 61.5528C186.933 61.2108 182.974 57.5982 182.974 57.5982C182.974 57.5982 181.123 56.1925 180.359 55.4944C179.978 56.2385 179.524 56.9432 179.005 57.5982C182.079 60.1987 185.471 62.9538 186.656 63.502C188.999 64.5843 189.547 63.68 191.342 64.7671C193.137 65.8541 195.137 69.4526 195.137 69.4526C195.137 69.4526 196.224 66.557 197.129 68.5483C198.033 70.5397 200.202 73.9695 200.202 73.9695C200.202 73.9695 203.093 75.5954 203.815 75.5954C204.382 75.5954 207.16 77.0385 208.341 77.6617C208.604 76.2888 208.749 75.4642 208.749 75.4642C208.074 76.3357 207.043 74.6161 204.635 73.4166Z" fill="black"/>
</g>
<path d="M208.763 75.4783C208.074 76.3357 207.043 74.6161 204.635 73.4166C203.117 72.6529 200.699 71.9594 198.698 71.2097C198.131 69.865 197.382 68.1126 196.899 67.0536C196.042 65.1794 194.664 66.3649 194.664 66.3649C193.945 65.5475 193.365 64.6185 192.944 63.6144C192.087 61.7402 190.709 61.8949 188.821 61.5528C186.933 61.2108 182.974 57.5982 182.974 57.5982C182.974 57.5982 181.123 56.1925 180.359 55.4944C179.469 57.2468 177.337 60.3299 172.726 62.2556C180.078 69.9353 194.992 84.5261 196.557 85.6225C198.277 86.822 197.761 90.2612 196.557 93.7004C195.353 97.1395 190.883 102.134 191.056 107.626C191.229 113.117 192.93 121.551 192.776 123.271C192.621 124.803 189.191 129.606 188.446 130.637L190.194 130.833H199.293C199.242 126.223 199.246 107.406 202.4 99.9087C206.012 91.292 208.763 75.4783 208.763 75.4783Z" stroke="#263238" stroke-linecap="round" stroke-linejoin="round"/>
<path d="M208.885 74.8783C208.885 74.8783 206.748 74.2223 205.431 75.3749C204.115 76.5276 202.152 82.4407 200.994 88.8552C200.281 92.5894 200.773 96.4536 202.4 99.8897C202.4 99.8897 205.103 92.8005 205.923 89.3472C206.743 85.894 208.885 74.8783 208.885 74.8783Z" fill="#FCDBD6"/>
<mask id="mask5_49_6116" style="mask-type:luminance" maskUnits="userSpaceOnUse" x="200" y="74" width="9" height="26">
<path d="M208.885 74.8783C208.885 74.8783 206.748 74.2223 205.431 75.3749C204.115 76.5276 202.152 82.4407 200.994 88.8552C200.281 92.5894 200.773 96.4536 202.4 99.8897C202.4 99.8897 205.103 92.8005 205.923 89.3472C206.743 85.894 208.885 74.8783 208.885 74.8783Z" fill="white"/>
</mask>
<g mask="url(#mask5_49_6116)">
<path opacity="0.16" d="M204.785 75.9231C204.785 75.9231 206.331 75.5483 206.968 75.7638C207.505 75.9939 208.006 76.2984 208.458 76.6681L208.885 74.8782C208.245 74.5514 207.52 74.4319 206.809 74.5362C205.745 74.7517 204.785 75.9231 204.785 75.9231Z" fill="black"/>
</g>
<path d="M208.885 74.8783C208.885 74.8783 206.748 74.2223 205.431 75.3749C204.115 76.5276 202.152 82.4407 200.994 88.8552C200.281 92.5894 200.773 96.4536 202.4 99.8897C202.4 99.8897 205.103 92.8005 205.923 89.3472C206.743 85.894 208.885 74.8783 208.885 74.8783Z" stroke="#263238" stroke-linecap="round" stroke-linejoin="round"/>
<path d="M194.495 75.4406L197.246 86.6157L191.056 72.5168" stroke="#263238" stroke-linecap="round" stroke-linejoin="round"/>
<path d="M212.614 130.833H232.659C232.659 130.833 227.13 123.805 227.13 121.401C227.13 118.998 234.721 88.1994 235.063 85.9644C235.405 83.7294 234.032 82.1832 231.282 82.0098C228.531 81.8364 218.045 79.6014 217.529 77.8818C217.529 77.8818 213.575 91.8073 212.202 101.263C211.021 109.373 212.244 126.204 212.614 130.833Z" fill="#FCDBD6"/>
<mask id="mask6_49_6116" style="mask-type:luminance" maskUnits="userSpaceOnUse" x="211" y="77" width="25" height="54">
<path d="M212.614 130.833H232.659C232.659 130.833 227.13 123.805 227.13 121.401C227.13 118.998 234.721 88.1994 235.063 85.9644C235.405 83.7294 234.032 82.1832 231.282 82.0098C228.531 81.8364 218.045 79.6014 217.529 77.8818C217.529 77.8818 213.575 91.8073 212.202 101.263C211.021 109.373 212.244 126.204 212.614 130.833Z" fill="white"/>
</mask>
<g mask="url(#mask6_49_6116)">
<path opacity="0.16" d="M231.282 82.0099C229.028 81.8693 221.583 80.3418 218.682 78.8518L219.736 81.2883C221.647 82.3017 223.701 83.0159 225.828 83.4062C229.318 84.0293 232.565 83.9075 234.688 87.0281L234.791 87.1827C234.922 86.583 235.011 86.1613 235.039 85.9645C235.41 83.7295 234.032 82.1832 231.282 82.0099Z" fill="black"/>
</g>
<path d="M212.614 130.833H232.659C232.659 130.833 227.13 123.805 227.13 121.401C227.13 118.998 234.721 88.1994 235.063 85.9644C235.405 83.7294 234.032 82.1832 231.282 82.0098C228.531 81.8364 218.045 79.6014 217.529 77.8818C217.529 77.8818 213.575 91.8073 212.202 101.263C211.021 109.373 212.244 126.204 212.614 130.833Z" stroke="#263238" stroke-linecap="round" stroke-linejoin="round"/>
<path d="M217.529 77.8818C217.529 77.8818 212.225 94.7498 212.202 101.263C212.202 101.263 219.736 92.14 220.72 85.7301C221.704 79.3203 217.529 77.8818 217.529 77.8818Z" fill="#FCDBD6"/>
<mask id="mask7_49_6116" style="mask-type:luminance" maskUnits="userSpaceOnUse" x="212" y="77" width="9" height="25">
<path d="M217.529 77.8818C217.529 77.8818 212.225 94.7498 212.202 101.263C212.202 101.263 219.736 92.14 220.72 85.7301C221.704 79.3203 217.529 77.8818 217.529 77.8818Z" fill="white"/>
</mask>
<g mask="url(#mask7_49_6116)">
<path opacity="0.16" d="M216.616 80.0372C217.413 80.0105 218.204 80.1783 218.922 80.526C219.639 80.8738 220.261 81.3911 220.734 82.0332C220.734 82.0332 219.694 78.9736 217.529 77.8818L216.616 80.0372Z" fill="black"/>
</g>
<path d="M217.529 77.8818C217.529 77.8818 212.225 94.7498 212.202 101.263C212.202 101.263 219.736 92.14 220.72 85.7301C221.704 79.3203 217.529 77.8818 217.529 77.8818Z" stroke="#263238" stroke-linecap="round" stroke-linejoin="round"/>
<path d="M274.154 127.661C274.154 127.661 278.039 127.821 280.583 128.186C282.28 128.416 283.988 128.552 285.699 128.594C285.699 128.594 284.294 125.754 282.794 124.953C281.295 124.152 278.577 122.718 276.3 123.037C274.023 123.355 270.767 125.651 271.038 126.382C271.31 127.113 272.524 127.441 274.154 127.661Z" fill="white"/>
<mask id="mask8_49_6116" style="mask-type:luminance" maskUnits="userSpaceOnUse" x="271" y="122" width="15" height="7">
<path d="M274.154 127.661C274.154 127.661 278.039 127.821 280.583 128.186C282.28 128.416 283.988 128.552 285.699 128.594C285.699 128.594 284.294 125.754 282.794 124.953C281.295 124.152 278.577 122.718 276.3 123.037C274.023 123.355 270.767 125.651 271.038 126.382C271.31 127.113 272.524 127.441 274.154 127.661Z" fill="white"/>
</mask>
<g mask="url(#mask8_49_6116)">
<path d="M274.154 127.661C274.154 127.661 278.039 127.821 280.583 128.186C282.28 128.416 283.988 128.552 285.699 128.594C285.699 128.594 284.294 125.754 282.794 124.953C281.295 124.152 278.577 122.718 276.3 123.037C274.023 123.355 270.767 125.651 271.038 126.382C271.31 127.113 272.524 127.441 274.154 127.661Z" fill="#FCDBD6"/>
<path opacity="0.5" d="M274.154 127.661C274.154 127.661 278.039 127.821 280.583 128.186C282.28 128.416 283.988 128.552 285.699 128.594C285.699 128.594 284.294 125.754 282.794 124.953C281.295 124.152 278.577 122.718 276.3 123.037C274.023 123.355 270.767 125.651 271.038 126.382C271.31 127.113 272.524 127.441 274.154 127.661Z" fill="white"/>
</g>
<path d="M274.154 127.661C274.154 127.661 278.039 127.821 280.583 128.186C282.28 128.416 283.988 128.552 285.699 128.594C285.699 128.594 284.294 125.754 282.794 124.953C281.295 124.152 278.577 122.718 276.3 123.037C274.023 123.355 270.767 125.651 271.038 126.382C271.31 127.113 272.524 127.441 274.154 127.661Z" stroke="#263238" stroke-linecap="round" stroke-linejoin="round"/>
<path d="M280.606 126.499C280.606 126.499 283.685 124.901 284.453 124.925C285.222 124.948 290.329 128.401 290.076 128.954C289.904 129.211 289.656 129.407 289.367 129.514C289.077 129.622 288.762 129.636 288.464 129.554C287.897 129.287 284.458 127.825 284.458 127.825L282.209 128.355L280.606 126.499Z" fill="white"/>
<mask id="mask9_49_6116" style="mask-type:luminance" maskUnits="userSpaceOnUse" x="280" y="124" width="11" height="6">
<path d="M280.606 126.499C280.606 126.499 283.685 124.901 284.453 124.925C285.222 124.948 290.329 128.401 290.076 128.954C289.904 129.211 289.656 129.407 289.367 129.514C289.077 129.622 288.762 129.636 288.464 129.554C287.897 129.287 284.458 127.825 284.458 127.825L282.209 128.355L280.606 126.499Z" fill="white"/>
</mask>
<g mask="url(#mask9_49_6116)">
<path d="M280.606 126.499C280.606 126.499 283.685 124.901 284.453 124.925C285.222 124.948 290.329 128.401 290.076 128.954C289.823 129.507 288.614 129.957 288.464 129.554C288.314 129.151 284.458 127.825 284.458 127.825L282.209 128.355L280.606 126.499Z" fill="#FCDBD6"/>
<path opacity="0.5" d="M280.606 126.499C280.606 126.499 283.685 124.901 284.453 124.925C285.222 124.948 290.329 128.401 290.076 128.954C289.823 129.507 288.614 129.957 288.464 129.554C288.314 129.151 284.458 127.825 284.458 127.825L282.209 128.355L280.606 126.499Z" fill="white"/>
</g>
<path d="M280.606 126.499C280.606 126.499 283.685 124.901 284.453 124.925C285.222 124.948 290.329 128.401 290.076 128.954C289.904 129.211 289.656 129.407 289.367 129.514C289.077 129.622 288.762 129.636 288.464 129.554C287.897 129.287 284.458 127.825 284.458 127.825L282.209 128.355L280.606 126.499Z" stroke="#263238" stroke-linecap="round" stroke-linejoin="round"/>
<path d="M278.409 123.87C278.409 123.87 282.513 123.739 283.329 124.152C284.144 124.564 287.827 130.88 287.274 131.339C286.721 131.798 285.193 131.662 285.24 131.152C285.287 130.641 281.848 127.258 281.848 127.258L279.172 126.672L278.409 123.87Z" fill="white"/>
<mask id="mask10_49_6116" style="mask-type:luminance" maskUnits="userSpaceOnUse" x="278" y="123" width="10" height="9">
<path d="M278.409 123.87C278.409 123.87 282.513 123.739 283.329 124.152C284.144 124.564 287.827 130.88 287.274 131.339C286.721 131.798 285.193 131.662 285.24 131.152C285.287 130.641 281.848 127.258 281.848 127.258L279.172 126.672L278.409 123.87Z" fill="white"/>
</mask>
<g mask="url(#mask10_49_6116)">
<path d="M278.409 123.87C278.409 123.87 282.513 123.739 283.329 124.152C284.144 124.564 287.827 130.88 287.274 131.339C286.721 131.798 285.193 131.662 285.24 131.152C285.287 130.641 281.848 127.258 281.848 127.258L279.172 126.672L278.409 123.87Z" fill="#FCDBD6"/>
<path opacity="0.5" d="M278.409 123.87C278.409 123.87 282.513 123.739 283.329 124.152C284.144 124.564 287.827 130.88 287.274 131.339C286.721 131.798 285.193 131.662 285.24 131.152C285.287 130.641 281.848 127.258 281.848 127.258L279.172 126.672L278.409 123.87Z" fill="white"/>
</g>
<path d="M278.409 123.87C278.409 123.87 282.513 123.739 283.329 124.152C284.144 124.564 287.827 130.88 287.274 131.339C286.721 131.798 285.193 131.662 285.24 131.152C285.287 130.641 281.848 127.258 281.848 127.258L279.172 126.672L278.409 123.87Z" stroke="#263238" stroke-linecap="round" stroke-linejoin="round"/>
<path d="M275.977 123.022C275.977 123.022 280.133 122.886 280.958 123.308C281.782 123.73 285.512 130.116 284.95 130.585C284.388 131.053 282.851 130.908 282.898 130.393C282.944 129.877 279.463 126.452 279.463 126.452L276.755 125.857L275.977 123.022Z" fill="white"/>
<mask id="mask11_49_6116" style="mask-type:luminance" maskUnits="userSpaceOnUse" x="275" y="123" width="11" height="8">
<path d="M275.977 123.022C275.977 123.022 280.133 122.886 280.958 123.308C281.782 123.73 285.512 130.116 284.95 130.585C284.388 131.053 282.851 130.908 282.898 130.393C282.944 129.877 279.463 126.452 279.463 126.452L276.755 125.857L275.977 123.022Z" fill="white"/>
</mask>
<g mask="url(#mask11_49_6116)">
<path d="M275.977 123.022C275.977 123.022 280.133 122.886 280.958 123.308C281.782 123.73 285.512 130.116 284.95 130.585C284.388 131.053 282.851 130.908 282.898 130.393C282.944 129.877 279.463 126.452 279.463 126.452L276.755 125.857L275.977 123.022Z" fill="#FCDBD6"/>
<path opacity="0.5" d="M275.977 123.022C275.977 123.022 280.133 122.886 280.958 123.308C281.782 123.73 285.512 130.116 284.95 130.585C284.388 131.053 282.851 130.908 282.898 130.393C282.944 129.877 279.463 126.452 279.463 126.452L276.755 125.857L275.977 123.022Z" fill="white"/>
</g>
<path d="M275.977 123.022C275.977 123.022 280.133 122.886 280.958 123.308C281.782 123.73 285.512 130.116 284.95 130.585C284.388 131.053 282.851 130.908 282.898 130.393C282.944 129.877 279.463 126.452 279.463 126.452L276.755 125.857L275.977 123.022Z" stroke="#263238" stroke-linecap="round" stroke-linejoin="round"/>
<path d="M228.723 99.2105C231.731 103.845 237.771 115.587 239.533 116.908C242.283 118.969 260.669 123.974 262.44 125.342C264.212 126.71 264.09 128.083 265.767 128.584C267.445 129.086 273.733 130.524 276.132 130.749C278.531 130.974 277.458 129.489 277.458 129.489L273.367 126.677L276.933 125.796C276.933 125.796 280.508 130.098 281.178 130.332C281.848 130.566 283.029 130.332 282.954 129.802C282.823 128.954 279.009 122.015 277.654 121.72C276.3 121.425 268.082 122.563 268.082 122.563C268.082 122.563 250.844 110.938 250.535 110.526C250.535 110.526 249.504 107.602 248.66 106.398C247.817 105.194 247.283 105.541 247.283 105.541C247.283 105.541 247.629 103.99 247.114 103.474L244.364 100.724L244.265 100.855C243.797 99.918 243.328 98.8497 242.813 97.6315C241.374 94.2438 236.281 84.7369 235.424 83.364C234.782 82.3379 229.403 81.6022 226.676 81.293" fill="#FCDBD6"/>
<mask id="mask12_49_6116" style="mask-type:luminance" maskUnits="userSpaceOnUse" x="226" y="81" width="57" height="50">
<path d="M228.723 99.2105C231.731 103.845 237.771 115.587 239.533 116.908C242.283 118.969 260.669 123.974 262.44 125.342C264.212 126.71 264.09 128.083 265.767 128.584C267.445 129.086 273.733 130.524 276.132 130.749C278.531 130.974 277.458 129.489 277.458 129.489L273.367 126.677L276.933 125.796C276.933 125.796 280.508 130.098 281.178 130.332C281.848 130.566 283.029 130.332 282.954 129.802C282.823 128.954 279.009 122.015 277.654 121.72C276.3 121.425 268.082 122.563 268.082 122.563C268.082 122.563 250.844 110.938 250.535 110.526C250.535 110.526 249.504 107.602 248.66 106.398C247.817 105.194 247.283 105.541 247.283 105.541C247.283 105.541 247.629 103.99 247.114 103.474L244.364 100.724L244.265 100.855C243.797 99.918 243.328 98.8497 242.813 97.6315C241.374 94.2438 236.281 84.7369 235.424 83.364C234.782 82.3379 229.403 81.6022 226.676 81.293" fill="white"/>
</mask>
<g mask="url(#mask12_49_6116)">
<path opacity="0.16" d="M240.7 99.5054C242.949 101.501 242.199 101.501 241.698 103.254C241.196 105.006 242.073 102.631 244.195 102.757C246.318 102.884 245.694 105.625 245.441 106.126C245.188 106.627 248.065 107.251 247.564 108.37C247.063 109.49 244.195 111.116 242.574 112.742C240.953 114.368 246.814 110.118 248.81 109.996C249.419 109.954 249.921 110.034 250.343 110.024C249.9 108.771 249.332 107.565 248.646 106.426C247.784 105.222 247.269 105.569 247.269 105.569C247.269 105.569 247.616 104.018 247.1 103.502L244.35 100.752L244.251 100.883C243.783 99.9459 243.314 98.8776 242.799 97.6593C241.36 94.2717 236.267 84.7647 235.41 83.3918C234.768 82.3657 229.389 81.63 226.662 81.3208L226.91 83.4902L226.971 83.5371C226.971 83.5371 230.34 84.1602 231.464 84.2867C232.589 84.4133 233.962 85.4066 233.835 86.161C233.709 86.9153 230.466 90.2796 231.464 90.5326C232.462 90.7856 233.587 88.0352 234.712 88.41C235.836 88.7849 238.437 97.5094 240.7 99.5054Z" fill="black"/>
</g>
<path d="M228.723 99.2105C231.731 103.845 237.771 115.587 239.533 116.908C242.283 118.969 260.669 123.974 262.44 125.342C264.212 126.71 264.09 128.083 265.767 128.584C267.445 129.086 273.733 130.524 276.132 130.749C278.531 130.974 277.458 129.489 277.458 129.489L273.367 126.677L276.933 125.796C276.933 125.796 280.508 130.098 281.178 130.332C281.848 130.566 283.029 130.332 282.954 129.802C282.823 128.954 279.009 122.015 277.654 121.72C276.3 121.425 268.082 122.563 268.082 122.563C268.082 122.563 250.844 110.938 250.535 110.526C250.535 110.526 249.504 107.602 248.66 106.398C247.817 105.194 247.283 105.541 247.283 105.541C247.283 105.541 247.629 103.99 247.114 103.474L244.364 100.724L244.265 100.855C243.797 99.918 243.328 98.8497 242.813 97.6315C241.374 94.2438 236.281 84.7369 235.424 83.364C234.782 82.3379 229.403 81.6022 226.676 81.293" stroke="#263238" stroke-linecap="round" stroke-linejoin="round"/>
<path d="M228.77 92.8521C228.644 93.2738 228.536 93.6955 228.451 94.1265" stroke="#263238" stroke-linecap="round" stroke-linejoin="round"/>
<path d="M233.324 85.0977C231.852 86.7759 230.61 88.6432 229.632 90.65" stroke="#263238" stroke-linecap="round" stroke-linejoin="round"/>
<path d="M240.207 111.702C241.473 109.828 243.487 107.452 245.708 106.773" stroke="#263238" stroke-linecap="round" stroke-linejoin="round"/>
<path d="M238.807 114.007C238.807 114.007 239.031 113.567 239.434 112.902" stroke="#263238" stroke-linecap="round" stroke-linejoin="round"/>
<path d="M238.807 111.046C238.807 111.046 241.107 105.292 243.408 103.812C245.708 102.331 244.392 105.292 244.392 105.292" stroke="#263238" stroke-linecap="round" stroke-linejoin="round"/>
<path d="M262.44 125.347C264.216 126.719 264.09 128.088 265.767 128.589C267.445 129.09 273.733 130.529 276.132 130.754C278.531 130.979 277.458 129.493 277.458 129.493L273.367 126.682L276.933 125.801C276.933 125.801 280.508 130.102 281.178 130.337C281.848 130.571 283.122 130.655 282.954 129.807C282.626 128.167 279.009 122.02 277.654 121.725C276.3 121.429 268.082 122.568 268.082 122.568C268.082 122.568 252.381 111.791 250.661 110.625C243.993 111.266 240.821 114.757 239.486 116.852L239.533 116.889C242.283 118.969 260.669 123.974 262.44 125.347Z" fill="white"/>
<mask id="mask13_49_6116" style="mask-type:luminance" maskUnits="userSpaceOnUse" x="239" y="110" width="44" height="21">
<path d="M262.44 125.347C264.216 126.719 264.09 128.088 265.767 128.589C267.445 129.09 273.733 130.529 276.132 130.754C278.531 130.979 277.458 129.493 277.458 129.493L273.367 126.682L276.933 125.801C276.933 125.801 280.508 130.102 281.178 130.337C281.848 130.571 283.122 130.655 282.954 129.807C282.626 128.167 279.009 122.02 277.654 121.725C276.3 121.429 268.082 122.568 268.082 122.568C268.082 122.568 252.381 111.791 250.661 110.625C243.993 111.266 240.821 114.757 239.486 116.852L239.533 116.889C242.283 118.969 260.669 123.974 262.44 125.347Z" fill="white"/>
</mask>
<g mask="url(#mask13_49_6116)">
<path d="M282.949 129.826C282.096 127.741 279.004 122.038 277.65 121.743C276.296 121.448 268.077 122.587 268.077 122.587C268.077 122.587 252.376 111.81 250.656 110.643C248.906 110.795 247.189 111.211 245.563 111.875C248.042 113.281 264.563 122.652 266.648 123.069C268.86 123.538 276.239 122.324 277.537 123.196C278.362 123.749 280.817 127.642 282.476 130.407C282.949 130.336 283.123 130.247 282.949 129.826Z" fill="#FCDBD6"/>
<path opacity="0.5" d="M282.949 129.826C281.618 126.841 279.004 122.038 277.65 121.743C276.296 121.448 268.077 122.587 268.077 122.587C268.077 122.587 252.376 111.81 250.656 110.643C248.906 110.795 247.189 111.211 245.563 111.875C248.042 113.281 264.563 122.652 266.648 123.069C268.86 123.538 276.239 122.324 277.537 123.196C278.362 123.749 280.817 127.642 282.476 130.407C282.949 130.336 283.137 130.243 282.949 129.826Z" fill="white"/>
</g>
<path d="M262.44 125.347C264.216 126.719 264.09 128.088 265.767 128.589C267.445 129.09 273.733 130.529 276.132 130.754C278.531 130.979 277.458 129.493 277.458 129.493L273.367 126.682L276.933 125.801C276.933 125.801 280.508 130.102 281.178 130.337C281.848 130.571 283.122 130.655 282.954 129.807C282.626 128.167 279.009 122.02 277.654 121.725C276.3 121.429 268.082 122.568 268.082 122.568C268.082 122.568 252.381 111.791 250.661 110.625C243.993 111.266 240.821 114.757 239.486 116.852L239.533 116.889C242.283 118.969 260.669 123.974 262.44 125.347Z" stroke="#263238" stroke-linecap="round" stroke-linejoin="round"/>
<path d="M221.03 43.5273L206.917 49.4171C206.746 51.8974 206.131 54.327 205.103 56.5906C203.435 60.1189 204.41 66.7958 206.012 70.399C207.615 74.0022 214.676 72.5918 217.258 72.142C219.009 71.8089 220.724 71.3084 222.379 70.6473C223.133 70.9378 223.948 71.0317 224.748 70.9202C225.548 70.8087 226.306 70.4955 226.952 70.0101C226.952 70.0101 219.399 48.808 221.03 43.5273Z" fill="white"/>
<mask id="mask14_49_6116" style="mask-type:luminance" maskUnits="userSpaceOnUse" x="204" y="43" width="23" height="30">
<path d="M221.03 43.5273L206.917 49.4171C206.746 51.8974 206.131 54.327 205.103 56.5906C203.435 60.1189 204.41 66.7958 206.012 70.399C207.615 74.0022 214.676 72.5918 217.258 72.142C219.009 71.8089 220.724 71.3084 222.379 70.6473C223.133 70.9378 223.948 71.0317 224.748 70.9202C225.548 70.8087 226.306 70.4955 226.952 70.0101C226.952 70.0101 219.399 48.808 221.03 43.5273Z" fill="white"/>
</mask>
<g mask="url(#mask14_49_6116)">
<path d="M221.03 43.5273L206.917 49.4171C206.746 51.8974 206.131 54.327 205.103 56.5906C203.435 60.1189 204.41 66.7958 206.012 70.399C206.281 70.9784 206.712 71.4669 207.254 71.8046V71.5329C207.254 71.5329 204.635 65.0434 205.131 61.2996C205.628 57.5559 207.755 55.677 208.004 53.3108C208.252 50.9446 208.126 49.82 212.872 48.0723C217.618 46.3246 219.61 44.7034 220.106 46.4464C220.603 48.1895 222.604 59.6784 223.977 62.4242C225.35 65.1699 225.223 68.0468 223.105 69.2885C220.965 70.5734 218.671 71.5841 216.278 72.2966L217.276 72.1233C219.027 71.7902 220.742 71.2896 222.398 70.6286C223.151 70.9191 223.967 71.013 224.767 70.9015C225.567 70.79 226.325 70.4768 226.971 69.9913C226.971 69.9913 219.399 48.808 221.03 43.5273Z" fill="#FCDBD6"/>
<path opacity="0.5" d="M221.03 43.5273L206.917 49.4171C206.746 51.8974 206.131 54.327 205.103 56.5906C203.435 60.1189 204.41 66.7958 206.012 70.399C206.281 70.9784 206.712 71.4669 207.254 71.8046V71.5329C207.254 71.5329 204.635 65.0434 205.131 61.2996C205.628 57.5559 207.755 55.677 208.004 53.3108C208.252 50.9446 208.126 49.82 212.872 48.0723C217.618 46.3246 219.61 44.7034 220.106 46.4464C220.603 48.1895 222.604 59.6784 223.977 62.4242C225.35 65.1699 225.223 68.0468 223.105 69.2885C220.965 70.5734 218.671 71.5841 216.278 72.2966L217.276 72.1233C219.027 71.7902 220.742 71.2896 222.398 70.6286C223.151 70.9191 223.967 71.013 224.767 70.9015C225.567 70.79 226.325 70.4768 226.971 69.9913C226.971 69.9913 219.399 48.808 221.03 43.5273Z" fill="white"/>
</g>
<path d="M221.03 43.5273L206.917 49.4171C206.746 51.8974 206.131 54.327 205.103 56.5906C203.435 60.1189 204.41 66.7958 206.012 70.399C207.615 74.0022 214.676 72.5918 217.258 72.142C219.009 71.8089 220.724 71.3084 222.379 70.6473C223.133 70.9378 223.948 71.0317 224.748 70.9202C225.548 70.8087 226.306 70.4955 226.952 70.0101C226.952 70.0101 219.399 48.808 221.03 43.5273Z" stroke="#263238" stroke-linecap="round" stroke-linejoin="round"/>
<path d="M213.898 52.7627C213.936 53.5924 213.833 54.4227 213.594 55.2179C213.219 56.155 209.681 59.8379 209.789 60.2362C209.897 60.6344 210.215 61.9136 210.843 62.0354" stroke="#263238" stroke-linecap="round" stroke-linejoin="round"/>
<path d="M217.82 56.0566C218.312 55.0726 219.928 56.0331 219.905 58.2494" stroke="#263238" stroke-linecap="round" stroke-linejoin="round"/>
<path d="M209.808 53.1609C209.808 53.1609 211.185 52.5564 212.417 54.7867" stroke="#263238" stroke-linecap="round" stroke-linejoin="round"/>
<path d="M215.861 59.3037C217.453 59.3838 218.967 60.0187 220.139 61.0983" stroke="#263238" stroke-width="0.5" stroke-linecap="round" stroke-linejoin="round"/>
<path d="M208.144 56.3752C208.967 56.4851 209.771 56.7074 210.534 57.0359" stroke="#263238" stroke-width="0.5" stroke-linecap="round" stroke-linejoin="round"/>
<path d="M213.744 50.6824C213.38 50.49 212.976 50.3848 212.565 50.375C212.153 50.3653 211.745 50.4512 211.373 50.6261C210.112 51.2306 209.339 51.8959 209.423 51.1228C209.508 50.3497 210.988 49.4969 211.434 49.3845C211.879 49.272 213.87 48.9628 213.744 50.6824Z" fill="#263238"/>
<path d="M217.276 48.9345C218.59 49.9973 219.634 51.3556 220.322 52.8985C221.259 55.2413 221.999 52.683 221.259 51.1508C220.519 49.6186 218.378 47.9881 217.276 48.9345Z" fill="#263238"/>
<path d="M227.158 74.0162C227.158 75.108 226.54 75.9936 225.781 75.9936C225.022 75.9936 224.408 75.108 224.408 74.0162C224.408 72.9245 225.022 70.146 225.781 70.146C226.54 70.146 227.158 72.9245 227.158 74.0162Z" fill="#FCDBD6" stroke="#263238" stroke-linecap="round" stroke-linejoin="round"/>
<path d="M217.942 55.6301C217.888 55.7733 217.846 55.9206 217.815 56.0706C217.679 56.764 217.543 58.2119 217.815 58.2728C218.087 58.3337 218.752 56.9796 218.869 56.2861C218.896 56.1501 218.912 56.0122 218.916 55.8738C218.597 55.7735 218.271 55.6922 217.942 55.6301Z" fill="#263238"/>
<path d="M209.948 53.025C209.907 53.1475 209.874 53.2727 209.85 53.3998C209.709 54.0933 209.714 55.6161 210.009 55.6723C210.304 55.7286 210.787 54.3042 210.923 53.6107C210.957 53.4425 210.976 53.2716 210.979 53.1C210.644 53.0077 210.293 52.9823 209.948 53.025Z" fill="#263238"/>
<path d="M217.82 56.08L218.289 55.2085C219.031 55.3532 219.704 55.7425 220.2 56.3143" stroke="#263238" stroke-width="0.75" stroke-linecap="round" stroke-linejoin="round"/>
<path d="M209.948 53.025L210.417 52.4768C210.417 52.4768 210.618 52.3784 211.724 52.8798" stroke="#263238" stroke-width="0.75" stroke-linecap="round" stroke-linejoin="round"/>
<path d="M208.172 65.7323C208.172 65.7323 208.96 64.2844 210.014 64.2844C211.068 64.2844 211.855 66.6506 211.855 66.6506" stroke="#263238" stroke-linecap="round" stroke-linejoin="round"/>
<path d="M174.244 128.172C173.226 128.121 172.225 127.883 171.293 127.469C171.163 127.421 171.044 127.347 170.943 127.252C170.843 127.156 170.763 127.041 170.708 126.914C170.653 126.786 170.625 126.649 170.625 126.511C170.625 126.372 170.654 126.235 170.708 126.108C170.763 125.98 170.843 125.865 170.944 125.77C171.044 125.675 171.163 125.601 171.293 125.553C171.423 125.505 171.562 125.484 171.7 125.491C171.839 125.498 171.974 125.534 172.098 125.595C173.036 125.993 174.249 126.241 174.572 126.101C175.167 125.436 176.081 121.415 174.9 119.476C174.633 119.045 174.385 118.965 174.221 118.946C173.551 118.852 172.558 119.541 172.206 119.883C172.108 119.976 171.993 120.048 171.868 120.095C171.742 120.143 171.608 120.166 171.474 120.162C171.339 120.158 171.207 120.128 171.084 120.073C170.961 120.018 170.851 119.939 170.758 119.841C170.666 119.743 170.594 119.628 170.546 119.502C170.498 119.377 170.476 119.243 170.48 119.108C170.484 118.974 170.514 118.842 170.569 118.719C170.624 118.596 170.703 118.486 170.801 118.393C170.983 118.215 172.675 116.692 174.479 116.936C174.926 117.001 175.352 117.169 175.725 117.426C176.097 117.682 176.405 118.022 176.625 118.417C178.363 121.251 177.173 126.644 175.838 127.713C175.373 128.041 174.812 128.203 174.244 128.172Z" fill="white"/>
<mask id="mask15_49_6116" style="mask-type:luminance" maskUnits="userSpaceOnUse" x="170" y="116" width="8" height="13">
<path d="M174.244 128.172C173.226 128.121 172.225 127.883 171.293 127.469C171.163 127.421 171.044 127.347 170.943 127.252C170.843 127.156 170.763 127.041 170.708 126.914C170.653 126.786 170.625 126.649 170.625 126.511C170.625 126.372 170.654 126.235 170.708 126.108C170.763 125.98 170.843 125.865 170.944 125.77C171.044 125.675 171.163 125.601 171.293 125.553C171.423 125.505 171.562 125.484 171.7 125.491C171.839 125.498 171.974 125.534 172.098 125.595C173.036 125.993 174.249 126.241 174.572 126.101C175.167 125.436 176.081 121.415 174.9 119.476C174.633 119.045 174.385 118.965 174.221 118.946C173.551 118.852 172.558 119.541 172.206 119.883C172.108 119.976 171.993 120.048 171.868 120.095C171.742 120.143 171.608 120.166 171.474 120.162C171.339 120.158 171.207 120.128 171.084 120.073C170.961 120.018 170.851 119.939 170.758 119.841C170.666 119.743 170.594 119.628 170.546 119.502C170.498 119.377 170.476 119.243 170.48 119.108C170.484 118.974 170.514 118.842 170.569 118.719C170.624 118.596 170.703 118.486 170.801 118.393C170.983 118.215 172.675 116.692 174.479 116.936C174.926 117.001 175.352 117.169 175.725 117.426C176.097 117.682 176.405 118.022 176.625 118.417C178.363 121.251 177.173 126.644 175.838 127.713C175.373 128.041 174.812 128.203 174.244 128.172Z" fill="white"/>
</mask>
<g mask="url(#mask15_49_6116)">
<path d="M175.617 119.166C175.494 118.875 175.302 118.619 175.057 118.42C174.812 118.22 174.522 118.084 174.212 118.023C173.04 117.836 171.939 119.012 171.817 119.143C171.705 119.278 171.636 119.443 171.619 119.618C171.601 119.792 171.636 119.968 171.719 120.122C171.903 120.085 172.074 119.998 172.211 119.869C172.562 119.541 173.556 118.852 174.226 118.932C174.39 118.932 174.638 119.031 174.905 119.462C176.086 121.383 175.172 125.422 174.577 126.087C174.254 126.228 173.045 125.979 172.103 125.581C171.987 125.532 171.863 125.505 171.738 125.501C171.746 125.63 171.787 125.754 171.855 125.863C171.924 125.972 172.019 126.062 172.131 126.124C172.724 126.441 173.377 126.626 174.048 126.668C174.43 126.686 174.805 126.555 175.092 126.302C175.973 125.492 176.751 121.345 175.617 119.166Z" fill="#FCDBD6"/>
<path opacity="0.5" d="M175.617 119.166C175.494 118.875 175.302 118.619 175.057 118.42C174.812 118.22 174.522 118.084 174.212 118.023C173.04 117.836 171.939 119.012 171.817 119.143C171.705 119.278 171.636 119.443 171.619 119.618C171.601 119.792 171.636 119.968 171.719 120.122C171.903 120.085 172.074 119.998 172.211 119.869C172.562 119.541 173.556 118.852 174.226 118.932C174.39 118.932 174.638 119.031 174.905 119.462C176.086 121.383 175.172 125.422 174.577 126.087C174.254 126.228 173.045 125.979 172.103 125.581C171.987 125.532 171.863 125.505 171.738 125.501C171.746 125.63 171.787 125.754 171.855 125.863C171.924 125.972 172.019 126.062 172.131 126.124C172.724 126.441 173.377 126.626 174.048 126.668C174.43 126.686 174.805 126.555 175.092 126.302C175.973 125.492 176.751 121.345 175.617 119.166Z" fill="white"/>
</g>
<path d="M174.244 128.172C173.226 128.121 172.225 127.883 171.293 127.469C171.163 127.421 171.044 127.347 170.943 127.252C170.843 127.156 170.763 127.041 170.708 126.914C170.653 126.786 170.625 126.649 170.625 126.511C170.625 126.372 170.654 126.235 170.708 126.108C170.763 125.98 170.843 125.865 170.944 125.77C171.044 125.675 171.163 125.601 171.293 125.553C171.423 125.505 171.562 125.484 171.7 125.491C171.839 125.498 171.974 125.534 172.098 125.595C173.036 125.993 174.249 126.241 174.572 126.101C175.167 125.436 176.081 121.415 174.9 119.476C174.633 119.045 174.385 118.965 174.221 118.946C173.551 118.852 172.558 119.541 172.206 119.883C172.108 119.976 171.993 120.048 171.868 120.095C171.742 120.143 171.608 120.166 171.474 120.162C171.339 120.158 171.207 120.128 171.084 120.073C170.961 120.018 170.851 119.939 170.758 119.841C170.666 119.743 170.594 119.628 170.546 119.502C170.498 119.377 170.476 119.243 170.48 119.108C170.484 118.974 170.514 118.842 170.569 118.719C170.624 118.596 170.703 118.486 170.801 118.393C170.983 118.215 172.675 116.692 174.479 116.936C174.926 117.001 175.352 117.169 175.725 117.426C176.097 117.682 176.405 118.022 176.625 118.417C178.363 121.251 177.173 126.644 175.838 127.713C175.373 128.041 174.812 128.203 174.244 128.172Z" stroke="#263238" stroke-linecap="round" stroke-linejoin="round"/>
<path d="M172.455 116.083H161.186V131.04H172.455V116.083Z" fill="white"/>
<mask id="mask16_49_6116" style="mask-type:luminance" maskUnits="userSpaceOnUse" x="161" y="116" width="12" height="16">
<path d="M172.455 116.083H161.186V131.04H172.455V116.083Z" fill="white"/>
</mask>
<g mask="url(#mask16_49_6116)">
<path d="M165.801 116.083H161.186V131.04H165.801V116.083Z" fill="#FCDBD6"/>
<path opacity="0.5" d="M165.801 116.083H161.186V131.04H165.801V116.083Z" fill="white"/>
</g>
<path d="M172.455 116.083H161.186V131.04H172.455V116.083Z" stroke="#263238" stroke-linecap="round" stroke-linejoin="round"/>
<path d="M307.797 130.529H127V134.919H307.797V130.529Z" fill="#263238"/>
<path d="M107.535 0H6.18587C2.76951 0 0 2.76951 0 6.18587V64.3374C0 67.7537 2.76951 70.5232 6.18587 70.5232H107.535C110.951 70.5232 113.721 67.7537 113.721 64.3374V6.18587C113.721 2.76951 110.951 0 107.535 0Z" fill="#FCDBD6"/>
<path d="M59.5346 40.5275C68.728 39.05 74.9829 30.3996 73.5055 21.2063C72.028 12.0129 63.3776 5.75797 54.1842 7.23544C44.9909 8.71292 38.7359 17.3633 40.2134 26.5567C41.6909 35.75 50.3413 42.005 59.5346 40.5275Z" fill="#263238"/>
<path d="M56.732 26.9982L51.114 34.2105C50.923 34.5108 50.6603 34.7588 50.3496 34.9322C50.0389 35.1057 49.6899 35.1991 49.3341 35.2042C48.846 35.2109 48.3751 35.0244 48.0238 34.6855C47.8452 34.5217 47.704 34.3214 47.6098 34.0981C47.5155 33.8748 47.4705 33.6338 47.4778 33.3916C47.4954 32.8491 47.6868 32.3266 48.0238 31.9011L54.428 23.979L48.4223 16.0515C48.1433 15.6795 47.9902 15.228 47.9856 14.763C47.9841 14.4856 48.0402 14.211 48.1501 13.9564C48.26 13.7017 48.4215 13.4726 48.6244 13.2834C48.8148 13.0845 49.0437 12.9263 49.2971 12.8184C49.5504 12.7105 49.8231 12.6551 50.0985 12.6555C50.4512 12.6613 50.7968 12.7552 51.1039 12.9288C51.411 13.1023 51.6697 13.35 51.8565 13.6492L57.2835 20.796L62.7432 13.7693C62.9384 13.4415 63.2114 13.1669 63.538 12.9697C63.8647 12.7726 64.2349 12.6591 64.6159 12.6392C64.8523 12.6386 65.0864 12.6868 65.3034 12.7807C65.5204 12.8746 65.7157 13.0123 65.8771 13.1851C66.0491 13.3471 66.1863 13.5426 66.2802 13.7594C66.374 13.9763 66.4227 14.21 66.423 14.4463C66.4172 14.8692 66.2713 15.2782 66.0081 15.6093L59.582 23.8316L65.7897 32.0212C66.0832 32.3872 66.2464 32.8406 66.2538 33.3097C66.2556 33.5809 66.1984 33.8493 66.0862 34.0963C65.974 34.3433 65.8095 34.563 65.6041 34.7401C65.2035 35.1253 64.6694 35.3406 64.1136 35.3407C63.7591 35.3363 63.4115 35.243 63.1024 35.0694C62.7934 34.8958 62.5328 34.6474 62.3446 34.347L56.732 26.9982Z" fill="white"/>
<path d="M88.9826 58.3099H24.7162C23.413 58.3099 22.1632 57.7922 21.2416 56.8707C20.3201 55.9492 19.8024 54.6994 19.8024 53.3962C19.8024 52.093 20.3201 50.8431 21.2416 49.9216C22.1632 49.0001 23.413 48.4824 24.7162 48.4824H88.9826C90.2858 48.4824 91.5356 49.0001 92.4571 49.9216C93.3786 50.8431 93.8963 52.093 93.8963 53.3962C93.8963 54.6994 93.3786 55.9492 92.4571 56.8707C91.5356 57.7922 90.2858 58.3099 88.9826 58.3099Z" fill="white"/>
<path d="M33.5228 54.9795C33.4799 54.9795 33.4375 54.9708 33.3981 54.9539C33.3586 54.937 33.3231 54.9122 33.2935 54.8812C33.2612 54.8491 33.2358 54.8108 33.2189 54.7685C33.202 54.7263 33.1939 54.681 33.1952 54.6355C33.1952 54.5586 33.2159 54.4831 33.2553 54.4171L33.7466 53.6528H32.7421C32.6956 53.6551 32.6492 53.6476 32.6059 53.6307C32.5626 53.6137 32.5234 53.5877 32.4909 53.5545C32.4348 53.4891 32.4039 53.4058 32.4039 53.3197C32.4039 53.2336 32.4348 53.1503 32.4909 53.0849C32.5234 53.0517 32.5626 53.0257 32.6059 53.0088C32.6492 52.9918 32.6956 52.9843 32.7421 52.9867L33.7303 53.014L33.2935 52.3042C33.2497 52.2315 33.2253 52.1488 33.2225 52.064C33.2212 52.0185 33.2293 51.9732 33.2462 51.9309C33.2631 51.8887 33.2885 51.8503 33.3208 51.8183C33.3514 51.7871 33.3879 51.7623 33.4282 51.7454C33.4686 51.7285 33.5118 51.7199 33.5555 51.72C33.6167 51.7191 33.6767 51.7362 33.7282 51.7692C33.7797 51.8023 33.8202 51.8497 33.8449 51.9056L34.3254 52.7628L34.784 51.9439C34.8129 51.8801 34.8587 51.8256 34.9165 51.7861C34.9742 51.7466 35.0417 51.7238 35.1116 51.72C35.1545 51.72 35.1969 51.7287 35.2363 51.7456C35.2757 51.7625 35.3113 51.7872 35.3409 51.8183C35.3729 51.8483 35.3982 51.8847 35.4151 51.9252C35.4321 51.9656 35.4402 52.0092 35.4392 52.053C35.4384 52.1306 35.4157 52.2063 35.3736 52.2714L34.8932 53.0413L35.8923 53.014C35.9388 53.0112 35.9853 53.0186 36.0287 53.0356C36.072 53.0525 36.1112 53.0787 36.1435 53.1122C36.1996 53.1776 36.2304 53.2609 36.2304 53.347C36.2304 53.4331 36.1996 53.5164 36.1435 53.5818C36.1112 53.6153 36.072 53.6415 36.0287 53.6585C35.9853 53.6754 35.9388 53.6828 35.8923 53.6801H34.8823L35.33 54.3789C35.3805 54.4632 35.4087 54.5591 35.4119 54.6573C35.4134 54.7016 35.406 54.7457 35.39 54.787C35.3741 54.8282 35.3499 54.8659 35.319 54.8976C35.2903 54.9282 35.2556 54.9527 35.2172 54.9696C35.1787 54.9865 35.1372 54.9954 35.0952 54.9958C35.0276 54.9942 34.9619 54.9733 34.9058 54.9356C34.8497 54.8978 34.8056 54.8449 34.7785 54.7829L34.3254 53.9803L33.8722 54.7829C33.8394 54.8461 33.7889 54.8984 33.7268 54.9333C33.6648 54.9682 33.5938 54.9843 33.5228 54.9795Z" fill="black"/>
<path d="M38.5348 54.9794C38.4919 54.9794 38.4495 54.9707 38.4101 54.9538C38.3706 54.9369 38.3351 54.9122 38.3055 54.8811C38.2732 54.8491 38.2478 54.8107 38.2309 54.7685C38.214 54.7262 38.206 54.681 38.2072 54.6355C38.2072 54.5586 38.2279 54.4831 38.2673 54.4171L38.7587 53.6527H37.7541C37.7076 53.6551 37.6612 53.6476 37.6179 53.6306C37.5746 53.6137 37.5354 53.5877 37.5029 53.5544C37.4468 53.4891 37.416 53.4058 37.416 53.3197C37.416 53.2335 37.4468 53.1502 37.5029 53.0849C37.5354 53.0516 37.5746 53.0257 37.6179 53.0087C37.6612 52.9918 37.7076 52.9842 37.7541 52.9866L38.7423 53.0139L38.2782 52.2769C38.2344 52.2042 38.21 52.1214 38.2072 52.0366C38.206 51.9911 38.214 51.9459 38.2309 51.9036C38.2478 51.8614 38.2732 51.823 38.3055 51.7909C38.3361 51.7597 38.3726 51.7349 38.4129 51.7181C38.4533 51.7012 38.4966 51.6926 38.5403 51.6927C38.6014 51.6918 38.6614 51.7089 38.7129 51.7419C38.7644 51.7749 38.805 51.8224 38.8296 51.8783L39.3101 52.7355L39.7687 51.9165C39.7976 51.8528 39.8434 51.7982 39.9012 51.7587C39.9589 51.7193 40.0264 51.6964 40.0963 51.6927C40.1392 51.6927 40.1816 51.7014 40.221 51.7183C40.2604 51.7352 40.296 51.7599 40.3256 51.7909C40.3576 51.8209 40.3829 51.8574 40.3998 51.8978C40.4168 51.9383 40.425 51.9819 40.4239 52.0257C40.4231 52.1032 40.4004 52.179 40.3584 52.2441L39.8779 53.0139L40.877 52.9866C40.9235 52.9839 40.97 52.9912 41.0134 53.0082C41.0567 53.0252 41.0959 53.0513 41.1282 53.0849C41.1843 53.1502 41.2152 53.2335 41.2152 53.3197C41.2152 53.4058 41.1843 53.4891 41.1282 53.5544C41.0959 53.588 41.0567 53.6141 41.0134 53.6311C40.97 53.6481 40.9235 53.6554 40.877 53.6527H39.867L40.3147 54.3516C40.3652 54.4359 40.3934 54.5317 40.3966 54.63C40.3981 54.6742 40.3907 54.7183 40.3748 54.7596C40.3588 54.8009 40.3347 54.8385 40.3038 54.8702C40.275 54.9009 40.2404 54.9254 40.2019 54.9423C40.1634 54.9592 40.1219 54.9681 40.0799 54.9685C40.0122 54.9675 39.9462 54.9469 39.8899 54.9091C39.8337 54.8713 39.7897 54.8179 39.7632 54.7556L39.3101 53.953L38.8569 54.7556C38.83 54.8196 38.7855 54.8747 38.7284 54.9143C38.6714 54.954 38.6042 54.9765 38.5348 54.9794Z" fill="black"/>
<path d="M43.5468 54.9794C43.504 54.9794 43.4615 54.9707 43.4221 54.9538C43.3827 54.9369 43.3471 54.9122 43.3175 54.8811C43.2852 54.8491 43.2598 54.8107 43.2429 54.7685C43.226 54.7262 43.218 54.681 43.2192 54.6355C43.2192 54.5586 43.2399 54.4831 43.2793 54.4171L43.7707 53.6527H42.7661C42.7197 53.6551 42.6732 53.6476 42.6299 53.6306C42.5866 53.6137 42.5474 53.5877 42.5149 53.5544C42.4588 53.4891 42.428 53.4058 42.428 53.3197C42.428 53.2335 42.4588 53.1502 42.5149 53.0849C42.5474 53.0516 42.5866 53.0257 42.6299 53.0087C42.6732 52.9918 42.7197 52.9842 42.7661 52.9866L43.7543 53.0139L43.2902 52.2769C43.2464 52.2042 43.222 52.1214 43.2192 52.0366C43.218 51.9911 43.226 51.9459 43.2429 51.9036C43.2598 51.8614 43.2852 51.823 43.3175 51.7909C43.3481 51.7597 43.3847 51.7349 43.425 51.7181C43.4653 51.7012 43.5086 51.6926 43.5523 51.6927C43.6134 51.6918 43.6735 51.7089 43.7249 51.7419C43.7764 51.7749 43.817 51.8224 43.8417 51.8783L44.3221 52.7355L44.7807 51.9165C44.8096 51.8528 44.8554 51.7982 44.9132 51.7587C44.971 51.7193 45.0385 51.6964 45.1083 51.6927C45.1512 51.6927 45.1936 51.7014 45.2331 51.7183C45.2725 51.7352 45.308 51.7599 45.3376 51.7909C45.3696 51.8209 45.3949 51.8574 45.4119 51.8978C45.4288 51.9383 45.437 51.9819 45.4359 52.0257C45.4352 52.1032 45.4125 52.179 45.3704 52.2441L44.8899 53.0139L45.8891 52.9866C45.9355 52.9839 45.9821 52.9912 46.0254 53.0082C46.0688 53.0252 46.1079 53.0513 46.1402 53.0849C46.1963 53.1502 46.2272 53.2335 46.2272 53.3197C46.2272 53.4058 46.1963 53.4891 46.1402 53.5544C46.1079 53.588 46.0688 53.6141 46.0254 53.6311C45.9821 53.6481 45.9355 53.6554 45.8891 53.6527H44.879L45.3267 54.3516C45.3772 54.4359 45.4054 54.5317 45.4086 54.63C45.4102 54.6742 45.4027 54.7183 45.3868 54.7596C45.3708 54.8009 45.3467 54.8385 45.3158 54.8702C45.287 54.9009 45.2524 54.9254 45.2139 54.9423C45.1754 54.9592 45.134 54.9681 45.0919 54.9685C45.0242 54.9675 44.9582 54.9469 44.902 54.9091C44.8457 54.8713 44.8017 54.8179 44.7753 54.7556L44.3221 53.953L43.869 54.7556C43.8421 54.8196 43.7975 54.8747 43.7404 54.9143C43.6834 54.954 43.6162 54.9765 43.5468 54.9794Z" fill="black"/>
<path d="M48.5806 54.9794C48.5377 54.9794 48.4953 54.9707 48.4559 54.9538C48.4165 54.9369 48.3809 54.9122 48.3513 54.8811C48.319 54.8491 48.2936 54.8107 48.2767 54.7685C48.2598 54.7262 48.2518 54.681 48.253 54.6355C48.253 54.5586 48.2737 54.4831 48.3131 54.4171L48.8045 53.6527H47.7999C47.7534 53.6551 47.707 53.6476 47.6637 53.6306C47.6204 53.6137 47.5812 53.5877 47.5487 53.5544C47.4926 53.4891 47.4618 53.4058 47.4618 53.3197C47.4618 53.2335 47.4926 53.1502 47.5487 53.0849C47.5812 53.0516 47.6204 53.0257 47.6637 53.0087C47.707 52.9918 47.7534 52.9842 47.7999 52.9866L48.7881 53.0139L48.324 52.2769C48.2802 52.2042 48.2558 52.1214 48.253 52.0366C48.2518 51.9911 48.2598 51.9459 48.2767 51.9036C48.2936 51.8614 48.319 51.823 48.3513 51.7909C48.3819 51.7597 48.4184 51.7349 48.4588 51.7181C48.4991 51.7012 48.5424 51.6926 48.5861 51.6927C48.6472 51.6918 48.7073 51.7089 48.7587 51.7419C48.8102 51.7749 48.8508 51.8224 48.8754 51.8783L49.3559 52.7355L49.8145 51.9165C49.8434 51.8528 49.8892 51.7982 49.947 51.7587C50.0047 51.7193 50.0722 51.6964 50.1421 51.6927C50.185 51.6927 50.2274 51.7014 50.2668 51.7183C50.3063 51.7352 50.3418 51.7599 50.3714 51.7909C50.4034 51.8209 50.4287 51.8574 50.4456 51.8978C50.4626 51.9383 50.4708 51.9819 50.4697 52.0257C50.469 52.1032 50.4462 52.179 50.4042 52.2441L49.9237 53.0139L50.9228 52.9866C50.9693 52.9839 51.0158 52.9912 51.0592 53.0082C51.1026 53.0252 51.1417 53.0513 51.174 53.0849C51.2301 53.1502 51.261 53.2335 51.261 53.3197C51.261 53.4058 51.2301 53.4891 51.174 53.5544C51.1417 53.588 51.1026 53.6141 51.0592 53.6311C51.0158 53.6481 50.9693 53.6554 50.9228 53.6527H49.9128L50.3605 54.3516C50.411 54.4359 50.4392 54.5317 50.4424 54.63C50.4439 54.6742 50.4365 54.7183 50.4206 54.7596C50.4046 54.8009 50.3805 54.8385 50.3496 54.8702C50.3208 54.9009 50.2862 54.9254 50.2477 54.9423C50.2092 54.9592 50.1677 54.9681 50.1257 54.9685C50.0581 54.9668 49.9924 54.9459 49.9363 54.9082C49.8802 54.8705 49.8361 54.8175 49.8091 54.7556L49.3559 53.953L48.9027 54.7556C48.8758 54.8196 48.8313 54.8747 48.7742 54.9143C48.7172 54.954 48.65 54.9765 48.5806 54.9794Z" fill="black"/>
<path d="M53.5708 54.9794C53.5279 54.9794 53.4855 54.9707 53.4461 54.9538C53.4067 54.9369 53.3711 54.9122 53.3415 54.8811C53.3092 54.8491 53.2838 54.8107 53.2669 54.7685C53.25 54.7262 53.2419 54.681 53.2432 54.6355C53.2458 54.559 53.2663 54.4841 53.3033 54.4171L53.7947 53.6527H52.7901C52.7436 53.6551 52.6972 53.6476 52.6539 53.6306C52.6106 53.6137 52.5714 53.5877 52.5389 53.5544C52.4828 53.4891 52.4519 53.4058 52.4519 53.3197C52.4519 53.2335 52.4828 53.1502 52.5389 53.0849C52.5714 53.0516 52.6106 53.0257 52.6539 53.0087C52.6972 52.9918 52.7436 52.9842 52.7901 52.9866L53.7783 53.0139L53.3142 52.2769C53.2704 52.2042 53.246 52.1215 53.2432 52.0366C53.2419 51.9911 53.25 51.9459 53.2669 51.9036C53.2838 51.8614 53.3092 51.823 53.3415 51.7909C53.3721 51.7597 53.4086 51.735 53.449 51.7181C53.4893 51.7012 53.5326 51.6926 53.5763 51.6927C53.6374 51.6918 53.6975 51.7089 53.7489 51.7419C53.8004 51.7749 53.841 51.8224 53.8656 51.8783L54.3461 52.7355L54.8047 51.9165C54.8336 51.8528 54.8794 51.7982 54.9372 51.7588C54.9949 51.7193 55.0624 51.6964 55.1323 51.6927C55.1753 51.692 55.2179 51.7004 55.2574 51.7174C55.2969 51.7343 55.3324 51.7594 55.3616 51.7909C55.3936 51.8209 55.4189 51.8574 55.4358 51.8978C55.4528 51.9383 55.461 51.9819 55.4599 52.0257C55.4592 52.1032 55.4364 52.179 55.3944 52.2441L54.9139 53.0139L55.913 52.9866C55.9595 52.9839 56.006 52.9912 56.0494 53.0082C56.0927 53.0252 56.1319 53.0513 56.1642 53.0849C56.2203 53.1502 56.2512 53.2335 56.2512 53.3197C56.2512 53.4058 56.2203 53.4891 56.1642 53.5544C56.1319 53.588 56.0927 53.6142 56.0494 53.6311C56.006 53.6481 55.9595 53.6555 55.913 53.6527H54.903L55.3507 54.3516C55.4012 54.4359 55.4294 54.5317 55.4326 54.63C55.4341 54.6742 55.4267 54.7183 55.4108 54.7596C55.3948 54.8009 55.3707 54.8385 55.3398 54.8702C55.311 54.9009 55.2764 54.9254 55.2379 54.9423C55.1994 54.9592 55.1579 54.9681 55.1159 54.9685C55.0483 54.9669 54.9826 54.9459 54.9265 54.9082C54.8704 54.8705 54.8263 54.8175 54.7992 54.7556L54.3461 53.953L53.8929 54.7556C53.866 54.8196 53.8215 54.8747 53.7644 54.9143C53.7074 54.954 53.6402 54.9765 53.5708 54.9794Z" fill="black"/>
<path d="M58.583 54.9794C58.5401 54.9794 58.4976 54.9707 58.4582 54.9538C58.4188 54.9369 58.3832 54.9122 58.3537 54.8811C58.3214 54.8491 58.296 54.8107 58.2791 54.7685C58.2622 54.7262 58.2541 54.681 58.2554 54.6355C58.2579 54.559 58.2785 54.4841 58.3154 54.4171L58.8068 53.6527H57.8077C57.7604 53.6555 57.713 53.6482 57.6688 53.6313C57.6245 53.6143 57.5844 53.5881 57.5511 53.5544C57.495 53.4891 57.4641 53.4058 57.4641 53.3197C57.4641 53.2335 57.495 53.1502 57.5511 53.0849C57.5844 53.0512 57.6245 53.025 57.6688 53.0081C57.713 52.9911 57.7604 52.9838 57.8077 52.9866L58.7904 53.0139L58.3264 52.2769C58.2826 52.2042 58.2581 52.1215 58.2554 52.0366C58.2541 51.9911 58.2622 51.9459 58.2791 51.9036C58.296 51.8614 58.3214 51.823 58.3537 51.7909C58.3842 51.7597 58.4208 51.735 58.4611 51.7181C58.5014 51.7012 58.5447 51.6926 58.5884 51.6927C58.6496 51.6918 58.7096 51.7089 58.7611 51.7419C58.8125 51.7749 58.8531 51.8224 58.8778 51.8783L59.3582 52.7355L59.8169 51.9165C59.8457 51.8528 59.8916 51.7982 59.9493 51.7588C60.0071 51.7193 60.0746 51.6964 60.1444 51.6927C60.1874 51.692 60.2301 51.7004 60.2696 51.7174C60.3091 51.7343 60.3446 51.7594 60.3738 51.7909C60.4058 51.8209 60.431 51.8574 60.448 51.8978C60.4649 51.9383 60.4731 51.9819 60.472 52.0257C60.4713 52.1032 60.4486 52.179 60.4065 52.2441L59.9261 53.0139L60.9252 52.9866C60.9717 52.9839 61.0182 52.9912 61.0615 53.0082C61.1049 53.0252 61.1441 53.0513 61.1763 53.0849C61.2325 53.1502 61.2633 53.2335 61.2633 53.3197C61.2633 53.4058 61.2325 53.4891 61.1763 53.5544C61.1441 53.588 61.1049 53.6142 61.0615 53.6311C61.0182 53.6481 60.9717 53.6555 60.9252 53.6527H59.9151L60.3628 54.3516C60.4133 54.4359 60.4415 54.5317 60.4447 54.63C60.4463 54.6742 60.4389 54.7183 60.4229 54.7596C60.407 54.8009 60.3828 54.8385 60.3519 54.8702C60.3232 54.9009 60.2885 54.9254 60.25 54.9423C60.2116 54.9592 60.1701 54.9681 60.1281 54.9685C60.0605 54.9669 59.9948 54.9459 59.9387 54.9082C59.8826 54.8705 59.8384 54.8175 59.8114 54.7556L59.3582 53.953L58.9051 54.7556C58.8782 54.8196 58.8336 54.8747 58.7766 54.9143C58.7195 54.954 58.6524 54.9765 58.583 54.9794Z" fill="black"/>
<path d="M63.595 54.9795C63.5521 54.9795 63.5097 54.9708 63.4702 54.9539C63.4308 54.937 63.3952 54.9122 63.3657 54.8812C63.3334 54.8491 63.308 54.8108 63.2911 54.7685C63.2742 54.7263 63.2661 54.681 63.2674 54.6355C63.2673 54.5586 63.2881 54.4832 63.3275 54.4171L63.8188 53.6528H62.8142C62.7678 53.6551 62.7214 53.6476 62.6781 53.6307C62.6348 53.6137 62.5956 53.5877 62.5631 53.5545C62.507 53.4891 62.4761 53.4058 62.4761 53.3197C62.4761 53.2336 62.507 53.1503 62.5631 53.0849C62.5956 53.0517 62.6348 53.0257 62.6781 53.0088C62.7214 52.9918 62.7678 52.9843 62.8142 52.9867L63.8025 53.014L63.322 52.3042C63.2782 52.2315 63.2538 52.1488 63.251 52.064C63.2497 52.0185 63.2578 51.9732 63.2747 51.9309C63.2916 51.8887 63.317 51.8504 63.3493 51.8183C63.3799 51.7871 63.4164 51.7623 63.4567 51.7454C63.4971 51.7285 63.5404 51.7199 63.5841 51.72C63.6452 51.7191 63.7052 51.7362 63.7567 51.7692C63.8082 51.8023 63.8488 51.8497 63.8734 51.9056L64.3539 52.7628L64.8125 51.9439C64.8414 51.8801 64.8872 51.8256 64.945 51.7861C65.0027 51.7466 65.0702 51.7238 65.1401 51.72C65.1831 51.7193 65.2257 51.7278 65.2652 51.7447C65.3047 51.7616 65.3402 51.7867 65.3694 51.8183C65.4014 51.8483 65.4267 51.8847 65.4436 51.9252C65.4606 51.9656 65.4688 52.0092 65.4677 52.0531C65.4669 52.1306 65.4442 52.2063 65.4022 52.2714L64.9217 53.0413L65.9208 53.014C65.9673 53.0112 66.0138 53.0186 66.0572 53.0356C66.1005 53.0525 66.1397 53.0787 66.172 53.1122C66.2281 53.1776 66.2589 53.2609 66.2589 53.347C66.2589 53.4331 66.2281 53.5164 66.172 53.5818C66.1397 53.6153 66.1005 53.6415 66.0572 53.6585C66.0138 53.6754 65.9673 53.6828 65.9208 53.6801H64.9108L65.3585 54.3789C65.409 54.4632 65.4372 54.5591 65.4404 54.6573C65.4419 54.7016 65.4345 54.7457 65.4186 54.787C65.4026 54.8282 65.3784 54.8659 65.3476 54.8976C65.3188 54.9282 65.2842 54.9527 65.2457 54.9696C65.2072 54.9865 65.1657 54.9954 65.1237 54.9958C65.0561 54.9942 64.9904 54.9733 64.9343 54.9356C64.8782 54.8978 64.8341 54.8449 64.807 54.7829L64.3539 53.9803L63.9007 54.7829C63.8713 54.8395 63.8276 54.8874 63.774 54.9219C63.7204 54.9563 63.6587 54.9762 63.595 54.9795Z" fill="black"/>
<path d="M68.6069 54.9795C68.564 54.9795 68.5216 54.9708 68.4821 54.9539C68.4427 54.937 68.4071 54.9123 68.3776 54.8813C68.3453 54.8492 68.3199 54.8109 68.303 54.7686C68.2861 54.7263 68.278 54.6811 68.2793 54.6356C68.2818 54.5591 68.3024 54.4842 68.3394 54.4172L68.8307 53.6528H67.8316C67.785 53.6563 67.7383 53.6493 67.6948 53.6323C67.6514 53.6153 67.6123 53.5887 67.5804 53.5545C67.521 53.4908 67.4879 53.4069 67.4879 53.3198C67.4879 53.2326 67.521 53.1487 67.5804 53.085C67.6123 53.0508 67.6514 53.0243 67.6948 53.0073C67.7383 52.9902 67.785 52.9832 67.8316 52.9867L68.8143 53.014L68.3503 52.277C68.3065 52.2043 68.282 52.1216 68.2793 52.0367C68.2778 51.9921 68.2854 51.9476 68.3014 51.9059C68.3175 51.8643 68.3418 51.8262 68.3729 51.7942C68.404 51.7621 68.4412 51.7366 68.4823 51.7191C68.5234 51.7017 68.5677 51.6928 68.6123 51.6928C68.6735 51.6919 68.7335 51.709 68.785 51.742C68.8364 51.775 68.877 51.8225 68.9017 51.8784L69.3822 52.7356L69.8408 51.9166C69.8697 51.8529 69.9155 51.7983 69.9732 51.7589C70.031 51.7194 70.0985 51.6965 70.1684 51.6928C70.2114 51.6914 70.2543 51.6995 70.2939 51.7165C70.3335 51.7335 70.3689 51.7589 70.3977 51.7911C70.4297 51.8211 70.455 51.8575 70.4719 51.8979C70.4888 51.9384 70.497 51.982 70.4959 52.0258C70.4952 52.1034 70.4725 52.1791 70.4304 52.2442L69.95 53.014L70.9491 52.9867C70.9956 52.984 71.0421 52.9914 71.0855 53.0083C71.1288 53.0253 71.168 53.0515 71.2002 53.085C71.2564 53.1504 71.2872 53.2336 71.2872 53.3198C71.2872 53.4059 71.2564 53.4892 71.2002 53.5545C71.168 53.5881 71.1288 53.6143 71.0855 53.6312C71.0421 53.6482 70.9956 53.6556 70.9491 53.6528H69.939L70.3867 54.3517C70.4373 54.436 70.4654 54.5318 70.4686 54.6301C70.4701 54.6731 70.4631 54.716 70.4479 54.7563C70.4328 54.7966 70.4099 54.8336 70.3805 54.865C70.3511 54.8964 70.3157 54.9218 70.2765 54.9395C70.2373 54.9573 70.195 54.9672 70.152 54.9686C70.0844 54.967 70.0187 54.9461 69.9626 54.9083C69.9065 54.8706 69.8623 54.8176 69.8353 54.7557L69.3822 53.9531L68.929 54.7557C68.9021 54.8197 68.8575 54.8748 68.8005 54.9144C68.7434 54.9541 68.6763 54.9767 68.6069 54.9795Z" fill="black"/>
<path d="M73.6189 54.9795C73.576 54.9795 73.5336 54.9708 73.4942 54.9539C73.4547 54.937 73.4192 54.9123 73.3896 54.8813C73.3573 54.8492 73.3319 54.8109 73.315 54.7686C73.2981 54.7263 73.29 54.6811 73.2913 54.6356C73.2939 54.5591 73.3144 54.4842 73.3514 54.4172L73.8427 53.6528H72.8382C72.7925 53.6555 72.7468 53.6481 72.7043 53.6311C72.6619 53.6141 72.6237 53.588 72.5925 53.5545C72.533 53.4908 72.4999 53.4069 72.4999 53.3198C72.4999 53.2326 72.533 53.1487 72.5925 53.085C72.6237 53.0516 72.6619 53.0254 72.7043 53.0085C72.7468 52.9915 72.7925 52.9841 72.8382 52.9867L73.8264 53.014L73.3623 52.277C73.3185 52.2043 73.2941 52.1216 73.2913 52.0367C73.2899 51.9921 73.2974 51.9476 73.3135 51.9059C73.3295 51.8643 73.3538 51.8262 73.3849 51.7942C73.416 51.7621 73.4532 51.7366 73.4943 51.7191C73.5355 51.7017 73.5797 51.6928 73.6244 51.6928C73.6855 51.6919 73.7455 51.709 73.797 51.742C73.8485 51.775 73.8891 51.8225 73.9137 51.8784L74.3942 52.7356L74.8528 51.9166C74.8817 51.8529 74.9275 51.7983 74.9853 51.7589C75.043 51.7194 75.1105 51.6965 75.1804 51.6928C75.2235 51.6914 75.2663 51.6995 75.3059 51.7165C75.3456 51.7335 75.381 51.7589 75.4097 51.7911C75.4417 51.8211 75.467 51.8575 75.4839 51.8979C75.5009 51.9384 75.5091 51.982 75.508 52.0258C75.5072 52.1034 75.4845 52.1791 75.4425 52.2442L74.962 53.014L75.9611 52.9867C76.0076 52.984 76.0541 52.9914 76.0975 53.0083C76.1408 53.0253 76.18 53.0515 76.2123 53.085C76.2684 53.1504 76.2992 53.2336 76.2992 53.3198C76.2992 53.4059 76.2684 53.4892 76.2123 53.5545C76.18 53.5881 76.1408 53.6143 76.0975 53.6312C76.0541 53.6482 76.0076 53.6556 75.9611 53.6528H74.9511L75.3988 54.3517C75.4493 54.436 75.4775 54.5318 75.4807 54.6301C75.4821 54.6731 75.4751 54.716 75.46 54.7563C75.4448 54.7966 75.4219 54.8336 75.3925 54.865C75.3631 54.8964 75.3278 54.9218 75.2886 54.9395C75.2494 54.9573 75.207 54.9672 75.164 54.9686C75.0964 54.967 75.0307 54.9461 74.9746 54.9083C74.9185 54.8706 74.8743 54.8176 74.8473 54.7557L74.3942 53.9531L73.941 54.7557C73.9141 54.8197 73.8695 54.8748 73.8125 54.9144C73.7555 54.9541 73.6883 54.9767 73.6189 54.9795Z" fill="black"/>
<path d="M78.6091 54.9795C78.5663 54.9795 78.5238 54.9708 78.4844 54.9539C78.445 54.937 78.4094 54.9123 78.3798 54.8813C78.3475 54.8492 78.3222 54.8109 78.3053 54.7686C78.2883 54.7263 78.2803 54.6811 78.2816 54.6356C78.2841 54.5591 78.3047 54.4842 78.3416 54.4172L78.833 53.6528H77.8284C77.7828 53.6555 77.7371 53.6481 77.6946 53.6311C77.6521 53.6141 77.6139 53.588 77.5827 53.5545C77.5232 53.4908 77.4901 53.4069 77.4901 53.3198C77.4901 53.2326 77.5232 53.1487 77.5827 53.085C77.6139 53.0516 77.6521 53.0254 77.6946 53.0085C77.7371 52.9915 77.7828 52.9841 77.8284 52.9867L78.8166 53.014L78.3525 52.277C78.3088 52.2043 78.2843 52.1216 78.2816 52.0367C78.2803 51.9912 78.2883 51.946 78.3053 51.9037C78.3222 51.8615 78.3475 51.8231 78.3798 51.7911C78.4104 51.7598 78.447 51.7351 78.4873 51.7182C78.5276 51.7013 78.5709 51.6927 78.6146 51.6928C78.6757 51.6919 78.7358 51.709 78.7872 51.742C78.8387 51.775 78.8793 51.8225 78.904 51.8784L79.3844 52.7356L79.843 51.9166C79.8719 51.8529 79.9177 51.7983 79.9755 51.7589C80.0333 51.7194 80.1008 51.6965 80.1706 51.6928C80.2137 51.6914 80.2566 51.6995 80.2962 51.7165C80.3358 51.7335 80.3712 51.7589 80.3999 51.7911C80.4319 51.8211 80.4572 51.8575 80.4742 51.8979C80.4911 51.9384 80.4993 51.982 80.4982 52.0258C80.4975 52.1034 80.4748 52.1791 80.4327 52.2442L79.9522 53.014L80.9514 52.9867C80.9978 52.984 81.0444 52.9914 81.0877 53.0083C81.1311 53.0253 81.1702 53.0515 81.2025 53.085C81.2586 53.1504 81.2895 53.2336 81.2895 53.3198C81.2895 53.4059 81.2586 53.4892 81.2025 53.5545C81.1702 53.5881 81.1311 53.6143 81.0877 53.6312C81.0444 53.6482 80.9978 53.6556 80.9514 53.6528H79.9413L80.389 54.3517C80.4395 54.436 80.4677 54.5318 80.4709 54.6301C80.4725 54.6743 80.4651 54.7184 80.4491 54.7597C80.4332 54.801 80.409 54.8386 80.3781 54.8703C80.3493 54.901 80.3147 54.9255 80.2762 54.9424C80.2377 54.9593 80.1963 54.9682 80.1542 54.9686C80.0867 54.967 80.021 54.9461 79.9649 54.9083C79.9088 54.8706 79.8646 54.8176 79.8376 54.7557L79.3844 53.9531L78.9313 54.7557C78.9044 54.8197 78.8598 54.8748 78.8028 54.9144C78.7457 54.9541 78.6786 54.9767 78.6091 54.9795Z" fill="black"/>
<path d="M95.7855 67.0562H102.463" stroke="white" stroke-width="3" stroke-linecap="round" stroke-linejoin="round"/>
<path d="M3.17208 17.8916V62.2409C3.17208 63.5253 3.6823 64.7571 4.5905 65.6653C5.49869 66.5735 6.73047 67.0837 8.01485 67.0837H89.4466" stroke="white" stroke-width="3" stroke-linecap="round" stroke-linejoin="round"/>
<path d="M3.17208 6.13135V12.7813" stroke="white" stroke-width="3" stroke-linecap="round" stroke-linejoin="round"/>
</svg>
