<svg width="463" height="381" viewBox="0 0 463 381" fill="none" xmlns="http://www.w3.org/2000/svg">
<path d="M231.505 380.167C359.361 380.167 463.009 374.055 463.009 366.515C463.009 358.976 359.361 352.864 231.505 352.864C103.648 352.864 0 358.976 0 366.515C0 374.055 103.648 380.167 231.505 380.167Z" fill="#F5F5F5"/>
<path d="M304.673 346.906L295.599 344.663L298.309 322.834L307.395 325.077L304.673 346.906Z" fill="#FFB573"/>
<path d="M383.763 356.879H374.414L367.143 335.015H376.48L383.763 356.879Z" fill="#FFB573"/>
<path d="M373.173 355.782H384.563C384.748 355.782 384.928 355.846 385.073 355.961C385.218 356.077 385.32 356.239 385.363 356.421L387.214 364.863C387.257 365.068 387.254 365.28 387.205 365.483C387.156 365.686 387.061 365.876 386.929 366.037C386.797 366.198 386.631 366.327 386.442 366.414C386.254 366.501 386.048 366.544 385.841 366.54C382.175 366.479 379.501 366.262 374.88 366.262C372.038 366.262 363.477 366.564 359.549 366.564C355.621 366.564 355.119 362.644 356.719 362.282C363.883 360.702 369.352 358.508 371.656 356.409C372.067 356.018 372.608 355.794 373.173 355.782Z" fill="#263238"/>
<path d="M295.981 343.626L305.891 346.038C306.071 346.084 306.23 346.19 306.342 346.339C306.455 346.487 306.515 346.67 306.512 346.858L306.333 355.456C306.33 355.664 306.281 355.868 306.189 356.054C306.097 356.239 305.964 356.401 305.8 356.526C305.637 356.652 305.447 356.738 305.245 356.779C305.044 356.819 304.836 356.812 304.637 356.759C301.055 355.818 295.957 354.347 291.503 353.225C286.249 351.923 281.641 351.091 275.48 349.607C271.754 348.691 271.635 344.627 273.283 344.675C280.757 344.856 286.608 346.122 293.664 343.806C294.405 343.533 295.207 343.471 295.981 343.626Z" fill="#263238"/>
<path d="M341.221 73.0955C340.576 75.0493 339.956 76.7135 339.251 78.5105C338.547 80.3074 337.842 81.9958 337.09 83.7204C335.597 87.1696 333.938 90.5464 332.123 93.899C330.286 97.2893 328.252 100.567 326.034 103.716C323.714 107.052 321.048 110.129 318.081 112.894C317.281 113.605 316.482 114.317 315.586 114.98C315.108 115.33 314.762 115.619 314.177 115.993C313.623 116.369 313.049 116.716 312.458 117.03C309.978 118.362 307.206 119.038 304.398 118.996C301.822 118.939 299.283 118.357 296.936 117.283C294.91 116.351 293.002 115.176 291.252 113.786C288.149 111.256 285.38 108.334 283.014 105.091C281.82 103.547 280.817 101.931 279.814 100.267C278.796 98.6304 277.868 96.9395 277.032 95.2015L283.002 91.4629C284.029 92.6689 285.211 94.0196 286.357 95.2498C287.503 96.4799 288.745 97.6618 289.939 98.8678C292.231 101.09 294.757 103.052 297.473 104.717C299.992 106.224 302.559 106.972 304.147 106.719C304.921 106.6 305.656 106.303 306.297 105.851C306.484 105.725 306.664 105.589 306.834 105.44C306.989 105.32 307.324 105.018 307.55 104.813C308.099 104.345 308.621 103.845 309.115 103.318C313.174 99.0245 316.673 93.1754 319.717 87.1696C321.258 84.1425 322.678 81.019 324.063 77.8834C324.744 76.3035 325.413 74.7116 326.045 73.1197C326.678 71.5278 327.323 69.8635 327.86 68.4163L341.221 73.0955Z" fill="#FFB573"/>
<path d="M345.018 68.4525C347.012 77.2443 327.92 99.7482 327.92 99.7482L310.75 87.0611C314.55 79.753 319.117 72.8794 324.374 66.5591C332.242 57.6468 342.809 58.8045 345.018 68.4525Z" fill="#407BFF"/>
<path opacity="0.2" d="M325.831 83.2018C323.981 86.9141 322.385 90.7501 321.055 94.683L327.92 99.7482C327.92 99.7482 339.263 86.3977 343.538 76.2312C338.379 71.7569 330.32 74.3016 325.831 83.2018Z" fill="black"/>
<path d="M283.921 92.8016L279.563 86.9043L272.172 95.7081C272.172 95.7081 276.65 100.243 282.19 98.4698L283.921 92.8016Z" fill="#FFB573"/>
<path d="M269.832 83.6602L267.384 93.7664L272.172 95.7081L279.563 86.9043L269.832 83.6602Z" fill="#FFB573"/>
<path opacity="0.2" d="M298.309 322.834L296.912 334.098L305.998 336.329L307.395 325.077L298.309 322.834Z" fill="black"/>
<path opacity="0.2" d="M376.492 335.015H367.143L370.892 346.291H380.241L376.492 335.015Z" fill="black"/>
<path d="M386.832 67.1381C383.446 77.1278 380.804 87.359 378.928 97.7464C377.578 104.982 376.54 111.917 375.871 118.248C374.152 133.01 373.758 144.322 373.077 148.121L323.538 141.379C320.183 87.3506 334.881 60.5774 334.881 60.5774C338.862 60.086 342.87 59.8484 346.881 59.8659C347.728 59.8659 348.588 59.8659 349.46 59.9262C356.529 60.4699 363.561 61.4242 370.522 62.7844C371.847 63.0377 373.185 63.3151 374.474 63.6166C381.065 65.1241 386.832 67.1381 386.832 67.1381Z" fill="#407BFF"/>
<path opacity="0.2" d="M350.2 74.0364C341.126 72.8304 337.066 75.4836 336.338 78.8604C333.424 92.0299 343.502 104.295 343.502 104.295C343.502 104.295 358.295 95.2379 361.209 82.0684C361.961 78.6916 359.263 75.2062 350.2 74.0364Z" fill="black"/>
<path d="M344.517 99.6999C342.033 95.8286 337.711 87.6399 339.55 79.1979C339.896 77.6663 343.406 76.5206 349.46 77.3045C355.513 78.0884 358.331 80.0541 357.997 81.5858C356.146 90.0519 348.517 96.6969 344.517 99.6999Z" fill="white"/>
<path opacity="0.2" d="M378.928 97.7463C377.579 104.982 376.54 111.917 375.871 118.248L369.173 102.594L378.928 97.7463Z" fill="black"/>
<path d="M371.632 38.5317C369.388 45.1889 366.391 57.5504 370.522 62.7603C368.148 64.6869 365.391 66.075 362.439 66.8304C359.486 67.5857 356.408 67.6907 353.412 67.1381C347.597 66.2215 347.86 62.0608 349.46 59.9624C357.257 59.1664 357.818 53.4741 357.221 47.9747L371.632 38.5317Z" fill="#FFB573"/>
<path opacity="0.2" d="M365.758 42.3667L357.221 47.9143C357.381 49.1939 357.429 50.4853 357.364 51.7735C360.313 51.7735 364.707 49.0841 365.412 46.0812C365.745 44.8736 365.862 43.6158 365.758 42.3667Z" fill="black"/>
<path d="M354.487 11.7826C347.251 11.1917 344.744 28.7993 349.257 32.1761C353.77 35.5529 368.038 12.868 354.487 11.7826Z" fill="#263238"/>
<path d="M373.817 28.341C372.015 37.5307 371.429 43.006 366.152 47.1305C358.224 53.3293 347.466 47.5526 346.511 38.0011C345.651 29.4023 348.743 15.8227 358.212 13.3504C360.299 12.796 362.492 12.7897 364.582 13.3323C366.672 13.8748 368.59 14.9481 370.153 16.4502C371.717 17.9523 372.875 19.8333 373.516 21.9145C374.157 23.9956 374.261 26.2079 373.817 28.341Z" fill="#FFB573"/>
<path d="M371.955 37.3378C367.477 40.1598 363.692 11.9395 375.596 15.6298C394.927 21.6719 377.292 33.9851 371.955 37.3378Z" fill="#263238"/>
<path d="M371.979 20.8638C369.268 17.487 352.791 19.5251 345.197 14.4961C337.603 9.46704 342.415 -1.59198 356.313 0.192902C349.842 0.952682 351.024 6.4038 355.466 6.35556C359.907 6.30732 370.128 0.747661 374.57 5.48724C380.766 12.072 383.871 8.16456 386.963 11.9032C391.501 17.2819 377.853 28.2083 371.979 20.8638Z" fill="#263238"/>
<path d="M376.588 39.1225C375.847 40.0184 374.938 40.7576 373.913 41.2978C372.889 41.8379 371.769 42.1684 370.618 42.2702C367.537 42.5355 366.57 39.6049 367.919 36.9758C369.113 34.5638 372.194 31.6212 375.083 32.598C377.973 33.5749 378.367 36.8793 376.588 39.1225Z" fill="#FFB573"/>
<path d="M294.022 331.131L309.401 334.87C309.401 334.87 319.311 281.963 323.908 252.862C325.305 244.022 328.421 231.793 332.195 218.732C336.971 202.282 342.738 184.53 347.43 170.649C352.385 156.02 356.098 145.673 356.098 145.673L323.538 141.247C323.538 141.247 298.727 218.177 295.981 246.832C293.019 276.656 294.022 331.131 294.022 331.131Z" fill="#263238"/>
<path opacity="0.2" d="M332.195 218.829C336.971 202.379 342.738 184.626 347.43 170.745L344.505 163.135C335.765 172.349 331.669 202.355 332.195 218.829Z" fill="black"/>
<path d="M341.102 143.731C341.102 143.731 339.49 224.617 341.687 252.187C344.075 282.337 366.498 344.108 366.498 344.108H383.62C383.62 344.108 372.194 287.607 368.695 258.289C364.707 224.883 373.065 148.085 373.065 148.085L341.102 143.731Z" fill="#263238"/>
<path d="M364.456 344.482H384.611V338.404L362.08 338.006L364.456 344.482Z" fill="#407BFF"/>
<path d="M292.005 331.023L310.32 335.545L311.765 329.563L291.372 324.197L292.005 331.023Z" fill="#407BFF"/>
<path d="M359.549 29.0404C359.454 29.7882 358.976 30.3429 358.486 30.2464C357.997 30.15 357.674 29.5108 357.782 28.7631C357.889 28.0153 358.355 27.4485 358.845 27.5571C359.334 27.6656 359.645 28.2807 359.549 29.0404Z" fill="#263238"/>
<path d="M351.107 27.8825C351 28.6423 350.522 29.1971 350.033 29.0885C349.543 28.98 349.233 28.3529 349.34 27.5931C349.448 26.8333 349.913 26.2786 350.403 26.3871C350.893 26.4957 351.203 27.1348 351.107 27.8825Z" fill="#263238"/>
<path d="M353.734 28.6304C352.542 30.838 351.051 32.8674 349.305 34.6604C349.763 35.1064 350.313 35.4455 350.915 35.6539C351.518 35.8623 352.158 35.9348 352.791 35.8664L353.734 28.6304Z" fill="#ED893E"/>
<path d="M355.681 38.194C355.353 38.193 355.026 38.1688 354.701 38.1216C354.672 38.1187 354.643 38.1097 354.618 38.0952C354.592 38.0806 354.569 38.0609 354.551 38.0371C354.533 38.0133 354.52 37.986 354.513 37.957C354.506 37.928 354.505 37.8978 354.51 37.8683C354.515 37.8396 354.525 37.8121 354.54 37.7874C354.555 37.7627 354.575 37.7413 354.598 37.7244C354.621 37.7075 354.648 37.6956 354.676 37.6892C354.704 37.6829 354.733 37.6823 354.761 37.6874C355.688 37.8332 356.636 37.7564 357.528 37.463C358.42 37.1697 359.231 36.6681 359.895 35.999C359.937 35.9592 359.993 35.937 360.051 35.937C360.108 35.937 360.164 35.9592 360.206 35.999C360.227 36.0193 360.243 36.0436 360.255 36.0706C360.266 36.0975 360.272 36.1265 360.272 36.1558C360.272 36.1851 360.266 36.2141 360.255 36.2411C360.243 36.268 360.227 36.2923 360.206 36.3126C359.617 36.9195 358.912 37.3992 358.134 37.7226C357.356 38.046 356.522 38.2064 355.681 38.194Z" fill="#263238"/>
<path d="M362.522 26.6405C362.444 26.6411 362.367 26.62 362.3 26.5796C362.232 26.5393 362.177 26.4811 362.14 26.4113C361.878 25.9161 361.505 25.4894 361.051 25.165C360.597 24.8405 360.075 24.6273 359.525 24.542C359.467 24.539 359.41 24.5243 359.358 24.499C359.305 24.4737 359.258 24.4382 359.22 24.3945C359.181 24.3508 359.151 24.2998 359.132 24.2444C359.112 24.189 359.104 24.1303 359.107 24.0717C359.117 23.9544 359.17 23.8452 359.257 23.7666C359.343 23.688 359.457 23.6462 359.573 23.6496C360.27 23.7408 360.936 23.9984 361.516 24.401C362.095 24.8037 362.571 25.3398 362.904 25.9651C362.934 26.0164 362.953 26.0732 362.961 26.1321C362.968 26.191 362.964 26.2509 362.949 26.3082C362.933 26.3655 362.906 26.419 362.87 26.4657C362.834 26.5125 362.789 26.5514 362.737 26.5802C362.671 26.6167 362.598 26.6374 362.522 26.6405Z" fill="#263238"/>
<path d="M347.86 24.4575C347.771 24.4562 347.685 24.4312 347.609 24.3852C347.512 24.3169 347.446 24.2132 347.423 24.0961C347.401 23.979 347.425 23.8577 347.49 23.7581C347.867 23.159 348.38 22.6594 348.986 22.3008C349.592 21.9421 350.275 21.7347 350.976 21.6958C351.093 21.6958 351.206 21.7428 351.289 21.8265C351.371 21.9102 351.418 22.0237 351.418 22.142C351.418 22.2604 351.371 22.3739 351.289 22.4575C351.206 22.5412 351.093 22.5882 350.976 22.5882C350.419 22.6208 349.879 22.7892 349.4 23.0791C348.922 23.3689 348.52 23.7716 348.23 24.2525C348.19 24.3152 348.135 24.3668 348.071 24.4026C348.006 24.4384 347.934 24.4573 347.86 24.4575Z" fill="#263238"/>
<path d="M370.08 357.434C369.443 357.482 368.808 357.312 368.277 356.952C368.108 356.805 367.978 356.618 367.899 356.407C367.819 356.196 367.794 355.969 367.824 355.746C367.822 355.614 367.857 355.484 367.925 355.372C367.992 355.259 368.09 355.167 368.206 355.107C369.232 354.576 372.253 356.445 372.588 356.662C372.627 356.684 372.659 356.718 372.678 356.759C372.697 356.801 372.703 356.847 372.695 356.892C372.687 356.935 372.667 356.975 372.638 357.007C372.608 357.039 372.57 357.062 372.528 357.072C371.728 357.285 370.907 357.407 370.08 357.434ZM368.695 355.48C368.601 355.459 368.503 355.459 368.409 355.48C368.363 355.507 368.325 355.546 368.3 355.593C368.275 355.64 368.263 355.693 368.265 355.746C368.242 355.895 368.258 356.048 368.31 356.189C368.362 356.331 368.45 356.456 368.564 356.554C369.608 357.037 370.796 357.097 371.883 356.723C370.91 356.104 369.827 355.682 368.695 355.48Z" fill="#407BFF"/>
<path d="M372.48 357.097H372.373C371.405 356.566 369.531 354.492 369.734 353.479C369.765 353.313 369.852 353.163 369.98 353.055C370.109 352.947 370.271 352.888 370.438 352.888C370.607 352.869 370.777 352.885 370.939 352.935C371.101 352.985 371.252 353.067 371.382 353.177C372.468 354.082 372.683 356.795 372.695 356.916C372.698 356.955 372.691 356.995 372.674 357.031C372.657 357.067 372.632 357.098 372.599 357.121C372.558 357.124 372.517 357.115 372.48 357.097ZM370.594 353.274H370.486C370.2 353.274 370.176 353.442 370.164 353.503C370.044 354.13 371.238 355.686 372.205 356.421C372.14 355.345 371.753 354.315 371.095 353.467C370.957 353.342 370.779 353.273 370.594 353.274Z" fill="#407BFF"/>
<path d="M294.715 344.663C293.175 344.602 290.488 344.325 289.7 343.179C289.588 343.013 289.517 342.823 289.492 342.624C289.467 342.425 289.489 342.222 289.557 342.034C289.592 341.915 289.656 341.807 289.744 341.72C289.832 341.634 289.94 341.571 290.058 341.539C291.312 341.177 294.5 343.951 294.834 344.277C294.865 344.31 294.887 344.351 294.897 344.395C294.908 344.44 294.907 344.486 294.894 344.53C294.878 344.566 294.853 344.597 294.822 344.62C294.79 344.643 294.754 344.658 294.715 344.663ZM290.237 341.949H290.142C290.096 341.961 290.054 341.985 290.02 342.019C289.986 342.053 289.962 342.095 289.951 342.142C289.905 342.267 289.89 342.401 289.907 342.534C289.924 342.666 289.971 342.792 290.046 342.902C290.488 343.541 291.957 343.999 294.046 344.108C292.769 343.131 290.978 341.889 290.237 341.949Z" fill="#407BFF"/>
<path d="M294.715 344.663C294.665 344.681 294.61 344.681 294.56 344.663C293.581 343.891 291.897 341.37 292.303 340.381C292.41 340.14 292.649 339.887 293.258 339.971C293.477 339.997 293.689 340.069 293.878 340.183C294.068 340.298 294.231 340.452 294.357 340.635C295.288 341.841 294.93 344.409 294.918 344.518C294.91 344.556 294.893 344.592 294.868 344.621C294.843 344.651 294.811 344.673 294.775 344.687L294.715 344.663ZM292.96 340.369C292.769 340.369 292.733 340.478 292.721 340.514C292.47 341.117 293.569 343.035 294.524 343.987C294.665 342.918 294.487 341.83 294.01 340.864C293.916 340.73 293.795 340.617 293.655 340.532C293.515 340.447 293.36 340.391 293.198 340.369H292.96Z" fill="#407BFF"/>
<path d="M392.002 78.1247C391.847 79.9096 391.68 81.4412 391.453 83.0693C391.226 84.6974 390.987 86.2773 390.724 87.8933C390.187 91.0892 389.53 94.261 388.766 97.4207C388.002 100.58 387.131 103.74 386.068 106.876C385.032 110.068 383.804 113.193 382.39 116.234L381.28 118.538L381.208 118.682L381.053 118.972L380.731 119.551C380.501 119.927 380.249 120.289 379.978 120.636C379.462 121.3 378.878 121.906 378.235 122.445C377.141 123.354 375.907 124.075 374.582 124.58C373.504 124.984 372.393 125.291 371.262 125.496C367.628 126.035 363.932 125.986 360.313 125.352C353.882 124.275 347.606 122.404 341.627 119.78L343.621 112.966C346.523 113.352 349.591 113.738 352.505 113.979C355.418 114.22 358.379 114.437 361.185 114.413C363.695 114.481 366.203 114.197 368.635 113.569C369.567 113.292 370.152 112.809 369.997 112.821C369.934 112.839 369.877 112.873 369.829 112.918L369.722 113.038L369.662 113.111V112.99L370.415 111.036C372.362 105.567 373.89 99.9546 374.988 94.2489C375.608 91.3424 376.098 88.3998 376.599 85.4692C376.846 83.9979 377.073 82.5266 377.28 81.0553L377.865 76.7378L392.002 78.1247Z" fill="#FFB573"/>
<path d="M393.721 72.4926C398.939 79.813 392.909 102.377 392.909 102.377L368.385 103.173C368.385 103.173 370.379 88.3033 374.008 77.2201C377.949 65.1601 387.381 63.6285 393.721 72.4926Z" fill="#407BFF"/>
<path d="M344.767 113.243L336.159 109.215V121.275C336.159 121.275 344.242 123.072 345.651 118.863L344.767 113.243Z" fill="#FFB573"/>
<path d="M328.541 110.952L328.971 120.926L336.111 121.263L336.159 109.215L328.541 110.952Z" fill="#FFB573"/>
<path d="M295.408 190.066H67.2103C64.235 190.014 61.3844 188.85 59.2098 186.798C57.0353 184.746 55.6911 181.953 55.4374 178.958L45.2407 31.971C45.1207 30.5481 45.2967 29.1155 45.7574 27.7654C46.2182 26.4153 46.9534 25.1775 47.9159 24.1314C48.8785 23.0854 50.047 22.2543 51.3465 21.6916C52.6459 21.1288 54.0476 20.8468 55.4613 20.8638H283.611C286.585 20.9182 289.434 22.0833 291.608 24.1345C293.782 26.1856 295.127 28.9773 295.384 31.971L305.628 178.958C305.748 180.381 305.572 181.814 305.111 183.164C304.651 184.514 303.915 185.752 302.953 186.798C301.99 187.844 300.822 188.675 299.522 189.238C298.223 189.8 296.821 190.082 295.408 190.066Z" fill="#263238"/>
<path d="M360.684 310.026H103.556C96.738 310.026 89.8606 305.576 88.2964 300.185L58.5181 197.965C57.2405 193.599 61.1687 190.065 67.2104 190.065H295.408C301.461 190.065 308.375 193.599 310.798 197.965L367.621 300.185C370.606 305.576 367.501 310.026 360.684 310.026Z" fill="#263238"/>
<path d="M298.154 190.066H69.9684C66.9923 190.017 64.1403 188.853 61.9651 186.801C59.79 184.749 58.4466 181.954 58.1955 178.958L47.9391 31.9711C47.8209 30.5486 47.9983 29.1168 48.4597 27.7675C48.9211 26.4182 49.6564 25.1812 50.6186 24.1355C51.5808 23.0899 52.7485 22.2588 54.0471 21.6954C55.3457 21.132 56.7465 20.8488 58.1597 20.8639H286.357C289.332 20.9156 292.183 22.0799 294.357 24.1315C296.532 26.1832 297.876 28.9764 298.13 31.9711L308.386 178.958C308.505 180.382 308.327 181.815 307.865 183.165C307.403 184.515 306.666 185.753 305.703 186.798C304.739 187.844 303.57 188.675 302.27 189.238C300.97 189.8 299.568 190.082 298.154 190.066Z" fill="#407BFF"/>
<path d="M71.8311 180.816C70.6562 180.791 69.5316 180.329 68.6724 179.519C67.8133 178.709 67.28 177.608 67.1745 176.426L57.2762 34.5036C57.2296 33.9423 57.2996 33.3773 57.4819 32.845C57.6642 32.3126 57.9547 31.8247 58.3347 31.4124C58.7148 31.0002 59.176 30.6728 59.6887 30.4512C60.2014 30.2296 60.7543 30.1188 61.3119 30.1258H284.494C285.665 30.1533 286.786 30.6144 287.642 31.4216C288.498 32.2287 289.031 33.3256 289.139 34.5036L299.037 176.426C299.084 176.988 299.014 177.553 298.832 178.086C298.649 178.619 298.359 179.108 297.979 179.521C297.599 179.934 297.138 180.263 296.626 180.486C296.113 180.708 295.56 180.821 295.002 180.816H71.8311Z" fill="white"/>
<path opacity="0.2" d="M173.864 26.9956C174.492 26.3393 174.435 25.2558 173.738 24.5756C173.041 23.8953 171.967 23.8759 171.339 24.5322C170.712 25.1884 170.768 26.2719 171.465 26.9522C172.162 27.6324 173.236 27.6519 173.864 26.9956Z" fill="black"/>
<path d="M363.442 310.026H106.302C99.484 310.026 92.6185 305.576 91.0424 300.185L61.2641 197.965C59.9984 193.599 63.9148 190.065 69.9683 190.065H298.154C304.207 190.065 311.12 193.599 313.544 197.965L370.355 300.185C373.352 305.576 370.259 310.026 363.442 310.026Z" fill="#407BFF"/>
<path opacity="0.2" d="M92.4514 255.431C89.8963 255.431 87.3292 253.839 86.7441 251.909L71.055 199.798C70.5296 198.073 72.0699 196.662 74.4817 196.662H299.205C300.393 196.661 301.564 196.945 302.623 197.49C303.681 198.035 304.597 198.826 305.294 199.798L333.771 251.933C334.822 253.863 333.604 255.455 331.049 255.455L92.4514 255.431Z" fill="black"/>
<path opacity="0.2" d="M195.398 300.933C194.637 300.935 193.891 300.727 193.238 300.332C192.586 299.936 192.053 299.369 191.697 298.69L178.563 264.729C178.121 263.583 178.981 262.643 180.485 262.643H249.14C249.88 262.642 250.609 262.834 251.255 263.199C251.901 263.564 252.443 264.091 252.829 264.729L268.435 298.69C269.008 299.896 268.196 300.933 266.644 300.933H195.398Z" fill="black"/>
<path d="M66.0282 159.915L71.6639 148.627H90.2783L95.52 156.78L100.762 164.92L96.6901 173.061L92.8216 180.815H93.2395L97.0244 173.242L101.096 165.101H119.71L124.952 173.254L129.812 180.815H130.265L125.239 173.049L119.997 164.896L124.069 156.768L128.14 148.627H146.731L151.972 156.78L157.214 164.92L153.154 173.061L149.274 180.815H149.692L153.489 173.242L157.548 165.101H176.163L181.404 173.254L186.264 180.815H186.718L181.727 173.049L176.581 164.896L180.64 156.768L184.712 148.627H203.314L208.556 156.78L213.798 164.92L209.738 173.061L205.858 180.815H206.275L210.013 173.266L214.072 165.125H232.699L237.94 173.278L242.8 180.84H243.254L238.263 173.073L233.021 164.92L237.081 156.792L241.152 148.651H259.767L265.008 156.804L270.25 164.944L266.131 173.061L262.25 180.815H262.68L266.465 173.242L270.525 165.101H289.175L294.417 173.254L298.237 179.187L298.476 178.862L294.787 173.049L289.545 164.896L293.605 156.768L297.187 149.532V148.796L293.306 156.563L289.235 164.703H270.548L265.307 156.551L260.065 148.41L264.137 140.27L268.196 132.141H286.811L297.067 148.073L297.007 147.289L287.133 131.936L294.858 116.475V115.728L286.847 131.755H268.184L262.943 123.615L257.701 115.462L261.773 107.334L265.844 99.1934H284.447L294.787 115.269L294.727 114.485L284.781 99.0124L292.566 83.443V82.7073L284.494 98.8436H265.832L260.59 90.6911L255.385 82.5506L259.444 74.4101L263.516 66.2816H282.13L292.518 82.4299V81.6461L282.488 66.0766L290.333 50.3986V49.6629L282.071 65.9319H263.468L258.226 57.7793L252.997 49.6026L257.056 41.4621L261.116 33.3699H279.73L284.972 41.5104L290.19 49.6388V48.8549L285.235 41.2812L279.993 33.1287L281.497 30.1257H281.08L279.671 32.9478H261.104L259.277 30.1257H258.835L260.782 33.1528L256.71 41.2933L252.65 49.4217H234.036L228.794 41.2812L223.553 33.1287L225.057 30.1257H224.639L223.218 32.9478H204.616L202.849 30.1257H202.407L204.353 33.1528L200.282 41.2933L196.222 49.4217H177.548L172.306 41.2812L167.029 33.1287L168.533 30.1257H168.115L166.694 32.9478H148.116L146.301 30.1257H145.847L147.805 33.1528L143.734 41.2933L139.674 49.4217H121.06L115.818 41.2812L110.576 33.1287L112.081 30.1257H111.663L110.242 32.9478H91.6276L89.8127 30.1257H89.4187L91.3768 33.1528L87.3053 41.2933L83.2337 49.4217H64.5715L57.5627 38.5677V39.3516L64.2014 49.6629L59.0075 60.0466L59.0672 60.7822L64.5357 49.8438H83.1502L88.3799 57.9843L93.6215 66.1369L89.5619 74.2653L85.4904 82.4058H66.9237L61.694 74.2533L59.8552 71.3951V72.1789L61.3238 74.4583L66.5655 82.5988L62.494 90.7393L61.3 93.1513V93.8869L62.7566 90.9684L66.8282 82.8279H85.4307L90.6724 90.9805L95.914 99.121L91.8544 107.261L87.7829 115.39H69.2878L64.0462 107.249L62.1358 104.283V105.055L63.676 107.467L68.9177 115.607L64.8461 123.735L63.6521 126.22V126.955L65.1685 123.916L69.2401 115.788H87.8426L93.0843 123.928L98.3259 132.081L94.2663 140.209L90.1948 148.35H71.6519L64.4282 137.086L64.4879 137.87L71.3415 148.519L65.9804 159.24L66.0282 159.915ZM146.731 148.253H128.14L122.851 140.101L117.621 131.96L121.681 123.82L125.752 115.691H144.355L149.596 123.832L154.838 131.984L150.778 140.113L146.731 148.253ZM227.923 98.8074H209.332L204.043 90.6911L198.801 82.5506L202.873 74.4101L206.944 66.2816H225.547L230.788 74.4221L236.03 82.5626L231.97 90.7031L227.923 98.8074ZM227.923 99.1813L233.164 107.334L238.406 115.474L234.346 123.603L230.311 131.779H211.696L206.431 123.639L201.189 115.486L205.261 107.358L209.32 99.2175L227.923 99.1813ZM203.744 90.8599L208.986 99.0004L204.914 107.141L200.843 115.269H182.276L177.034 107.129L171.805 99.0124L175.864 90.884L179.936 82.7435H198.55L203.744 90.8599ZM181.954 115.511L177.882 123.639L173.823 131.779H155.208L149.966 123.639L144.725 115.486L148.796 107.358L152.856 99.2175H171.47L176.712 107.37L181.954 115.511ZM175.53 90.7031L171.458 98.8436H152.844L147.602 90.6911L142.361 82.5506L146.432 74.4101L150.492 66.2816H169.106L174.348 74.4221L179.59 82.5626L175.53 90.7031ZM147.292 90.8961L152.522 99.0366L148.462 107.177L144.343 115.306H125.788L120.546 107.165L115.305 99.0124L119.364 90.884L123.436 82.7435H142.05L147.292 90.8961ZM180.246 156.587L176.187 164.727H157.572L152.331 156.575L147.089 148.434L151.16 140.294L155.22 132.165H173.834L179.076 140.306L184.318 148.458L180.246 156.587ZM203.243 148.253H184.64L179.399 140.101L174.193 131.96L178.252 123.82L182.324 115.691H200.938L206.18 123.832L211.41 131.984L207.35 140.113L203.243 148.253ZM236.675 156.587L232.615 164.727H214.06L208.819 156.575L203.577 148.434L207.649 140.294L211.708 132.165H230.311L235.552 140.306L240.794 148.458L236.675 156.587ZM262.632 123.82L267.874 131.972L263.802 140.101L259.731 148.241H241.128L235.887 140.089L230.645 131.948L234.705 123.808L238.776 115.679H257.391L262.632 123.82ZM260.244 90.884L265.486 99.0245L261.414 107.165L257.355 115.293H238.764L233.523 107.153L228.281 99.0004L232.352 90.8719L236.412 82.7314H255.026L260.244 90.884ZM233.976 49.7956H252.591L257.832 57.9361L263.074 66.0887L259.002 74.2171L254.943 82.3576H236.4L231.158 74.205L225.917 66.0645L229.988 57.924L233.976 49.7956ZM200.544 41.4501L204.616 33.3216H223.23L228.46 41.4621L233.702 49.6147L229.642 57.7431L225.535 65.9319H206.968L201.738 57.7793L196.497 49.6388L200.544 41.4501ZM177.548 49.7956H196.162L201.404 57.9361L206.646 66.0887L202.574 74.2171L198.514 82.3576H179.912L174.67 74.205L169.417 66.0766L173.476 57.9361L177.548 49.7956ZM144.116 41.4501L148.187 33.3216H166.79L172.032 41.4621L177.273 49.6147L173.214 57.7431L169.094 65.9319H150.48L145.238 57.7793L139.997 49.6388L144.116 41.4501ZM121.119 49.7956H139.686L144.928 57.9361L150.169 66.0887L146.098 74.2171L142.026 82.3576H123.424L118.182 74.205L112.94 66.0645L117 57.924L121.119 49.7956ZM88.7978 57.7311L83.5561 49.5906L87.6277 41.4501L91.6873 33.3216H110.302L115.543 41.4621L120.785 49.6147L116.714 57.7431L112.654 65.8836H93.9917L88.7978 57.7311ZM91.1858 90.679L85.8367 82.5506L89.9082 74.4101L93.9678 66.2816H112.582L117.824 74.4221L123.066 82.5626L118.994 90.7031L114.934 98.8436H96.3558L91.1858 90.679ZM93.5738 123.627L88.2247 115.486L92.2962 107.358L96.3558 99.2175H114.97L120.212 107.37L125.454 115.511L121.382 123.639L117.322 131.779H98.7199L93.5738 123.627ZM94.7678 140.282L98.8393 132.153H117.454L122.695 140.294L127.937 148.446L123.866 156.575L119.806 164.715H101.084L95.8424 156.563L90.6127 148.434L94.7678 140.282Z" fill="#E0E0E0"/>
<path d="M73.7772 180.816L66.7207 169.853L66.7685 170.637L73.3235 180.816H73.7772Z" fill="#E0E0E0"/>
<path d="M225.726 165.849H143.149C141.489 165.826 139.898 165.173 138.693 164.02C137.487 162.867 136.755 161.299 136.641 159.626L133.477 102.245C133.425 101.443 133.536 100.639 133.805 99.8836C134.074 99.1278 134.495 98.4362 135.041 97.8521C135.587 97.268 136.246 96.804 136.977 96.489C137.709 96.1741 138.497 96.015 139.292 96.0217H221.893C223.552 96.0452 225.141 96.6985 226.344 97.8515C227.548 99.0046 228.278 100.573 228.388 102.245L231.505 159.626C231.557 160.425 231.446 161.225 231.179 161.979C230.913 162.732 230.495 163.422 229.953 164.005C229.411 164.589 228.756 165.054 228.029 165.371C227.302 165.688 226.518 165.851 225.726 165.849Z" fill="#407BFF"/>
<path opacity="0.2" d="M139.28 96.082C138.485 96.0753 137.697 96.2343 136.965 96.5493C136.234 96.8643 135.575 97.3283 135.029 97.9124C134.483 98.4965 134.062 99.1881 133.793 99.9439C133.524 100.7 133.413 101.504 133.465 102.305L136.629 159.686C136.743 161.359 137.475 162.928 138.681 164.08C139.886 165.233 141.477 165.886 143.137 165.909H184.425L180.581 96.082H139.28Z" fill="black"/>
<path opacity="0.2" d="M176.043 149.387L176.999 131.152C175.563 130.244 174.361 129.006 173.489 127.539C172.618 126.072 172.102 124.417 171.984 122.71C171.894 121.396 172.076 120.077 172.518 118.837C172.959 117.597 173.651 116.464 174.549 115.508C175.447 114.552 176.532 113.795 177.734 113.285C178.937 112.775 180.232 112.522 181.536 112.544C184.225 112.582 186.803 113.638 188.759 115.502C190.716 117.366 191.909 119.904 192.103 122.614C192.206 124.257 191.885 125.898 191.171 127.378C190.458 128.858 189.376 130.125 188.031 131.056L190.98 149.291L176.043 149.387Z" fill="black"/>
<path d="M190.551 122.614C190.4 120.304 189.392 118.135 187.727 116.543C186.062 114.951 183.864 114.053 181.572 114.027C180.473 114.015 179.385 114.232 178.374 114.665C177.363 115.099 176.452 115.739 175.698 116.546C174.944 117.352 174.364 118.308 173.994 119.353C173.624 120.397 173.472 121.507 173.548 122.614C173.652 124.224 174.175 125.778 175.064 127.118C175.953 128.459 177.176 129.538 178.611 130.248L177.703 147.759H189.165L186.336 130.248C187.694 129.524 188.815 128.417 189.563 127.062C190.311 125.707 190.654 124.162 190.551 122.614Z" fill="#263238"/>
<path d="M219.744 91.9091H208.819L208.15 79.9336C207.637 72.2045 204.261 64.9541 198.694 59.6261C193.127 54.2981 185.778 51.2834 178.109 51.1825C174.433 51.1459 170.789 51.8771 167.407 53.3302C164.024 54.7833 160.975 56.9269 158.451 59.6266C155.927 62.3263 153.983 65.5238 152.741 69.0183C151.499 72.5128 150.985 76.229 151.232 79.9336L151.889 91.9091H140.964L140.307 79.9336C139.961 74.8055 140.669 69.6606 142.386 64.8222C144.104 59.9838 146.793 55.5566 150.286 51.8189C153.78 48.0811 158 45.1137 162.684 43.103C167.367 41.0924 172.411 40.0821 177.5 40.1356C199.219 40.1356 217.869 57.9844 219.087 79.9336L219.744 91.9091Z" fill="#407BFF"/>
</svg>
