<svg width="24" height="24" viewBox="0 0 24 24" fill="none" xmlns="http://www.w3.org/2000/svg">
<rect width="24" height="24" fill="white"/>
<path fill-rule="evenodd" clip-rule="evenodd" d="M21.1 11.7274C21.1 11.0183 21.0364 10.3364 20.9182 9.6819H11.5V13.5501H16.8818C16.65 14.8001 15.9455 15.8592 14.8864 16.5683V19.0774H18.1182C20.0091 17.3364 21.1 14.7728 21.1 11.7274Z" fill="#4285F4"/>
<path fill-rule="evenodd" clip-rule="evenodd" d="M11.5 21.4998C14.2 21.4998 16.4636 20.6044 18.1182 19.0771L14.8863 16.568C13.9909 17.168 12.8454 17.5226 11.5 17.5226C8.89542 17.5226 6.69088 15.7635 5.90452 13.3998H2.56361V15.9908C4.20906 19.2589 7.59088 21.4998 11.5 21.4998Z" fill="#34A853"/>
<path fill-rule="evenodd" clip-rule="evenodd" d="M5.90455 13.4C5.70455 12.8 5.59091 12.1591 5.59091 11.5C5.59091 10.8409 5.70455 10.2 5.90455 9.59999V7.00908H2.56364C1.88636 8.35908 1.5 9.88635 1.5 11.5C1.5 13.1136 1.88636 14.6409 2.56364 15.9909L5.90455 13.4Z" fill="#FBBC05"/>
<path fill-rule="evenodd" clip-rule="evenodd" d="M11.5 5.47727C12.9682 5.47727 14.2863 5.98182 15.3227 6.97273L18.1909 4.10455C16.4591 2.49091 14.1954 1.5 11.5 1.5C7.59088 1.5 4.20906 3.74091 2.56361 7.00909L5.90452 9.6C6.69088 7.23636 8.89542 5.47727 11.5 5.47727Z" fill="#EA4335"/>
</svg>
