<svg width="142" height="43" viewBox="0 0 142 43" fill="none" xmlns="http://www.w3.org/2000/svg">
<rect x="6.62891" y="9.0376" width="24.7419" height="24.7419" rx="7.5" fill="white" stroke="white"/>
<rect x="2.54297" y="4.54321" width="32.914" height="32.914" rx="7.5" stroke="white"/>
<rect x="4.83594" y="7.24463" width="28.328" height="28.328" rx="7.25" stroke="white" stroke-width="1.5"/>
<rect x="0.25" y="2.25" width="37.5" height="37.5" rx="7.75" stroke="white" stroke-width="0.5"/>
<path d="M57.475 18.105C58.2683 17.5683 59.1667 17.16 60.17 16.88C61.1733 16.6 62.1767 16.46 63.18 16.46C64.02 16.46 64.4633 16.4833 64.51 16.53L65.105 20.205L62.83 20.695L62.48 18.735C61.7567 18.735 61.01 18.84 60.24 19.05C59.4933 19.26 58.805 19.5517 58.175 19.925V29.83H61.605V32H52.505V29.83H55.445V19.82L52.085 18.665L52.82 16.495L57.475 18.105ZM66.8889 16.985H72.5589V29.83H75.4639V32H66.8889V29.83H69.7939V19.155H66.8889V16.985ZM70.8089 9.53C71.4622 9.53 71.9872 9.72833 72.3839 10.125C72.7806 10.5217 72.9789 11.0467 72.9789 11.7C72.9789 12.3533 72.7806 12.8783 72.3839 13.275C71.9872 13.6717 71.4622 13.87 70.8089 13.87C70.1556 13.87 69.6306 13.6717 69.2339 13.275C68.8606 12.8783 68.6739 12.3533 68.6739 11.7C68.6739 11.0467 68.8606 10.5217 69.2339 10.125C69.6306 9.72833 70.1556 9.53 70.8089 9.53ZM84.2738 27.87C82.1505 27.87 80.4705 27.38 79.2338 26.4C78.0205 25.3967 77.4138 24.02 77.4138 22.27C77.4138 20.4733 78.0321 19.0617 79.2688 18.035C80.5055 16.985 82.1855 16.46 84.3088 16.46C85.1955 16.46 85.9771 16.5417 86.6538 16.705C87.3538 16.8683 87.9955 17.1133 88.5788 17.44L93.5488 15.585L94.3538 17.895L90.2238 18.84C90.5738 19.2833 90.8305 19.7733 90.9938 20.31C91.1805 20.8467 91.2738 21.4417 91.2738 22.095C91.2738 23.2617 90.9821 24.2883 90.3988 25.175C89.8388 26.0383 89.0338 26.7033 87.9838 27.17C86.9338 27.6367 85.6971 27.87 84.2738 27.87ZM84.5538 39.805C83.8071 39.805 82.9321 39.7233 81.9288 39.56C80.9255 39.3967 79.9688 39.175 79.0588 38.895C78.1721 38.6383 77.5071 38.3817 77.0638 38.125L78.0438 36.06C78.8838 36.5033 79.9221 36.8533 81.1588 37.11C82.3955 37.3667 83.5271 37.495 84.5538 37.495C85.5571 37.495 86.4088 37.4133 87.1088 37.25C87.8088 37.11 88.3455 36.8767 88.7188 36.55C89.1155 36.2467 89.3138 35.85 89.3138 35.36C89.3138 34.6133 88.9988 34.065 88.3688 33.715C87.7388 33.3883 86.8405 33.225 85.6738 33.225H80.6688V26.33L83.3288 27.205V31.055H86.4088C88.2755 31.055 89.6755 31.3933 90.6088 32.07C91.5421 32.7467 92.0088 33.7617 92.0088 35.115C92.0088 36.095 91.7055 36.935 91.0988 37.635C90.5155 38.335 89.6638 38.8717 88.5438 39.245C87.4471 39.6183 86.1171 39.805 84.5538 39.805ZM84.3438 25.63C85.6271 25.63 86.6421 25.3033 87.3888 24.65C88.1355 23.9967 88.5088 23.1683 88.5088 22.165C88.5088 21.0683 88.1588 20.2167 87.4588 19.61C86.7588 19.0033 85.7205 18.7 84.3438 18.7C82.9671 18.7 81.9288 19.0033 81.2288 19.61C80.5288 20.2167 80.1788 21.0683 80.1788 22.165C80.1788 23.1683 80.5521 23.9967 81.2988 24.65C82.0455 25.3033 83.0605 25.63 84.3438 25.63ZM95.7243 32V29.83H98.6643V12.575L95.3393 11.42L96.0743 9.25L101.394 11.07V17.93C102.911 16.95 104.439 16.46 105.979 16.46C108.126 16.46 109.701 16.9383 110.704 17.895C111.731 18.8517 112.244 20.345 112.244 22.375V29.83H115.184V32H107.939V29.83H109.514V22.935C109.514 21.4417 109.223 20.3683 108.639 19.715C108.056 19.0383 107.111 18.7 105.804 18.7C105.034 18.7 104.241 18.8167 103.424 19.05C102.608 19.26 101.931 19.54 101.394 19.89V29.83H102.969V32H95.7243ZM124.279 32.525C123.439 32.525 122.634 32.3617 121.864 32.035C121.117 31.7083 120.51 31.125 120.044 30.285C119.577 29.445 119.344 28.2783 119.344 26.785V19.155H116.439V16.985H119.344V13.59L122.004 12.96V16.985H126.379V19.155H122.004V25.245C122.004 26.8083 122.155 28.0683 122.459 29.025C122.762 29.9817 123.427 30.46 124.454 30.46C125.177 30.46 125.994 30.25 126.904 29.83L127.429 31.79C126.939 31.9767 126.425 32.14 125.889 32.28C125.352 32.4433 124.815 32.525 124.279 32.525Z" fill="white"/>
</svg>
