<svg width="234" height="220" viewBox="0 0 234 220" fill="none" xmlns="http://www.w3.org/2000/svg">
<path d="M126.293 219.712C185.354 219.712 233.233 215.508 233.233 210.322C233.233 205.136 185.354 200.932 126.293 200.932C67.232 200.932 19.3535 205.136 19.3535 210.322C19.3535 215.508 67.232 219.712 126.293 219.712Z" fill="white"/>
<path opacity="0.5" d="M126.293 219.712C185.354 219.712 233.233 215.508 233.233 210.322C233.233 205.136 185.354 200.932 126.293 200.932C67.232 200.932 19.3535 205.136 19.3535 210.322C19.3535 215.508 67.232 219.712 126.293 219.712Z" fill="white"/>
<path d="M17.2437 91.5572V97.1098" stroke="#263238" stroke-linecap="round" stroke-linejoin="round"/>
<path d="M20.0233 94.3366H14.4707" stroke="#263238" stroke-linecap="round" stroke-linejoin="round"/>
<path d="M206.715 43.9812V49.5338" stroke="#263238" stroke-linecap="round" stroke-linejoin="round"/>
<path d="M209.489 46.7606H203.936" stroke="#263238" stroke-linecap="round" stroke-linejoin="round"/>
<path d="M127.839 1V6.55262" stroke="#263238" stroke-linecap="round" stroke-linejoin="round"/>
<path d="M130.613 3.77318H125.06" stroke="#263238" stroke-linecap="round" stroke-linejoin="round"/>
<path d="M36.4434 153.744V159.297" stroke="#263238" stroke-linecap="round" stroke-linejoin="round"/>
<path d="M39.2167 156.517H33.6641" stroke="#263238" stroke-linecap="round" stroke-linejoin="round"/>
<path d="M204.23 23.9679C204.231 24.877 203.963 25.766 203.459 26.5224C202.955 27.2788 202.238 27.8688 201.398 28.2175C200.559 28.5662 199.635 28.6581 198.743 28.4815C197.851 28.3049 197.032 27.8678 196.389 27.2255C195.745 26.5831 195.307 25.7644 195.129 24.8729C194.951 23.9814 195.042 23.0572 195.39 22.2173C195.737 21.3773 196.326 20.6593 197.082 20.1542C197.838 19.649 198.726 19.3794 199.635 19.3794C200.853 19.3794 202.021 19.8626 202.882 20.7229C203.744 21.5833 204.229 22.7504 204.23 23.9679Z" stroke="#263238" stroke-linecap="round" stroke-linejoin="round"/>
<path d="M7.75124 134.216C10.0925 133.246 11.2044 130.562 10.2346 128.221C9.26477 125.88 6.58059 124.768 4.2393 125.738C1.898 126.707 0.78618 129.392 1.75598 131.733C2.72577 134.074 5.40995 135.186 7.75124 134.216Z" stroke="#263238" stroke-linecap="round" stroke-linejoin="round"/>
<path d="M225.095 70.9179C225.106 71.0616 225.087 71.206 225.04 71.3421C224.992 71.4782 224.917 71.6031 224.82 71.7088C224.722 71.8146 224.603 71.899 224.471 71.9567C224.339 72.0144 224.196 72.0442 224.052 72.0442C223.908 72.0442 223.766 72.0144 223.634 71.9567C223.502 71.899 223.383 71.8146 223.285 71.7088C223.187 71.6031 223.112 71.4782 223.065 71.3421C223.017 71.206 222.999 71.0616 223.01 70.9179C223.03 70.6555 223.149 70.4103 223.342 70.2315C223.535 70.0527 223.789 69.9534 224.052 69.9534C224.316 69.9534 224.569 70.0527 224.762 70.2315C224.956 70.4103 225.074 70.6555 225.095 70.9179Z" stroke="#263238" stroke-linecap="round" stroke-linejoin="round"/>
<path d="M65.8843 55.8939C65.8855 56.101 65.8253 56.3037 65.7111 56.4764C65.597 56.6492 65.4342 56.7842 65.2433 56.8642C65.0524 56.9443 64.842 56.9659 64.6388 56.9263C64.4356 56.8867 64.2487 56.7876 64.1019 56.6416C63.955 56.4957 63.8549 56.3094 63.814 56.1065C63.7732 55.9035 63.7935 55.693 63.8724 55.5016C63.9514 55.3102 64.0854 55.1466 64.2574 55.0314C64.4295 54.9163 64.6318 54.8548 64.8389 54.8548C65.115 54.8548 65.38 54.9641 65.5759 55.1588C65.7718 55.3535 65.8826 55.6178 65.8843 55.8939Z" stroke="#263238" stroke-linecap="round" stroke-linejoin="round"/>
<path d="M179.954 20.0555H83.2992C80.9656 20.0555 79.0737 21.9473 79.0737 24.281V205.251C79.0737 207.585 80.9656 209.477 83.2992 209.477H179.954C182.287 209.477 184.179 207.585 184.179 205.251V24.281C184.179 21.9473 182.287 20.0555 179.954 20.0555Z" fill="#263238" stroke="#263238" stroke-linecap="round" stroke-linejoin="round"/>
<path d="M176.617 20.0555H79.9628C77.6291 20.0555 75.7373 21.9473 75.7373 24.281V205.251C75.7373 207.585 77.6291 209.477 79.9628 209.477H176.617C178.951 209.477 180.843 207.585 180.843 205.251V24.281C180.843 21.9473 178.951 20.0555 176.617 20.0555Z" fill="white"/>
<mask id="mask0_305_2060" style="mask-type:luminance" maskUnits="userSpaceOnUse" x="75" y="20" width="106" height="190">
<path d="M176.617 20.0555H79.9628C77.6291 20.0555 75.7373 21.9473 75.7373 24.281V205.251C75.7373 207.585 77.6291 209.477 79.9628 209.477H176.617C178.951 209.477 180.843 207.585 180.843 205.251V24.281C180.843 21.9473 178.951 20.0555 176.617 20.0555Z" fill="white"/>
</mask>
<g mask="url(#mask0_305_2060)">
<path d="M180.843 91.5322L88.4199 209.483H176.623C177.743 209.481 178.816 209.035 179.607 208.243C180.398 207.451 180.843 206.377 180.843 205.258V91.5322Z" fill="white"/>
<path opacity="0.5" d="M180.843 91.5322L88.4199 209.483H176.623C177.743 209.481 178.816 209.035 179.607 208.243C180.398 207.451 180.843 206.377 180.843 205.258V91.5322Z" fill="white"/>
</g>
<path d="M176.617 20.0555H79.9628C77.6291 20.0555 75.7373 21.9473 75.7373 24.281V205.251C75.7373 207.585 77.6291 209.477 79.9628 209.477H176.617C178.951 209.477 180.843 207.585 180.843 205.251V24.281C180.843 21.9473 178.951 20.0555 176.617 20.0555Z" stroke="#263238" stroke-linecap="round" stroke-linejoin="round"/>
<path d="M135.577 31.3736H122.493C122.136 31.3736 121.794 31.2318 121.542 30.9793C121.289 30.7269 121.147 30.3846 121.147 30.0277C121.147 29.8512 121.182 29.6765 121.25 29.5135C121.318 29.3506 121.417 29.2026 121.542 29.0782C121.667 28.9537 121.816 28.8551 121.979 28.7882C122.142 28.7212 122.317 28.6872 122.493 28.688H135.577C135.932 28.688 136.273 28.8292 136.524 29.0804C136.775 29.3316 136.916 29.6724 136.916 30.0277C136.917 30.2041 136.883 30.379 136.816 30.5422C136.749 30.7055 136.651 30.8539 136.526 30.979C136.402 31.104 136.254 31.2033 136.091 31.271C135.928 31.3387 135.753 31.3736 135.577 31.3736Z" fill="#263238" stroke="#263238" stroke-linecap="round" stroke-linejoin="round"/>
<path d="M174.201 192.55H82.3667V31.5301H104.133L106.58 33.5583C107.435 34.2697 108.511 34.6595 109.623 34.6601H148.028C149.181 34.6554 150.293 34.2328 151.158 33.4707L153.374 31.5301H174.201V192.55Z" fill="#263238" stroke="#263238" stroke-linecap="round" stroke-linejoin="round"/>
<path d="M99.6064 157.832H156.973" stroke="white" stroke-linecap="round" stroke-linejoin="round"/>
<path d="M99.6064 165.381H156.973" stroke="white" stroke-linecap="round" stroke-linejoin="round"/>
<path d="M99.6064 172.931H156.973" stroke="white" stroke-linecap="round" stroke-linejoin="round"/>
<path d="M104.903 87.7386C101.297 92.9623 99.5464 99.2436 99.9298 105.579C100.313 111.915 102.809 117.939 107.017 122.69C111.226 127.441 116.906 130.644 123.149 131.788C129.392 132.933 135.839 131.952 141.459 129.002C147.079 126.053 151.549 121.305 154.154 115.517C156.76 109.73 157.35 103.236 155.832 97.073C154.313 90.9102 150.774 85.434 145.778 81.519C140.782 77.604 134.618 75.4762 128.271 75.4753C126.531 75.4754 124.794 75.6325 123.082 75.9448" stroke="white" stroke-linecap="round" stroke-linejoin="round"/>
<path d="M109.742 82.3738C108.788 83.1993 107.889 84.0859 107.05 85.028" stroke="white" stroke-linecap="round" stroke-linejoin="round"/>
<path d="M150.452 113.309C155.665 101.069 149.969 86.9209 137.729 81.7078C125.49 76.4946 111.341 82.1909 106.128 94.4306C100.915 106.67 106.611 120.819 118.851 126.032C131.091 131.245 145.239 125.549 150.452 113.309Z" fill="white"/>
<path d="M117.166 101.367L126.306 111.752L141.255 90.5744" stroke="#263238" stroke-width="6" stroke-linecap="round" stroke-linejoin="round"/>
<path d="M151.183 33.4707C150.318 34.2328 149.206 34.6554 148.053 34.6601H109.635C108.524 34.6595 107.447 34.2697 106.593 33.5583L104.145 31.5301H82.3667V48.0001H174.201V31.5301H153.399L151.183 33.4707Z" fill="white" stroke="#263238" stroke-linecap="round" stroke-linejoin="round"/>
<path d="M131.226 197.514C131.227 197.1 131.106 196.695 130.876 196.35C130.647 196.005 130.321 195.736 129.938 195.577C129.556 195.418 129.135 195.376 128.729 195.457C128.323 195.537 127.95 195.736 127.657 196.029C127.364 196.322 127.165 196.695 127.084 197.101C127.004 197.507 127.046 197.928 127.205 198.311C127.364 198.693 127.633 199.02 127.978 199.249C128.322 199.478 128.727 199.6 129.142 199.599C129.694 199.597 130.223 199.377 130.614 198.986C131.004 198.596 131.224 198.066 131.226 197.514Z" fill="#263238" stroke="#263238" stroke-linecap="round" stroke-linejoin="round"/>
<path d="M49.5517 133.474L41.3636 206.716C41.3636 206.716 35.3603 211.937 35.8861 214.047C36.412 216.156 43.3418 212.795 44.2996 211.054C44.9793 209.606 45.4635 208.073 45.7394 206.497L62.9794 151.409L76.2381 210.485C76.2381 210.485 81.8721 215.111 85.0021 214.954C88.1321 214.798 87.0178 213.565 85.2337 211.305C83.4496 209.045 79.4119 207.755 79.4119 207.755L77.4212 131.615L49.5517 133.474Z" fill="#263238" stroke="#263238" stroke-linecap="round" stroke-linejoin="round"/>
<path d="M76.9723 130.334L49.4639 131.732L49.6545 135.483L77.163 134.085L76.9723 130.334Z" fill="#263238" stroke="#263238" stroke-linecap="round" stroke-linejoin="round"/>
<path d="M66.5292 132.717C66.573 133.649 65.3899 134.463 63.875 134.545C62.3601 134.626 61.083 133.937 61.083 132.998C61.083 132.059 62.2286 131.252 63.7373 131.177C65.2459 131.102 66.4791 131.79 66.5292 132.717Z" fill="white"/>
<path d="M61.8152 94.2302L51.4736 97.26L52.7569 131.828L77.0144 131.227L73.947 95.4947L61.8152 94.2302Z" fill="white" stroke="#263238" stroke-linecap="round" stroke-linejoin="round"/>
<path d="M57.2893 94.6183L55.8996 153.606L42.7285 147.227L48.519 128.598L44.569 97.1411L57.2893 94.6183Z" fill="white" stroke="#263238" stroke-linecap="round" stroke-linejoin="round"/>
<path d="M67.7622 94.0862L75.124 152.63L87.5876 144.949L79.9379 127.001L80.6766 95.3069L67.7622 94.0862Z" fill="white" stroke="#263238" stroke-linecap="round" stroke-linejoin="round"/>
<path d="M59.9248 101.223L61.9781 104.565L60.338 127.84L64.2317 132.447L66.2474 126.914L63.1299 104.609L65.0517 101.379L62.2598 97.7608L59.9248 101.223Z" fill="#263238" stroke="#263238" stroke-linecap="round" stroke-linejoin="round"/>
<path d="M62.4662 100.778L58.5913 103.695L55.4863 96.1207L57.2329 93.4164L66.7168 92.9344L68.9579 95.958L67.1112 102.844L62.4662 100.778Z" fill="white" stroke="#263238" stroke-linecap="round" stroke-linejoin="round"/>
<path d="M58.0215 90.5055L58.8916 95.3194L62.4661 100.778L65.7401 94.3429L65.5335 90.2801L58.0215 90.5055Z" fill="white" stroke="#263238" stroke-linecap="round" stroke-linejoin="round"/>
<path d="M44.569 97.1411L27.0034 118.406L38.6783 132.228L43.3796 129.174L37.6079 117.398L46.2216 111.163L44.569 97.1411Z" fill="white" stroke="#263238" stroke-linecap="round" stroke-linejoin="round"/>
<path d="M43.3796 129.174L44.0807 130.701L40.1244 132.942L39.5923 131.715L43.3796 129.174Z" fill="white" stroke="#263238" stroke-linecap="round" stroke-linejoin="round"/>
<path d="M44.0809 130.701L48.1124 135.984L46.7852 137.618L45.8212 137.199L43.8681 138.864C43.8681 138.864 42.4408 138.463 42.2593 138.006C42.0777 137.549 40.1434 136.385 40.0996 135.609C40.0557 134.833 40.0996 132.942 40.0996 132.942L44.0809 130.701Z" fill="white" stroke="#263238" stroke-linecap="round" stroke-linejoin="round"/>
<path d="M90.4611 99.4573C90.699 98.8367 90.7512 98.1602 90.6113 97.5104C90.3233 96.7655 89.6848 94.1864 89.81 93.335C89.9352 92.4837 91.2248 91.2442 91.3375 90.1424C91.4501 89.0407 91.3375 88.0328 91.3375 87.4381C91.3478 87.2753 91.4105 87.1202 91.5161 86.9959C91.6217 86.8716 91.7646 86.7847 91.9235 86.7481C92.0825 86.7116 92.249 86.7273 92.3983 86.7929C92.5476 86.8586 92.6717 86.9707 92.7522 87.1126C93.3782 87.8387 93.7538 88.5837 93.4533 89.3537C93.2487 90.2147 93.152 91.0979 93.1654 91.9829C93.1654 91.9829 94.167 93.3663 94.7179 94.2678C95.2687 95.1692 95.2187 97.5292 94.8493 98.4745C94.505 99.1903 94.0195 99.8291 93.422 100.352L93.4846 101.98L90.4611 99.4573Z" fill="white" stroke="#263238" stroke-linecap="round" stroke-linejoin="round"/>
<path d="M92.2892 90.6808C92.2892 90.6808 91.851 91.9703 92.621 92.2645C93.391 92.5588 96.5397 92.997 96.571 91.9829C96.6023 90.9687 96.6649 90.4617 96.1579 90.4867C95.6508 90.5118 93.2908 90.4867 93.2908 90.4867C93.2908 90.4867 92.1953 90.4304 92.2892 90.6808Z" fill="white" stroke="#263238" stroke-linecap="round" stroke-linejoin="round"/>
<path d="M92.6457 97.0034C92.6457 97.0034 92.3327 97.9612 92.8899 98.1803C93.447 98.3994 95.7131 98.7311 95.7319 97.9737C95.7507 97.2162 95.7945 96.8406 95.4314 96.8594C95.0683 96.8782 93.3656 96.8594 93.3656 96.8594C93.3656 96.8594 92.5769 96.8031 92.6457 97.0034Z" fill="white" stroke="#263238" stroke-linecap="round" stroke-linejoin="round"/>
<path d="M92.2264 94.9564C92.2264 94.9564 91.8633 96.0706 92.5081 96.3273C93.1529 96.584 95.7758 96.9533 95.8008 96.0894C95.8259 95.2255 95.876 94.7748 95.4503 94.7936C95.0246 94.8124 93.059 94.7936 93.059 94.7936C93.059 94.7936 92.145 94.7435 92.2264 94.9564Z" fill="white" stroke="#263238" stroke-linecap="round" stroke-linejoin="round"/>
<path d="M91.9821 92.9719C91.9821 92.9719 91.5439 94.2615 92.3202 94.5557C93.0964 94.8499 96.2327 95.2881 96.264 94.274C96.2953 93.2599 96.3579 92.7528 95.8508 92.7779C95.3437 92.8029 92.9837 92.7779 92.9837 92.7779C92.9837 92.7779 91.8882 92.7278 91.9821 92.9719Z" fill="white" stroke="#263238" stroke-linecap="round" stroke-linejoin="round"/>
<path d="M90.104 100.741L90.5923 98.7749L93.9852 100.797L93.4155 102.932L90.104 100.741Z" fill="white" stroke="#263238" stroke-linecap="round" stroke-linejoin="round"/>
<path d="M80.6765 95.3069L87.1744 109.135L90.367 100.24L93.497 103.22L90.2919 119.708C90.1919 120.216 89.9458 120.683 89.5837 121.053C89.2217 121.423 88.7595 121.678 88.254 121.789C87.7485 121.899 87.2218 121.86 86.7386 121.675C86.2554 121.49 85.8368 121.167 85.5343 120.748L80.3447 113.505L80.6765 95.3069Z" fill="white" stroke="#263238" stroke-linecap="round" stroke-linejoin="round"/>
<path d="M54.9983 84.884C54.9983 84.884 53.6837 83.4818 53.5147 84.5084C53.3457 85.535 53.8778 87.3066 54.7041 87.9389C55.5304 88.5712 56.2566 87.5257 56.2566 87.5257L54.9983 84.884Z" fill="white" stroke="#263238" stroke-linecap="round" stroke-linejoin="round"/>
<path d="M67.4241 84.2518C67.4241 84.2518 68.5822 82.7243 68.8639 83.7259C69.1456 84.7275 68.7826 86.5492 68.0251 87.2628C67.2676 87.9765 66.4351 87.0061 66.4351 87.0061L67.4241 84.2518Z" fill="white" stroke="#263238" stroke-linecap="round" stroke-linejoin="round"/>
<path d="M55.5238 86.3238L54.2718 83.6758C53.2642 82.2576 52.5667 80.6429 52.2248 78.937C51.5988 76.0324 52.6317 73.616 53.9463 72.8711C54.6851 72.4288 55.5574 72.2646 56.4065 72.4078C56.4065 72.4078 56.6569 70.7051 60.7885 69.2778C64.9201 67.8506 69.4148 70.4234 69.3459 71.3248C69.2771 72.2263 68.1753 72.6269 68.1753 72.6269C68.1753 72.6269 71.3929 73.8163 70.2286 75.3375C69.5106 76.2667 68.5813 77.0114 67.518 77.5097C67.7514 78.2768 67.9415 79.0563 68.0877 79.8447C68.2504 80.8526 67.3427 85.1845 67.3427 85.1845L65.1204 79.0935L58.1468 79.4503C58.1468 79.4503 57.7336 82.405 56.9949 83.4567C56.5234 84.255 56.2608 85.1593 56.2312 86.0859C56.2312 86.0859 55.9057 87.2002 55.5238 86.3238Z" fill="#263238" stroke="#263238" stroke-linecap="round" stroke-linejoin="round"/>
<path d="M56.7637 75.3187C56.7518 77.1367 56.62 78.9518 56.3693 80.7524C56.2185 81.7543 55.7009 82.6645 54.917 83.3065C54.917 83.3065 55.8059 87.4318 56.9327 89.6291C58.0595 91.8264 60.4008 93.6292 62.7608 93.3851C65.1208 93.141 67.0051 90.4617 67.2304 88.1955C67.4558 85.9294 66.3478 77.5535 66.3478 77.5535C66.3478 77.5535 58.9735 78.8494 56.7637 75.3187Z" fill="white" stroke="#263238" stroke-linecap="round" stroke-linejoin="round"/>
<path d="M57.3896 83.7885C57.7655 83.566 58.1899 83.4384 58.6262 83.4166C59.0624 83.3948 59.4974 83.4795 59.8936 83.6633" stroke="#263238" stroke-linecap="round" stroke-linejoin="round"/>
<path d="M57.2891 81.9105C57.2891 81.9105 57.433 80.6585 59.5239 80.5458" stroke="#263238" stroke-linecap="round" stroke-linejoin="round"/>
<path d="M62.8545 80.2704C63.3276 80.0766 63.8503 80.0395 64.346 80.1645C64.8418 80.2896 65.2844 80.5702 65.6089 80.9653" stroke="#263238" stroke-linecap="round" stroke-linejoin="round"/>
<path d="M62.1219 82.2924C62.1219 82.2924 62.4537 84.7964 62.4725 85.1031C62.4912 85.4099 63.5367 85.4662 63.255 86.1047C62.9733 86.7432 62.0656 87.4193 61.3081 86.9373" stroke="#263238" stroke-linecap="round" stroke-linejoin="round"/>
<path d="M63.2989 89.0344C63.2989 89.0344 62.5039 89.8044 60.9014 89.1533" stroke="#263238" stroke-linecap="round" stroke-linejoin="round"/>
<path d="M64.8828 83.0937C64.8828 83.5569 64.6888 83.945 64.4008 83.9575C64.1128 83.9701 63.8624 83.607 63.8374 83.15C63.8124 82.693 64.0315 82.3049 64.3194 82.2861C64.6074 82.2673 64.839 82.6367 64.8828 83.0937Z" fill="#263238"/>
</svg>
